<svg xmlns="http://www.w3.org/2000/svg" width="67" height="67" viewBox="0 0 67 67">
    <g fill="none" fill-rule="nonzero">
        <path fill="#F8D16B" d="M37.179 66.367c-16.492 0-29.813-14.622-29.813-32.867C7.366 15.255 20.686.633 37.18.633c16.492 0 29.813 14.622 29.813 32.867 0 18.245-13.448 32.867-29.813 32.867"/>
        <path fill="#F2C24D" d="M7.366 33.5C7.366 16.754 18.784 2.883 33.5.883c-1.269-.125-2.41-.25-3.679-.25C13.456.633.008 15.255.008 33.5c0 18.245 13.32 32.867 29.813 32.867 1.269 0 2.41-.125 3.679-.25-14.716-2-26.134-15.871-26.134-32.617"/>
        <path fill="#FADD90" d="M37.179 61.743c-13.828 0-24.992-12.747-24.992-28.243 0-15.496 11.164-28.243 24.992-28.243 13.828 0 24.865 12.747 24.865 28.243 0 15.496-11.164 28.243-24.865 28.243"/>
        <path fill="#D0A33B" d="M7.366 34.625H.008c0 .875.127 1.5.127 2.374h7.358c0-.75-.127-1.5-.127-2.374M7.62 28.751H.262c-.127.875-.127 1.5-.254 2.375h7.358c.127-.75.127-1.5.254-2.375M8 40.498H.644c.127.875.38 1.5.634 2.375h7.358c-.254-.75-.38-1.5-.634-2.375M9.65 46.372H2.419c.38.875.634 1.5 1.015 2.374h7.23c-.253-.75-.634-1.5-1.014-2.374M8.889 22.878H1.658c-.254.874-.508 1.5-.635 2.374h7.358c.127-.75.254-1.5.508-2.374M11.426 17.004H4.068c-.38.875-.761 1.5-1.142 2.375h7.358c.254-.75.635-1.5 1.142-2.375M16.247 10.006H8.889c-.761.75-1.396 1.5-1.903 2.374h7.358c.507-.875 1.268-1.624 1.903-2.374M23.732 4.132h-7.358c-1.269.75-2.41 1.5-3.553 2.375h7.358a34.924 34.924 0 0 1 3.553-2.375M13.456 53.495H6.098c.634.875 1.268 1.625 1.776 2.374h7.358c-.634-.75-1.142-1.624-1.776-2.374M11.426 59.369c1.015.874 1.903 1.624 3.045 2.374h7.358c-1.142-.75-2.03-1.5-3.045-2.374h-7.358z"/>
        <path fill="#EABC4C" d="M37.179 62.868c-14.462 0-26.134-13.122-26.134-29.368S22.717 4.132 37.18 4.132 63.313 17.254 63.313 33.5 51.64 62.868 37.179 62.868m0-56.361c-13.194 0-23.723 12.122-23.723 26.993 0 14.871 10.53 26.993 23.723 26.993 13.194 0 23.723-12.122 23.723-26.993 0-14.871-10.656-26.993-23.723-26.993"/>
        <g fill="#FFF">
            <path d="M39.982 30.704c1.802-4.48 3.733-8.827 6.436-12.78.901-1.185 1.674-3.03 3.733-2.107 1.802.79 2.96 2.24 2.703 4.48-.386 3.951-1.93 7.64-2.703 11.592-1.673 7.773-4.634 15.282-4.634 23.45 0 1.844-1.416 2.24-2.832 1.054-3.218-2.635-2.96-6.324-2.188-9.88 1.03-4.612 2.446-9.09 3.733-13.57.129-.659.515-1.186.257-2.108-1.03.527-1.158 1.581-1.544 2.372-2.446 5.796-4.763 11.593-7.209 17.389-.515 1.317-1.03 3.293-2.96 2.767-1.803-.527-2.832-2.108-2.832-4.084.257-5.929 2.06-11.462 3.218-17.258.128-.79.386-1.45.257-2.24-1.03-.131-1.158.923-1.416 1.45-2.06 4.083-4.119 8.167-6.307 12.251-.644 1.186-1.288 2.503-2.06 3.689-.515.922-1.416 1.58-2.574 1.185-1.159-.395-1.803-1.449-1.545-2.766.515-3.03 1.158-6.06 1.802-9.09 1.287-6.323 3.733-12.252 3.862-18.707 0-1.844 1.416-1.449 2.317-.79 1.544 1.185 2.574 2.766 2.574 4.742v4.216c1.288-1.713 2.189-3.03 3.218-4.347 1.03-1.45 2.317-3.03 4.377-2.108 2.06 1.054 3.218 2.898 2.96 5.27-.257 1.712-.772 3.556-1.03 5.269-.128.395-.514 1.054.387.659z"/>
        </g>
    </g>
</svg>
