<svg xmlns="http://www.w3.org/2000/svg" width="303" height="279" viewBox="0 0 303 279">
    <defs>
        <linearGradient id="a" x1="50.004%" x2="50.004%" y1="99.998%" y2=".019%">
            <stop offset="0%" stop-color="gray" stop-opacity=".25"/>
            <stop offset="54%" stop-color="gray" stop-opacity=".12"/>
            <stop offset="100%" stop-color="gray" stop-opacity=".1"/>
        </linearGradient>
        <linearGradient id="b" x1="50.188%" x2="50.188%" y1="100.263%" y2="0%">
            <stop offset="0%" stop-color="gray" stop-opacity=".25"/>
            <stop offset="54%" stop-color="gray" stop-opacity=".12"/>
            <stop offset="100%" stop-color="gray" stop-opacity=".1"/>
        </linearGradient>
    </defs>
    <g fill="none" fill-rule="nonzero" transform="translate(0 -.5)">
        <path fill="#FF9797" d="M93.573 28.922c10.262-9.15 26.406-11.014 41.097-10.277 46.136 2.288 87.786 24.537 123.805 49.703 13.04 9.112 25.88 18.93 34.348 31.474 17.233 25.539 12.119 60.92-11.845 81.96-8.153 7.158-18.034 12.647-28.18 17.524-18.041 8.65-37.509 15.593-57.983 17.567-14.602 1.412-29.386.264-43.901-1.703-40.551-5.515-80.36-17.646-113.728-38.45-14.635-9.116-28.43-20.447-34.46-35.197-6.032-14.75-2.172-33.435 12.77-42.164 6.18-3.61 13.573-5.24 20.806-6.772 10.649-2.255 21.47-4.477 31.08-9.056 9.93-4.735 21.676-13.887 19.713-24.359-2.109-11.238-3.784-21.111 6.478-30.25z"/>
        <path fill="#FFF" d="M93.573 28.922c10.262-9.15 26.406-11.014 41.097-10.277 46.136 2.288 87.786 24.537 123.805 49.703 13.04 9.112 25.88 18.93 34.348 31.474 17.233 25.539 12.119 60.92-11.845 81.96-8.153 7.158-18.034 12.647-28.18 17.524-18.041 8.65-37.509 15.593-57.983 17.567-14.602 1.412-29.386.264-43.901-1.703-40.551-5.515-80.36-17.646-113.728-38.45-14.635-9.116-28.43-20.447-34.46-35.197-6.032-14.75-2.172-33.435 12.77-42.164 6.18-3.61 13.573-5.24 20.806-6.772 10.649-2.255 21.47-4.477 31.08-9.056 9.93-4.735 21.676-13.887 19.713-24.359-2.109-11.238-3.784-21.111 6.478-30.25z" opacity=".621"/>
        <path fill="#FF6584" d="M194.999 25.383v.588c0 .167 0 .328-.024.505v.105c0 .141-.016.283-.03.42v.122a.44.44 0 0 1 0 .065c0 .128-.02.256-.033.384-.013.128-.023.204-.033.309-.03.253-.063.505-.103.758-.023.168-.05.328-.076.499a.14.14 0 0 0 0 .036c-.017.082-.03.164-.047.25-.016.085-.016.095-.026.144-.01.05 0 .085-.027.131s-.033.177-.053.263c-.02.085-.037.174-.057.262-.02.089-.026.128-.043.194l-.076.328a.042.042 0 0 0 0 .02l-.06.226-.07.276c-.03.112-.063.223-.093.328 0 .033 0 .06-.026.089l-.1.328c-.106.348-.223.696-.332 1.04l-.12.329-.07.18a23.223 23.223 0 0 1-3.239 5.75c-.08.112-.166.22-.25.329a24.598 24.598 0 0 1-2.042 2.297L153.999 75.5 120.03 41.938a23.838 23.838 0 0 1-4.04-5.304 23.507 23.507 0 0 1-2.21-17.48l.06-.226.037-.138.1-.328c.08-.26.16-.519.245-.778l.123-.355c.18-.502.372-.984.585-1.49l.13-.292c.066-.148.133-.295.202-.443.113-.236.23-.473.333-.706l.03-.052c.053-.108.11-.21.166-.328l.196-.358c.083-.148.17-.295.255-.443.04-.07.083-.138.123-.21.04-.072.05-.076.073-.118a.14.14 0 0 0 0-.023c.054-.086.107-.171.163-.256.057-.086.123-.194.186-.29.14-.212.283-.426.429-.636l.156-.22.196-.266c.066-.095.136-.187.21-.279l.252-.328c.08-.095.156-.193.232-.289l.083-.098.17-.204c.086-.105.176-.206.266-.308l.116-.135.02-.023.203-.223.225-.246c.213-.226.432-.453.665-.656l.262-.256.409-.381c.09-.082.18-.164.272-.243.093-.079.213-.19.333-.282l.212-.177c.07-.063.143-.122.213-.178.143-.118.289-.233.432-.328l.22-.17a26.32 26.32 0 0 1 1.112-.798l.226-.151.23-.148.215-.138.332-.196.16-.096.232-.134c.313-.18.625-.355.94-.519l.19-.098.292-.148.243-.118.242-.112.243-.115.246-.108.246-.105c.332-.141.664-.272.996-.397l.216-.131.266-.095.236-.082.2-.066.458-.145.236-.072.19-.052.185-.053c.11-.033.222-.062.332-.088l.439-.112a24.51 24.51 0 0 1 1.362-.289l.186-.033.26-.042.265-.043.332-.05.196-.025c.439-.056.877-.102 1.33-.135H138.283c.106 0 .216 0 .332.02h.226c.352.026.704.062 1.053.101l.472.063.332.046.262.042.263.043.173.03c.454.083.905.178 1.355.285l.552.141.152.043.236.066c.153.042.306.085.455.134l.2.063c.332.1.664.21.997.328l.225.082.296.111.445.178c.173.072.333.144.509.22l.199.085.272.128.243.111.24.119.301.15.24.125c.186.099.372.197.554.302l.233.131c.272.155.538.329.804.483l.216.138.23.147.225.151.15.102c.332.22.634.45.946.686l.22.17c.143.112.289.227.432.329.07.056.143.115.212.177l.213.177.332.283c.093.078.183.16.273.243l.382.4.262.256.266-.256.405-.38c.09-.083.18-.165.273-.244.093-.078.212-.19.332-.282l.213-.177c.07-.062.142-.122.212-.177.143-.118.29-.233.432-.329l.22-.17a26.32 26.32 0 0 1 1.112-.798l.226-.15.23-.148.215-.138.316-.197.16-.095.232-.135c.312-.18.625-.354.94-.518l.19-.099.292-.148.243-.118.242-.111.243-.115.245-.109.246-.105c.332-.14.665-.272.997-.397.08-.03.163-.062.246-.088l.262-.095.24-.083.195-.065.459-.145.236-.072.19-.052.185-.053c.11-.033.22-.062.333-.088l.435-.112a24.51 24.51 0 0 1 1.362-.289l.186-.033.26-.042.265-.043.332-.05.196-.025c.439-.056.877-.102 1.329-.135H172.248c.106 0 .215 0 .332.02h.226c.352.026.704.062 1.053.101l.472.063.332.046.262.042.263.043.173.03c.454.083.905.178 1.355.285l.552.141.152.043.236.066c.153.042.306.085.459.134l.196.062c.332.102.664.214.996.329l.223.082.296.111.445.178c.173.072.332.144.508.22l.2.085.272.128.243.111.239.119.302.15.243.125c.182.099.368.197.551.302l.233.131c.272.155.541.329.804.483l.216.138.229.147.226.151h.016l.15.102c.332.22.634.45.947.686l.219.17c.143.112.289.227.432.329.07.056.143.115.213.177l.212.177.276.243c.093.082.186.164.276.25l.156.14a.152.152 0 0 1 .023.024c.09.079.176.164.266.246l.12.115c.046.05.092.095.142.141l.263.266c.133.134.266.272.395.413a22.314 22.314 0 0 1 .598.66l.392.463c.449.545.867 1.103 1.263 1.674l.16.24c.059.085.112.17.169.255l.142.22c.08.128.16.253.236.38l.21.355c.043.073.086.145.126.217l.096.17.097.171.14.26.135.259c.313.604.596 1.22.85 1.848l.11.265c.103.26.2.516.293.778l.083.237c.036.111.076.223.11.328.033.105.066.2.096.302l.06.19c.03.092.056.184.083.276.026.092.063.226.096.328.05.184.096.368.143.555l.07.288c.033.138.063.276.093.414 0 .06.023.118.036.177.014.06.033.158.047.237.013.078.026.124.036.187l.03.157c0 .05 0 .099.027.148.026.05 0 .095.023.144l.05.296c0 .098.026.197.043.295.017.099.03.22.043.328.014.109.027.21.037.328l.02.181c0 .108.023.217.033.328v.161c0 .112.02.223.027.328a.049.049 0 0 1 0 .023v.424c0 .118 0 .236.016.354v.364c.04.256.04.49.037.722z"/>
        <path fill="#000" d="M194.999 25.082v.605c0 .172 0 .337-.023.52v.108c0 .145-.017.29-.03.432v.125a.469.469 0 0 1 0 .068c0 .132-.02.263-.033.395-.014.132-.023.21-.033.318-.03.26-.063.52-.103.78-.023.172-.05.338-.076.513a.148.148 0 0 0 0 .038c-.017.084-.03.168-.046.256-.017.088-.017.098-.027.149-.01.05 0 .088-.026.135-.027.047-.033.182-.053.27-.02.088-.037.18-.056.27-.02.092-.027.132-.044.2l-.076.338a.045.045 0 0 0 0 .02l-.06.233-.069.284c-.03.115-.062.23-.092.338 0 .033 0 .06-.027.09l-.099.339c-.106.358-.222.716-.33 1.07l-.12.338-.07.186c2.395-10.157-1.798-20.746-10.434-26.349-.43-.279-.865-.542-1.303-.79-9.345-5.25-20.965-3.547-28.485 4.175a24.112 24.112 0 0 0-2.922-2.533 23.536 23.536 0 0 0-28.905.716 24.374 24.374 0 0 0-4.632 5.003 24.53 24.53 0 0 0-1.323 2.114v.03a23.39 23.39 0 0 0-1.022 2.092c-.172.392-.331.79-.48 1.189.036-.156.076-.311.116-.463l.06-.233c.02-.074.023-.095.036-.142l.099-.338c.08-.267.159-.534.245-.8l.122-.365c.179-.517.37-1.014.582-1.534l.13-.3c.066-.153.132-.305.201-.457.113-.243.229-.486.331-.726l.03-.054c.053-.111.11-.216.165-.338l.196-.368c.082-.152.168-.304.254-.456.04-.07.083-.142.123-.216.04-.074.05-.078.072-.122v-.023c.053-.088.106-.176.163-.264.056-.088.122-.2.185-.297.139-.22.281-.44.427-.655l.155-.227.195-.273c.066-.098.136-.193.209-.288l.251-.337c.08-.098.156-.2.232-.298l.082-.1.17-.21c.085-.108.175-.213.264-.318l.116-.138.02-.024.201-.23.225-.253c.212-.233.43-.466.662-.676l.261-.263.407-.392a9.6 9.6 0 0 1 .272-.25c.092-.081.211-.196.33-.29l.212-.183c.07-.064.142-.125.212-.182.142-.122.288-.24.43-.338l.218-.176c.364-.284.731-.557 1.109-.82l.225-.156.228-.152.215-.142.33-.203.16-.098.231-.138c.311-.186.622-.365.936-.534l.189-.101.291-.152.242-.122.241-.115.242-.118.244-.111.245-.108c.331-.146.662-.28.993-.41l.221-.148.265-.098.235-.084.198-.068.457-.148.235-.075.189-.054.185-.054c.11-.034.22-.064.33-.091l.437-.115c.45-.111.904-.213 1.357-.297l.185-.034.258-.044.265-.044.33-.05.196-.028c.436-.057.873-.104 1.323-.138H138.522c.105 0 .215 0 .33.02h.225c.351.027.702.064 1.05.105l.469.064.33.047.262.044.261.044.173.03c.452.086.902.184 1.35.295l.549.145.152.044.235.067c.152.044.304.088.453.139l.198.064c.331.104.662.216.993.338l.225.084.294.115.444.183c.172.074.33.148.506.226l.198.088.272.131.241.115.238.122.301.155.239.129c.185.101.37.202.552.31l.232.136c.27.158.536.337.8.496l.215.142.229.152.225.155.148.105c.331.226.632.463.943.706l.219.176c.142.115.287.233.43.338.07.057.142.118.211.182l.212.182.331.29a9.6 9.6 0 0 1 .271.25l.38.413.262.263.265-.263.403-.392c.09-.084.18-.169.272-.25.092-.08.211-.196.33-.29l.212-.183c.07-.064.143-.125.212-.182.142-.122.288-.24.43-.338l.218-.176c.364-.283.732-.557 1.109-.82l.225-.156.228-.152.215-.142.314-.202.16-.098.23-.139c.312-.186.623-.365.937-.534l.189-.101.29-.152.242-.122.242-.114.241-.119.245-.111.245-.108c.33-.146.662-.28.992-.409.08-.03.163-.064.245-.091l.262-.098.238-.085.195-.067.457-.149.234-.074.189-.054.185-.054c.11-.034.219-.064.331-.091l.434-.115c.45-.112.903-.213 1.356-.298l.185-.033.258-.044.265-.044.33-.05.196-.028c.437-.057.873-.105 1.323-.138H172.343c.106 0 .215 0 .33.02h.226c.35.027.701.064 1.049.105l.47.064.33.047.262.044.26.044.173.03c.452.086.902.184 1.35.294l.549.145.152.044.235.068c.152.044.304.088.457.138l.195.065c.33.104.661.22.992.337l.222.085.294.115.444.182c.172.074.33.149.506.226l.198.088.272.132.241.115.238.122.301.155.242.128c.182.102.367.203.55.311l.23.135c.272.159.54.338.801.497l.215.142.229.152.225.155h.016l.15.105c.33.226.631.463.942.706l.218.175c.143.115.288.233.43.338.07.058.143.118.212.183l.212.182.274.25c.093.084.186.169.275.257l.156.145a.154.154 0 0 1 .023.024c.089.08.175.169.264.253l.12.118c.046.05.092.098.142.145l.261.274c.132.139.265.28.394.426a22.736 22.736 0 0 1 .596.679l.39.476c.446.56.863 1.135 1.257 1.723l.159.246c.06.088.112.176.168.264l.143.226c.079.132.158.26.235.392l.208.365c.043.074.086.149.126.223l.096.176.096.175.139.267.135.267c.311.621.593 1.255.847 1.902l.11.273c.102.267.198.53.29.801l.083.243c.037.115.076.23.11.338.032.108.065.206.095.31l.06.197c.03.094.056.189.082.283.027.095.063.234.096.338.05.19.096.379.143.571l.07.297c.032.142.062.284.092.426 0 .06.023.122.036.182.013.061.033.163.047.244.013.08.026.128.036.192l.03.162c0 .051 0 .102.026.152.027.051 0 .098.023.149l.05.304c0 .101.026.203.043.304.016.101.03.226.043.338.013.111.026.216.036.338l.02.185c0 .112.023.223.033.338v.166c0 .115.02.23.027.338a.052.052 0 0 1 0 .023v.436c0 .122 0 .243.016.365v.375c.04.263.04.503.037.743z" opacity=".1"/>
        <path fill="#FF6584" d="M249.999 98.873v.533a.044.044 0 0 1 0 .02V99.641l-.03.238c0 .05-.017.104-.023.154v.124a.17.17 0 0 1 0 .04v.084a.677.677 0 0 1-.017.08v.061c0 .02 0 .07-.023.104l-.02.07-.02.085-.03.104v.03c0 .01-.02.07-.033.104-.03.11-.066.218-.103.335 0 .037-.026.07-.036.104a7.25 7.25 0 0 1-.992 1.845l-.077.104c-.192.251-.4.49-.624.714L237.502 114.5l-10.356-10.469a7.45 7.45 0 0 1-1.234-1.643 7.5 7.5 0 0 1-.886-4.21c0-.134.027-.268.046-.402.034-.235.077-.47.133-.701 0-.047.02-.094.033-.141l.02-.07v-.044l.03-.104c.023-.08.05-.161.076-.242l.037-.11c.053-.16.113-.313.18-.463l.039-.094.06-.138c.036-.073.07-.147.11-.218v-.016l.052-.098.06-.11c.023-.047.05-.094.076-.141l.04-.064.02-.037c0-.027.03-.054.046-.08.017-.027.04-.06.057-.091.016-.03.086-.134.133-.198l.046-.07.06-.084.063-.084.08-.104.07-.09.026-.03.05-.065.082-.097.034-.04.063-.07c.02-.027.046-.05.07-.078.023-.026.129-.14.198-.211l.08-.077.123-.12.083-.078.1-.087.062-.054.067-.057.13-.107.069-.054c.11-.084.222-.168.332-.248l.07-.047.066-.047.066-.04.1-.064.046-.027.073-.043c.093-.057.19-.111.285-.161l.057-.03.09-.048.072-.037.077-.036.073-.034.073-.033.076-.034.302-.124.076-.027.08-.03.073-.027.06-.02.14-.044.072-.023.057-.017.056-.017.103-.027.133-.033c.136-.037.275-.067.414-.09h.379c.132-.017.265-.034.401-.044h1.112l.332.033.146.02h.308c.14.024.276.054.415.088l.166.043h.046l.073.02.14.044.06.017c.102.033.202.067.301.107l.07.024.09.036.136.054.152.067.063.03.083.037.073.037.073.037.093.047.073.04.17.09.07.044c.082.047.165.098.245.151l.066.04.07.048.07.047.046.033.288.211c.021.02.043.038.067.054l.133.107.063.057.066.054.096.087.083.077.123.121a.91.91 0 0 1 .083.077.583.583 0 0 1 .08-.077l.122-.12.083-.078.097-.087.066-.054.063-.057.133-.107a.519.519 0 0 0 .066-.054l.332-.248.07-.047.07-.047.066-.04.096-.064.05-.027.07-.043c.094-.058.19-.112.288-.161l.056-.03.09-.047.073-.037.073-.037.076-.034.073-.033.077-.034.302-.124.076-.027.08-.03.072-.027.06-.02.14-.043.073-.024.056-.017.056-.016.1-.027.133-.034c.139-.036.278-.066.418-.09H241.687c.136-.017.268-.034.401-.044h1.112l.332.034c.05 0 .096 0 .142.02h.312c.136.023.276.053.412.087l.169.043h.046l.073.02.14.044.06.017c.099.034.202.067.301.107l.067.024.09.037.135.053.156.067.06.03.083.038.076.036.073.037.09.047.076.04.166.091.073.044c.083.047.163.097.246.15l.066.04.066.048.07.047.043.033c.1.067.196.138.289.212l.07.053.13.108.065.057.063.053.087.078.083.077.046.043.08.077.036.034.043.044.08.083.123.128c.023.027.046.05.066.077l.116.13.12.145c.136.168.265.335.385.523l.05.074.05.08.042.068.073.12.063.108.04.07.03.054.027.054c.016.024.03.05.043.077l.04.084c.096.187.182.379.262.573 0 .03.023.057.033.084l.09.242c0 .026 0 .05.023.077.023.026.023.067.036.104.011.03.02.062.027.094l.02.057c0 .03.016.057.023.087l.03.107c.016.057.03.114.043.171.01.03.017.06.023.09 0 .044.02.088.027.132.006.043 0 .036 0 .053v1.037a.43.43 0 0 0 0 .067v.225c0 .036.202.154.199.228z"/>
        <path fill="#000" d="M249.999 98.198V98.681a.036.036 0 0 1 0 .018v.195l-.03.215c0 .046-.017.094-.024.14V99.361a.137.137 0 0 1 0 .037v.076a.556.556 0 0 1-.017.073v.054c0 .018 0 .064-.023.094l-.02.064-.02.076-.03.094v.027c0 .01-.021.064-.035.095-.03.1-.067.197-.104.303 0 .034-.027.064-.037.094a.351.351 0 0 1-.023.052 5.922 5.922 0 0 0 .205-1.624c-.023-2.273-1.317-4.381-3.44-5.603a7.395 7.395 0 0 0-.406-.218 8.144 8.144 0 0 0-7.14 0 7.261 7.261 0 0 0-1.674 1.139 7.377 7.377 0 0 0-.909-.7 7.888 7.888 0 0 0-.766-.44c-2.624-1.307-5.862-1.055-8.2.638a7.731 7.731 0 0 0-.618.501 6.83 6.83 0 0 0-.814.872 6.08 6.08 0 0 0-.874 1.482c0-.043.02-.085.034-.128l.02-.064v-.04l.03-.093c.024-.073.05-.146.077-.219l.037-.1a4.47 4.47 0 0 1 .182-.42l.04-.084.06-.125c.038-.067.071-.133.112-.197v-.015l.053-.088.061-.1a2.58 2.58 0 0 1 .077-.128l.04-.058.02-.033c0-.024.031-.049.048-.073.017-.024.04-.055.057-.082.017-.027.087-.121.135-.18l.047-.063.06-.076.064-.076.08-.094.071-.082.027-.027.05-.058.085-.088.033-.036.064-.064c.02-.024.047-.046.07-.07a6.69 6.69 0 0 1 .202-.191l.081-.07.125-.11.084-.07.1-.078.064-.049.068-.051.13-.098.071-.048c.111-.076.225-.152.336-.225l.071-.042.067-.043.067-.036.101-.058.047-.024.074-.04c.095-.051.192-.1.29-.146l.057-.027.09-.042.074-.034.078-.033.074-.03.074-.03.077-.031.306-.113.077-.024.08-.027.075-.025.06-.018.142-.04.074-.02.057-.016.057-.015.104-.024.135-.03c.137-.034.279-.061.42-.082h.383c.134-.016.269-.03.407-.04h1.126l.336.03.148.019h.313c.141.02.279.048.42.079l.168.04h.047l.074.017.141.04.06.015c.105.03.206.06.307.097l.07.021.091.034.138.048.155.061.063.027.085.034.074.033.073.034.095.042.074.037.171.082.07.039c.085.043.169.088.25.137l.067.036.07.043.07.042.048.03.292.192a.52.52 0 0 0 .068.048l.134.098.064.051.067.049.098.079.084.07.124.109a.89.89 0 0 1 .084.07.567.567 0 0 1 .08-.07l.125-.11.084-.07.098-.078.067-.049.064-.051.134-.098a.52.52 0 0 0 .068-.048l.336-.225.07-.042.071-.043.067-.036.098-.058.05-.024.07-.04c.097-.052.195-.101.293-.146l.057-.027.091-.042.074-.034.074-.033.077-.03.074-.031.078-.03.306-.113.077-.024.08-.027.075-.025.06-.018.141-.04.074-.02.057-.016.058-.015.1-.024.135-.03c.141-.033.282-.06.423-.083H241.698c.138-.015.273-.03.407-.039h1.126l.337.03c.05 0 .097 0 .144.019h.316c.138.02.28.048.417.079l.171.039h.048l.074.018.14.04.061.015c.101.03.205.06.306.097l.067.021.091.034.138.048.158.061.06.027.085.034.077.033.074.034.09.042.078.036.168.082.074.04c.084.042.165.088.249.137l.067.036.067.043.07.042.045.03c.1.061.198.125.292.192l.07.048.132.097.067.052.064.049.087.07.084.07.047.039.081.07.037.03.044.04.08.075.125.116c.023.024.047.045.067.07l.118.118.12.13c.139.152.27.304.39.474l.051.067.05.073.044.06.074.11.064.097.04.064.03.049.028.048a.508.508 0 0 1 .043.07l.04.076c.098.17.186.343.266.52 0 .026.024.05.034.075l.09.219c0 .024 0 .045.024.07.024.024.024.06.037.094.011.027.02.056.027.085l.02.051c0 .028.017.052.024.08l.03.096c.017.052.03.104.044.155.01.027.017.054.023.082 0 .04.02.08.027.119.007.04 0 .033 0 .048V97.703a.348.348 0 0 0 0 .061V97.968c0 .033.084.164.08.23z" opacity=".1"/>
        <path fill="#FF6584" d="M202.999 85.899v.683a.908.908 0 0 1 0 .094c0 .08 0 .16-.03.238-.03.077 0 .103-.024.154a.622.622 0 0 1 0 .077.262.262 0 0 1 0 .047v.12l-.02.08a.39.39 0 0 1 0 .06.948.948 0 0 1-.023.105.538.538 0 0 0 0 .07.84.84 0 0 0-.023.087l-.03.104a.08.08 0 0 1 0 .027l-.03.107c-.034.107-.067.218-.107.335 0 .033-.023.067-.037.1l-.02.057a7.378 7.378 0 0 1-.977 1.789l-.077.1a7.36 7.36 0 0 1-.624.717l-10.41 10.45-10.411-10.45c-.299-.3-.571-.627-.814-.975a7.235 7.235 0 0 1-.427-.67 7.394 7.394 0 0 1-.887-4.2c0-.137.026-.268.043-.402.033-.237.077-.468.133-.703 0-.047.024-.094.037-.137a.477.477 0 0 1 .017-.074.188.188 0 0 1 0-.04l.03-.107c.023-.08.046-.161.073-.241l.04-.11c.053-.158.114-.312.177-.467l.04-.09c.02-.047.04-.094.063-.137.024-.044.07-.148.107-.221v-.017l.05-.1.06-.111.08-.137a.67.67 0 0 1 .037-.067l.023-.037.05-.08c.017-.03.037-.06.057-.091l.13-.198.05-.067.06-.083.064-.087.076-.104a.92.92 0 0 1 .074-.087.288.288 0 0 1 .023-.034l.053-.06.08-.097.037-.044.06-.07.07-.077.2-.208.08-.08.127-.117a.912.912 0 0 1 .084-.078l.096-.087.067-.057.063-.053.134-.107.067-.054c.11-.087.226-.17.333-.248l.07-.047.07-.047.067-.043.097-.06.046-.03.074-.044c.093-.054.19-.11.287-.16l.06-.031-.007-.077.073-.037.074-.033.073-.037.077-.034.073-.033.307-.124.074-.027.08-.03.073-.023.063-.02.14-.047.07-.02.06-.017.057-.017.1-.03.134-.034.417-.09H184.262c.133-.017.27-.03.404-.04h1.117c.107 0 .217.016.334.03l.143.02h.31c.14.027.28.057.417.09l.17.044h.047a.552.552 0 0 1 .07.02l.14.04.064.02.3.104.07.027.09.033.137.057.157.067.06.027.083.04.073.034.074.037.093.047.074.04.17.094.073.04.244.15.066.044.07.047.07.047.047.03a6.518 6.518 0 0 1 .357.268c.047.033.09.07.133.107l.067.054.063.057.097.087c.03.024.057.05.084.077l.126.117.08.08.08-.08.124-.117.083-.077.1-.087.064-.057.066-.054c.044-.037.087-.074.134-.107a7.138 7.138 0 0 1 .4-.301l.07-.047.07-.047.064-.044.1-.06.046-.03.074-.044c.093-.053.19-.11.287-.16l.056-.03.09-.048.077-.037.074-.033.073-.037.077-.033.073-.034.304-.124.076-.027.08-.03.074-.023.06-.02.14-.047.073-.02.057-.017.057-.017.103-.03.134-.033a9.27 9.27 0 0 1 .417-.09h.38a7.84 7.84 0 0 1 .403-.041h1.118l.333.03.144.02h.31c.14.027.277.057.417.09l.17.044h.044c.025.005.05.012.073.02l.14.04.06.02.304.104.07.027.09.034.137.057.156.067.06.026.084.04.073.034.074.037.093.047.073.04.17.094.07.04.247.15.067.044.07.047.07.047.047.03.29.215.067.053.133.107.064.054.066.057.084.074.086.077.047.046.084.078.036.036.044.044.08.08.12.13.07.078c.04.04.076.084.113.127l.12.144c.137.171.267.335.387.523l.05.073.05.08c.016.023.03.047.044.071.026.037.05.077.073.117l.063.11.04.068.03.053.03.054.04.08c0 .027.03.054.044.08a6.347 6.347 0 0 1 .293.66c.034.081.064.161.09.242 0 .023.017.05.027.073l.034.104.03.094c0 .02 0 .04.016.06.017.02 0 .057.027.084l.03.107c0 .057.03.118.043.174l.02.09.03.128v.057a.481.481 0 0 1 0 .074.336.336 0 0 1 0 .057.259.259 0 0 1 0 .05v.09c.002.03.002.06 0 .09a.908.908 0 0 1 0 .095c0 .033 0 .067.017.1v.767c.147.11.147.184.147.265z"/>
        <path fill="#000" d="M202.999 85.196v.619a.742.742 0 0 1 0 .084c0 .073 0 .146-.03.216s0 .094-.024.14a.509.509 0 0 1 0 .069.214.214 0 0 1 0 .042V86.475l-.02.073a.319.319 0 0 1 0 .055.787.787 0 0 1-.023.094.44.44 0 0 0 0 .063.702.702 0 0 0-.024.08l-.03.093a.066.066 0 0 1 0 .024l-.03.097c-.033.097-.067.197-.107.304 0 .03-.023.06-.037.09l-.02.052a6.08 6.08 0 0 0-.05-3.304c-.48-1.617-1.611-3.013-3.171-3.91a6.19 6.19 0 0 0-.402-.216 8.065 8.065 0 0 0-7.108 0 6.746 6.746 0 0 0-.7.397c-.345.22-.669.466-.966.737a7.443 7.443 0 0 0-1.666-1.134c-2.878-1.429-6.452-.967-8.775 1.134a6.972 6.972 0 0 0-.95.87 6.821 6.821 0 0 0-.404.579c-.114.188-.221.379-.315.573-.053.106-.1.215-.147.324 0-.042.023-.085.037-.124a.397.397 0 0 1 .017-.067.154.154 0 0 1 0-.036l.03-.097c.023-.073.046-.146.073-.218l.04-.1c.054-.143.114-.282.178-.422l.04-.082c.02-.042.04-.085.063-.124.024-.04.07-.133.107-.2v-.015l.05-.091.06-.1.081-.124a.592.592 0 0 1 .037-.061l.023-.033.05-.073c.017-.027.037-.055.057-.082l.13-.179.051-.06.06-.076.064-.08.077-.093a.86.86 0 0 1 .073-.079.262.262 0 0 1 .024-.03l.053-.055.08-.088.037-.039.06-.064.07-.07.201-.187.08-.073.128-.106a.886.886 0 0 1 .084-.07l.097-.079.066-.051.064-.049.134-.097.067-.048c.11-.08.227-.155.334-.225l.07-.042.07-.042.068-.04.097-.054.046-.028.074-.04c.094-.048.19-.1.288-.145l.06-.027.127-.051.074-.034.073-.03.074-.033.077-.03.073-.031.308-.112.074-.024.08-.028.074-.021.063-.018.14-.043.071-.018.06-.015.057-.015.1-.027.134-.03.418-.083H184.208c.135-.015.272-.027.405-.036h1.121c.107 0 .218.015.335.027l.144.019h.31c.141.024.282.051.419.081l.17.04h.047a.6.6 0 0 1 .07.018l.14.036.065.019.3.094.07.024.091.03.137.052.158.06.06.024.083.037.074.03.074.034.093.042.074.036.17.085.074.037.244.136.067.04.07.042.07.042.047.028a6.543 6.543 0 0 1 .492.34l.067.048.064.051.097.079c.03.022.057.045.083.07l.127.106.08.072.081-.072.124-.106.083-.07.1-.079.064-.051.067-.049c.044-.033.087-.067.134-.097a7.16 7.16 0 0 1 .401-.273l.07-.042.071-.043.064-.039.1-.055.047-.027.073-.04c.094-.048.191-.1.288-.145l.057-.027.09-.043.077-.033.074-.03.073-.034.077-.03.074-.03.304-.112.077-.025.08-.027.074-.021.06-.018.14-.043.074-.018.057-.015.057-.015.104-.027.134-.03c.14-.031.277-.058.418-.083h.381c.134-.015.268-.027.405-.036h1.121l.334.027.144.018h.311c.14.025.278.052.418.082l.17.04h.044a.51.51 0 0 1 .074.018l.14.036.06.018.305.094.07.025.09.03.138.052.157.06.06.024.084.037.073.03.074.033.094.043.073.036.17.085.071.037.248.136.067.04.07.042.07.042.047.027.29.195.068.048.134.097.063.049.067.051.084.067.087.07.047.042.083.07.037.033.043.04.08.072.121.118.07.07c.04.036.077.076.114.115l.12.13c.138.155.268.304.389.473l.05.067.05.073c.016.02.03.042.043.064.027.033.05.07.074.106.023.036.044.066.064.1l.04.06.03.049.03.048.04.073c0 .024.03.049.044.073a5.487 5.487 0 0 1 .294.597c.033.073.064.146.09.218 0 .021.017.046.027.067l.034.094.03.085c0 .018 0 .036.016.054.017.019 0 .052.027.076l.03.097c0 .052.03.106.044.158l.02.082.03.115v.051a.393.393 0 0 1 0 .067.275.275 0 0 1 0 .052.212.212 0 0 1 0 .045v.082a.69.69 0 0 1 0 .082.742.742 0 0 1 0 .085c0 .03 0 .06.017.09v.694c.147.1.147.167.147.24z" opacity=".1"/>
        <path fill="#FF6584" d="M104.999 92.88a.432.432 0 0 1 0 .064V93.551a.976.976 0 0 1 0 .098c0 .08-.017.157-.03.238-.014.08 0 .104-.024.154a.53.53 0 0 1 0 .077V94.29l-.02.08c.002.021.002.041 0 .061 0 .034 0 .07-.023.104a.54.54 0 0 0-.017.07.786.786 0 0 0-.023.085l-.03.104c.002.01.002.02 0 .03l-.03.104a9.559 9.559 0 0 1-.143.44l-.02.056a7.364 7.364 0 0 1-.977 1.788l-.077.104c-.192.252-.4.49-.623.715L92.558 108.5 82.154 98.03a7.46 7.46 0 0 1-1.24-1.644 7.443 7.443 0 0 1-.887-4.21c0-.134.027-.268.044-.403.033-.234.076-.47.133-.7 0-.048.023-.095.033-.142l.02-.07a.22.22 0 0 1 0-.044c0-.033.017-.07.027-.104.023-.08.047-.16.073-.241.027-.08.027-.074.037-.111.055-.159.115-.313.18-.463l.04-.094c.02-.043.04-.09.063-.137.024-.047.07-.148.107-.218v-.017l.05-.098.06-.11.08-.141.037-.064.023-.037.05-.08c.017-.03.037-.06.057-.09l.13-.199.05-.07.06-.084c.02-.027.04-.057.063-.084.024-.036.05-.07.077-.104l.073-.09.023-.03.05-.065.084-.097.036-.04.06-.07.07-.078.2-.211.08-.077.127-.12.083-.078.097-.087.067-.054.063-.057.133-.107.067-.054c.11-.084.223-.168.333-.248l.07-.047.07-.047.067-.04a.966.966 0 0 1 .097-.064l.046-.027.074-.044c.093-.057.19-.11.286-.16l.06-.034.03-.047.074-.037.073-.037.073-.034.077-.033.073-.034.307-.124.074-.027.08-.03.073-.027.063-.02.14-.043.07-.024.06-.017h.057l.1-.026.133-.034c.14-.037.277-.067.417-.09H86.13l.1-.017h.06c.133 0 .27-.034.403-.044h1.107l.333.034.144.016.096.017H88.588c.14.024.28.054.416.087l.17.044h.047l.07.02.14.044.06.016c.103.034.203.068.303.108l.07.023.09.037.137.054.157.067.06.03.083.037.074.037.073.037.093.047.074.04.17.09.07.044c.083.047.166.098.246.151l.067.04.07.047.07.047a6.378 6.378 0 0 1 .337.245l.066.054.134.107.063.057.067.054.096.087.084.077.126.121.08.077.08-.077.124-.12.083-.078.1-.087.063-.054.067-.057.133-.107.067-.054c.11-.084.223-.167.333-.248l.07-.047.07-.047.064-.04.1-.064.046-.027.074-.043c.093-.057.19-.111.286-.161.02-.01.04-.02.057-.034l.09-.044.073-.036.077-.037.073-.034.077-.033.073-.034.304-.124.076-.027.08-.03.074-.027.06-.02.14-.044.073-.023.057-.017h.057l.103-.027.133-.033c.137-.037.277-.067.417-.09H96.522l.103-.018h.06c.133 0 .267-.033.403-.043h1.117l.333.033.147.017.097.017h.213c.14.023.277.053.417.087l.166.044h.047l.073.02.14.043.06.017c.104.034.204.067.304.108l.07.023.09.037.137.054.153.067.063.03.084.037.073.037.073.037.094.047.073.04.17.09.07.044c.083.047.167.097.247.15l.066.041.07.047.07.047.047.034.29.211.067.054.133.107.063.057.067.054.083.077c.03.024.057.05.084.077l.05.044.083.077.033.033.047.044.08.084.12.127.07.078.113.13.12.145c.137.167.267.335.387.523l.05.074.05.08a.46.46 0 0 1 .043.067c.027.04.05.08.074.121l.063.107.04.07.03.055.03.053.04.077c.017.027.03.057.043.084.097.187.183.378.26.574l.034.084c.033.08.063.16.09.241l.026.078c0 .033.024.067.034.104l.03.093c0 .02 0 .04.016.057l.027.088c.01.035.02.07.027.107l.046.171.02.09.03.132v.053a.574.574 0 0 1 0 .074c.002.02.002.04 0 .06a.2.2 0 0 1 0 .047v.185c.002.03.002.06 0 .09v.104a.976.976 0 0 1 0 .098v.211c.002.035.002.07 0 .104a.409.409 0 0 0 0 .064v.292c0 .037.154.14.154.214z"/>
        <path fill="#000" d="M104.999 92.194a.354.354 0 0 1 0 .058v.55a.8.8 0 0 1 0 .088c0 .073-.017.143-.03.216-.014.074 0 .095-.024.14a.435.435 0 0 1 0 .07V93.472l-.02.073a.321.321 0 0 1 0 .054c0 .03 0 .064-.023.095a.45.45 0 0 0-.017.064.66.66 0 0 0-.023.076l-.03.094a.08.08 0 0 1 0 .027l-.03.095a8.078 8.078 0 0 1-.144.398l-.02.052a6.137 6.137 0 0 0-.05-3.32c-.516-1.635-1.695-3.031-3.299-3.906-.13-.08-.267-.15-.4-.22a8.058 8.058 0 0 0-7.109 0 7.342 7.342 0 0 0-1.665 1.142 7.46 7.46 0 0 0-1.666-1.141 8.058 8.058 0 0 0-7.108 0 7.24 7.24 0 0 0-1.046.639 7.18 7.18 0 0 0-.62.502 6.825 6.825 0 0 0-1.213 1.454 6.979 6.979 0 0 0-.462.904c0-.043.023-.085.033-.128l.02-.064a.18.18 0 0 1 0-.04c0-.03.017-.063.027-.094.024-.073.047-.146.074-.219.027-.073.027-.067.037-.1a6.11 6.11 0 0 1 .18-.42l.04-.085c.02-.04.04-.082.064-.125.023-.043.07-.134.107-.198v-.015l.05-.088.06-.1.08-.129.037-.057.024-.034.05-.073c.017-.027.037-.055.057-.082l.13-.18.05-.063.06-.076c.02-.025.04-.052.064-.076.024-.033.05-.065.077-.095l.074-.082.023-.027.05-.058.084-.088.037-.037.06-.064.07-.07.2-.191.081-.07.127-.11.084-.07.097-.08.067-.048.063-.051.134-.098.067-.049c.11-.076.224-.152.334-.225l.07-.042.071-.043.067-.036a.984.984 0 0 1 .097-.058l.047-.025.073-.04a5 5 0 0 1 .288-.145l.06-.03.15-.043.074-.034.074-.033.073-.03.077-.03.074-.031.308-.113.073-.024.08-.028.074-.024.064-.018.14-.04.07-.021.06-.015h.057l.1-.025.135-.03c.14-.034.277-.06.418-.082H86.067l.1-.015h.061c.134 0 .27-.03.405-.04h1.11l.335.03.143.016.097.015H88.532c.141.021.281.049.419.079l.17.04h.047l.07.018.14.04.06.015c.105.03.205.06.305.097l.07.021.09.034.138.048.157.061.06.028.084.033.074.034.073.033.094.043.073.036.171.082.07.04c.084.042.167.088.248.137l.067.036.07.043.07.042a6.417 6.417 0 0 1 .338.222l.067.05.134.097.063.051.067.049.097.08.084.07.127.109.08.07.08-.07.124-.11.084-.07.1-.079.064-.049.067-.051.133-.098.067-.048c.11-.077.224-.153.335-.226l.07-.042.07-.043.064-.036.1-.058.047-.024.073-.04a5 5 0 0 1 .288-.146.343.343 0 0 0 .057-.03l.09-.04.074-.034.077-.033.073-.03.077-.03.074-.031.304-.113.077-.024.08-.028.074-.024.06-.018.14-.04.074-.021.057-.015h.057l.104-.025.134-.03a4.81 4.81 0 0 1 .418-.082H96.493l.104-.015h.06c.134 0 .268-.03.405-.04h1.12l.335.03.147.016.097.015h.214c.14.021.277.049.418.079l.167.04h.047l.074.018.14.04.06.015c.104.03.204.06.305.097l.07.021.09.034.137.048.154.061.064.028.083.033.074.034.074.033.093.043.074.036.17.082.07.04c.084.042.168.088.248.137l.067.036.07.043.07.043.047.03.291.192.067.048.134.098.064.051.066.05.084.069c.03.022.057.045.084.07l.05.04.083.07.034.03.047.04.08.076.12.115.07.07.114.119.12.13c.138.153.268.305.389.475l.05.067.05.073c.017.02.031.04.044.061.026.037.05.073.073.11l.064.097.04.064.03.049.03.048.04.07c.017.025.03.052.044.076.096.17.183.343.26.52l.034.077c.034.073.064.146.09.219l.027.07c0 .03.024.06.034.094l.03.085c0 .019 0 .037.016.052l.027.08c.011.031.02.064.027.096.017.052.03.104.047.156l.02.082.03.118v.05a.47.47 0 0 1 0 .066.321.321 0 0 1 0 .055.163.163 0 0 1 0 .042V91.126a.694.694 0 0 1 0 .082v.094a.8.8 0 0 1 0 .088v.193a.83.83 0 0 1 0 .093.335.335 0 0 0 0 .058V92c0 .033.154.128.154.195z" opacity=".1"/>
        <path fill="#FF6584" d="M101.999 144.87v.117a.453.453 0 0 1 0 .067v.359a.044.044 0 0 1 0 .02v.215l-.03.238c0 .05 0 .104-.024.154v.121a.169.169 0 0 1 0 .04.621.621 0 0 1-.016.084.675.675 0 0 1-.017.08v.061c0 .02 0 .07-.023.104l-.02.07-.02.088-.03.104v.027c0 .01-.02.07-.033.107-.03.108-.067.218-.104.336l-.036.1a.293.293 0 0 1-.024.057 7.264 7.264 0 0 1-.973 1.792l-.076.101c-.193.252-.403.49-.627.715L89.552 160.5l-10.399-10.473a7.46 7.46 0 0 1-1.239-1.644 7.427 7.427 0 0 1-.886-4.212c0-.134.023-.268.043-.4.033-.237.077-.469.133-.704 0-.047.02-.094.034-.14l.02-.071v-.04l.03-.108.076-.242.037-.11c.057-.158.113-.312.18-.467l-.05-.094.06-.137c.036-.074.07-.148.11-.222v-.017l.053-.097.06-.11a1.82 1.82 0 0 1 .077-.138l.04-.067.02-.037c0-.027.03-.054.046-.08.017-.028.04-.061.057-.091l.133-.198c.017-.024.03-.047.047-.067l.06-.084.063-.088.08-.104.07-.09.027-.03.05-.064.083-.097.037-.04.063-.071.096-.084c.064-.07.13-.141.2-.208l.08-.08.124-.122.083-.073.1-.088.063-.057.067-.053c.043-.037.086-.074.133-.108a7.131 7.131 0 0 1 .4-.302l.07-.047a.51.51 0 0 1 .07-.047l.063-.043.1-.06.047-.03.073-.045c.093-.057.19-.11.287-.16l.056-.03.09-.048.073-.037.077-.033.073-.037.074-.034.076-.033.303-.124.077-.027.08-.03.073-.024.06-.02.14-.047.074-.024.056-.016h.057l.103-.03.133-.034c.137-.034.277-.064.417-.09h.38c.133-.018.266-.03.403-.041h1.106l.333.03.147.02h.31c.14.024.276.054.416.088l.167.047h.046l.073.023.14.04.06.02c.104.03.204.068.304.104l.07.027.09.034.136.057.153.067.064.027.083.04.073.034.074.037.093.047.073.04.17.094.07.04c.083.05.167.097.247.151l.066.044.07.047.07.047.047.03.29.215.066.053.134.108.063.053.066.057.097.088.083.074.124.12.083.08.08-.08.123-.12.083-.074.097-.088.067-.057.063-.053.133-.108.067-.053c.113-.088.226-.171.333-.249l.07-.047.07-.047.067-.043.096-.06.05-.03.07-.044.29-.162.057-.03.09-.047.073-.037.073-.033.077-.037.073-.034.077-.033.303-.124.077-.027.08-.03.073-.024.06-.02.14-.047.073-.024.057-.016h.056l.1-.03.137-.034c.137-.034.276-.064.416-.09H93.683l.403-.04h1.106c.11 0 .217.016.333.03l.144.02h.313c.14.023.276.053.413.087l.17.047h.046l.074.023.14.04.06.02c.1.03.203.068.303.105l.066.026.09.034.137.057.157.067.06.027.083.04.076.034.074.037.093.047.073.04c.057.03.114.06.167.094l.073.04.247.151.066.044.07.047.067.047.043.03c.1.07.197.14.29.215l.07.053.13.108.067.053.063.058.087.073.083.078.047.047.08.077.036.037.043.043.08.08.124.132.07.073.113.131.12.145c.137.17.266.335.386.523l.05.074.05.08.044.071.073.117.063.111.04.067.03.054c0 .017.017.037.027.054.01.016.03.053.043.08a.95.95 0 0 0 .043.08c.094.189.18.383.26.578 0 .027.024.054.034.084l.09.241.023.074c0 .034.023.07.037.104.013.034.02.064.026.094l.02.06.024.085.03.107c.016.057.03.114.043.174.01.03.017.06.023.091 0 .04.02.084.027.128v1.093a.476.476 0 0 0 0 .068v.224c0 .037.183.131.18.205z"/>
        <path fill="#000" d="M101.999 145.186v.493a.036.036 0 0 1 0 .019v.194l-.03.217c0 .045 0 .094-.024.14V146.359a.139.139 0 0 1 0 .036.516.516 0 0 1-.017.076.561.561 0 0 1-.016.073v.055c0 .018 0 .064-.024.094l-.02.064-.02.08-.03.094v.024c0 .01-.02.064-.034.097-.03.098-.067.198-.103.305l-.037.091a.252.252 0 0 1-.024.052c.144-.533.212-1.08.205-1.629a6.047 6.047 0 0 0-.251-1.69c-.484-1.623-1.616-3.023-3.175-3.927a8.04 8.04 0 0 0-7.517-.216c-.243.12-.477.253-.703.398a7.051 7.051 0 0 0-1.051.743 7.354 7.354 0 0 0-.904-.7c-.245-.16-.5-.306-.764-.438-2.614-1.305-5.834-1.054-8.166.636a7.71 7.71 0 0 0-.616.502 6.831 6.831 0 0 0-1.216 1.456 6.11 6.11 0 0 0-.315.575 4.097 4.097 0 0 0-.147.326c0-.043.02-.085.033-.128l.02-.064v-.036l.03-.098c.027-.073.05-.146.078-.22l.037-.1c.056-.143.113-.283.18-.423l.03-.07.06-.125.111-.2v-.016l.054-.088.06-.1c.024-.043.05-.086.077-.125l.04-.061.02-.034c0-.024.03-.049.047-.073.017-.024.04-.055.057-.082l.134-.18c.017-.021.03-.042.047-.06l.06-.077.064-.079.08-.094.07-.082.027-.028.05-.058.084-.088.037-.037.064-.064.097-.076c.063-.064.13-.128.2-.188l.081-.073.124-.11.084-.067.1-.08.064-.051.067-.049c.043-.033.087-.067.134-.097a7.165 7.165 0 0 1 .402-.274l.07-.043a.519.519 0 0 1 .07-.042l.064-.04.1-.055.047-.027.074-.04c.093-.052.19-.1.288-.146l.057-.027.09-.043.074-.033.077-.03.073-.034.074-.03.077-.031.305-.113.077-.024.08-.028.074-.021.06-.018.14-.043.074-.021.057-.015h.057l.104-.028.134-.03a9.16 9.16 0 0 1 .418-.082h.382c.134-.016.268-.028.405-.037H84.717l.336.027.147.019h.311c.141.021.278.048.419.079l.167.042h.047l.074.022.14.036.06.019c.105.027.205.06.306.094l.07.024.09.03.138.053.154.06.063.025.084.036.074.03.073.034.094.043.074.036.17.086.07.036c.084.046.168.088.249.137l.067.04.07.042.07.043.047.027.291.195.067.049.134.097.064.05.067.05.097.08.084.067.124.11.083.073.08-.073.124-.11.084-.067.097-.08.067-.05.064-.05.134-.097.067-.049c.114-.079.227-.155.335-.225l.07-.043.07-.042.067-.04.097-.055.05-.027.07-.04.292-.146.057-.027.09-.043.074-.033.074-.03.077-.034.073-.03.077-.031.305-.113.077-.024.08-.028.074-.02.06-.02.141-.042.074-.021.057-.015h.057l.1-.028.137-.03a9.16 9.16 0 0 1 .419-.082H93.64l.405-.037H95.158c.11 0 .218.015.335.028l.144.018h.315c.14.021.278.049.415.079l.17.043h.047l.074.02.14.037.061.019c.1.027.204.06.305.094l.067.024.09.03.137.053.158.06.06.025.084.036.077.03.073.034.094.043.074.037c.057.027.114.054.167.085l.074.036.248.137.067.04.07.043.067.042.043.028c.1.064.198.127.292.194l.07.05.13.097.068.048.063.052.087.067.084.07.047.043.08.07.037.033.044.04.08.073.124.119.07.067.114.118.12.131c.138.156.268.305.389.475l.05.067.05.073.044.064.074.107.063.1.04.061.03.049c0 .015.017.033.027.049l.044.073a7.766 7.766 0 0 1 .305.597c0 .024.023.048.033.075l.09.22.024.067c0 .03.023.064.037.094.013.03.02.058.027.085l.02.055.023.076.03.098c.017.051.03.103.044.158.01.027.017.054.023.082 0 .037.02.076.027.116v.992a.39.39 0 0 0 0 .061V145c0 .034.184.12.18.186z" opacity=".1"/>
        <path fill="#FF6584" d="M128.999 111.607v.083a.195.195 0 0 1 0 .043v.348a.512.512 0 0 1 0 .066l-.02.166-.019.106v.053a.123.123 0 0 1 0 .033v.182a.768.768 0 0 0 0 .073v.047c0 .02 0 .043-.016.063l-.02.072v.017l-.018.076a4.586 4.586 0 0 1-.074.226c-.026.072 0 .05-.023.072l-.016.04a5.277 5.277 0 0 1-.663 1.25l-.054.07c-.13.176-.272.343-.425.5l-7.091 7.307-7.092-7.307a5.275 5.275 0 0 1-1.45-4.093c0-.093.019-.186.032-.282.022-.164.052-.326.09-.487 0-.033.016-.066.022-.1a.283.283 0 0 0 0-.05v-.029l.02-.073c.016-.06.035-.116.051-.169l.026-.08c.038-.109.077-.215.122-.33l.029-.064c0-.033.026-.063.042-.096l.07-.152a.71.71 0 0 0 .036-.07l.042-.076a.918.918 0 0 1 .054-.096.214.214 0 0 1 .026-.047v-.026l.036-.053.038-.063.09-.14.032-.05.039-.055.045-.063.055-.07a.459.459 0 0 1 .048-.063l.016-.023.035-.043c.02-.023.036-.047.055-.066l.026-.03.042-.047.048-.056.135-.146.055-.056.086-.083a.42.42 0 0 0 .055-.053l.068-.06.045-.04.045-.036.09-.076.045-.037.231-.175.049-.033.048-.03.045-.03.064-.043.035-.02.049-.03c.064-.04.128-.08.196-.113l.038-.023.062-.033.051-.023.052-.027.048-.023.051-.023.052-.023.209-.086.051-.02.055-.02.048-.02h.042l.096-.033h.126l.07-.02.09-.023a2.95 2.95 0 0 1 .287-.063h.257c.09 0 .183-.023.274-.03h.762l.218.023H117.877a4.3 4.3 0 0 1 .283.06l.116.033h.081l.096.027h.039l.209.072.045.02.06.023.094.04.106.047.042.02.058.026.051.027.049.023.064.033.048.03.116.063.048.03.17.106.046.03.045.03.048.032.032.024c.068.046.132.096.196.149l.045.036.094.076.041.037.045.04.068.06.058.052c.026.03.054.057.084.083l.054.056.055-.056c.03-.026.057-.053.084-.083l.057-.053.068-.06.045-.04.042-.036.093-.076.045-.036c.074-.06.151-.12.232-.176l.048-.033.045-.03.045-.03.067-.043.033-.02.048-.03c.067-.04.132-.08.2-.112l.038-.023.061-.034.048-.023.052-.026.051-.023.052-.024.051-.023.206-.086.051-.02.055-.02.051-.02h.042l.094-.033h.128l.068-.02.093-.023a2.89 2.89 0 0 1 .283-.063h.261c.09 0 .18-.023.273-.03h.762l.219.024h.312l.28.06.115.032H125.445l.093.027h.042l.206.073.048.02.061.023.094.04.106.046.041.02.055.026.052.027.051.023.061.033.052.03.115.063.049.03c.058.033.112.07.167.106l.045.03.048.03.048.033.03.023c.067.046.134.096.199.149l.045.036c.031.024.061.05.09.077l.045.036.045.04.058.053.058.053.032.033.054.056.023.024.032.03.055.06.083.089.045.053.078.09.083.102c.094.116.18.238.264.364l.032.05c0 .02.023.04.036.056l.028.05c.017.027.036.053.052.083l.042.076c.01.015.018.03.025.047l.023.036.02.04.028.056.03.056c.063.13.121.266.176.401l.023.06a2.594 2.594 0 0 1 .077.219c0 .026 0 .05.025.073l.02.066a.318.318 0 0 0 0 .043c0 .02 0 .04.016.06l.02.073c0 .04.022.08.031.119.01.04 0 .043 0 .066l.02.09v.089a.17.17 0 0 0 0 .04v.298a.509.509 0 0 1 0 .07v.036a.512.512 0 0 0 0 .073.14.14 0 0 0 0 .037v.073a.242.242 0 0 1 0 .046.225.225 0 0 1 0 .046.66.66 0 0 1 0 .08.66.66 0 0 1 0 .08l.077.152z"/>
        <path fill="#000" d="M128.999 111.706v.084a.199.199 0 0 1 0 .044v.354a.523.523 0 0 1 0 .067l-.02.168-.02.108v.054a.125.125 0 0 1 0 .033v.185a.784.784 0 0 0 0 .074v.048c0 .02 0 .043-.015.063l-.02.075v.016l-.02.078a4.675 4.675 0 0 1-.074.229c-.026.074 0 .05-.023.074l-.016.04c.097-.417.143-.844.14-1.272a5.531 5.531 0 0 0-.173-1.323 5.312 5.312 0 0 0-1.3-2.355 5.19 5.19 0 0 0-1.143-.889 4.925 4.925 0 0 0-5.354.31 5.402 5.402 0 0 0-.65.579 5.252 5.252 0 0 0-.617-.546 4.44 4.44 0 0 0-.527-.336 4.925 4.925 0 0 0-5.591.498 5.457 5.457 0 0 0-.981 1.063c-.101.148-.192.3-.277.455a4.781 4.781 0 0 0-.318.706c0-.033.016-.067.023-.1a.29.29 0 0 0 0-.051v-.03l.02-.074c.015-.061.035-.118.051-.172l.026-.08c.04-.112.078-.22.124-.337l.029-.064c0-.034.026-.064.042-.098l.072-.155a.723.723 0 0 0 .035-.07l.043-.078a.934.934 0 0 1 .055-.097.217.217 0 0 1 .026-.047v-.027l.036-.054.039-.064.09-.142.033-.05.039-.057.045-.064.056-.07a.466.466 0 0 1 .048-.065l.017-.023.035-.044c.02-.024.036-.047.056-.067l.026-.03.042-.048.049-.057.136-.148.055-.057.088-.084a.426.426 0 0 0 .055-.054l.069-.06.045-.041.045-.037.091-.078.046-.037.234-.178.049-.034.048-.03.046-.03.065-.044.036-.02.048-.03c.065-.04.13-.081.198-.115l.04-.023.061-.034.052-.024.052-.027.049-.023.052-.024.052-.023.211-.088.052-.02.055-.02.049-.02h.042l.098-.034h.126l.072-.02.09-.024c.098-.027.193-.047.29-.064h.26c.09 0 .185-.023.276-.03h.77l.221.024h.315c.094.016.192.037.286.06l.117.034h.081l.098.027h.039l.211.074.045.02.062.023.094.04.108.048.042.02.058.027.052.027.05.024.064.033.049.03.117.064.048.03.173.108.045.03.046.031.048.034.033.023c.068.047.133.098.198.152l.046.037.094.077.042.037.045.04.069.061.058.054c.027.03.055.058.085.084l.055.057.055-.057c.03-.026.058-.054.085-.084l.058-.054.068-.06.046-.04.042-.038.094-.077.046-.037a4.36 4.36 0 0 1 .234-.179l.048-.033.046-.03.045-.03.069-.045.032-.02.049-.03c.068-.04.133-.08.201-.115l.04-.023.061-.034.049-.023.052-.027.052-.024.052-.023.052-.024.208-.087.052-.02.055-.02.052-.021h.042l.094-.034h.13l.068-.02.095-.023c.094-.027.191-.048.286-.064H123.375c.09 0 .182-.024.276-.03h.77l.22.023H124.958l.283.06.117.034H125.44l.094.027h.043l.208.074.048.02.062.024.094.04.107.047.043.02.055.027.052.027.052.024.062.034.052.03.117.064.048.03c.059.034.114.07.17.108l.045.03.048.03.05.034.028.024c.069.047.137.097.202.151l.045.037c.032.024.062.05.091.077l.046.038.045.04.059.054.058.054.033.033.055.057.023.024.032.03.055.06.085.092.045.054.078.09.085.105c.094.118.182.242.266.37l.033.05c0 .02.023.04.036.058l.029.05c.016.027.035.054.052.084l.042.078a.34.34 0 0 1 .026.047l.023.037.02.04.028.057.03.058c.065.13.123.269.178.407l.023.06a2.643 2.643 0 0 1 .078.223c0 .026 0 .05.026.074l.02.067a.324.324 0 0 0 0 .044c0 .02 0 .04.016.06l.02.074c0 .04.022.081.032.121.01.04 0 .044 0 .068l.02.09v.091a.174.174 0 0 0 0 .04v.304a.52.52 0 0 1 0 .07v.037a.523.523 0 0 0 0 .074.143.143 0 0 0 0 .037v.074a.248.248 0 0 1 0 .048.23.23 0 0 1 0 .047.673.673 0 0 1 0 .08.673.673 0 0 1 0 .081l.045.175z" opacity=".1"/>
        <path fill="#FF6584" d="M207.999 139.624v.083a.24.24 0 0 1 0 .046v.132a.83.83 0 0 0 0 .09v.125a.46.46 0 0 1 0 .066l-.02.165v.162a.102.102 0 0 1 0 .033v.03a.461.461 0 0 1 0 .056v.172a.281.281 0 0 0 0 .05v.06l-.019.072v.02a.63.63 0 0 0-.022.073c-.023.076-.046.152-.071.228a.604.604 0 0 0-.026.07l-.016.039a5.194 5.194 0 0 1-.665 1.246l-.051.07a5.182 5.182 0 0 1-.43.499l-7.11 7.289-7.096-7.29a4.753 4.753 0 0 1-.558-.677 4.736 4.736 0 0 1-.29-.473 5.268 5.268 0 0 1-.606-2.932c0-.092.01-.185.029-.278.022-.164.052-.327.09-.489 0-.033 0-.066.026-.099a.281.281 0 0 1 0-.05.098.098 0 0 1 0-.03l.019-.072c0-.056.035-.112.052-.169a.757.757 0 0 0 .025-.079l.123-.33.029-.067c0-.03.026-.063.042-.096.016-.033.048-.102.074-.152l.032-.07.042-.075c.02-.033.036-.066.055-.096a.333.333 0 0 1 .026-.046v-.027c0-.02.022-.04.035-.056l.04-.063.09-.139.032-.046.042-.06.041-.059.055-.073.049-.062v-.024l.035-.042.055-.067.026-.03.042-.049.048-.053c.045-.05.09-.099.139-.145a.447.447 0 0 1 .055-.056c.026-.03.054-.057.083-.083l.059-.053a.587.587 0 0 1 .064-.063l.045-.04.045-.036.09-.076.046-.036c.077-.06.155-.12.232-.172l.048-.033.049-.033.045-.03.068-.043.032-.02.048-.03.197-.112.039-.023.061-.03.052-.026.051-.023.052-.027.048-.023.052-.023.21-.086.051-.02.055-.02.048-.016.042-.017.097-.03h.126l.07-.02.09-.023c.098-.023.191-.046.288-.062h.258l.277-.03h.761l.223.023h.31c.095.016.19.037.283.063l.116.03h.081l.097.03h.042l.206.072h.045l.062.023.093.04.107.046.042.02.058.03.051.023.049.026.064.033.052.027.113.066.051.026.168.106.045.03.048.033.046.033.032.023.197.149.048.036.09.076.045.037.042.04.068.062.058.053.084.083c.02.017.038.036.055.056.02-.02.035-.04.055-.056l.087-.083a.42.42 0 0 1 .054-.053l.068-.063.045-.04.045-.036.09-.076.046-.036c.077-.06.155-.12.232-.172l.049-.033.048-.033.045-.03.065-.043.035-.02.048-.03.197-.112.039-.023.061-.03.052-.026.048-.023.052-.027.051-.023.052-.023.206-.086.052-.02.055-.02.051-.016.042-.017.097-.03h.126l.07-.02.091-.022c.094-.024.19-.047.284-.063h.261l.274-.03h.765l.219.023h.313c.093.017.19.037.284.063l.116.03h.08l.094.03h.042l.206.072h.049l.06.023.094.04.107.046.042.02.058.03.048.023.052.026.064.034.049.026.116.066.048.027c.058.033.113.069.168.105l.045.03.048.033.049.033.032.023.197.15.045.035.09.076.045.037.045.04.059.052.058.053c.01.012.02.023.032.033 0 .02.035.037.055.057l.025.023.03.033.054.056.084.09.045.052c.028.03.054.06.078.093l.084.099c.093.119.18.238.264.363 0 .017.023.034.032.053l.036.053.029.05c.02.026.035.056.051.082l.042.077.03.046.019.04.019.036.029.056.03.056a4.862 4.862 0 0 1 .199.46c.023.056.042.112.061.168l.02.053a.579.579 0 0 0 .022.07l.02.066v.103l.019.072c0 .04.023.083.032.122.01.04 0 .04 0 .063l.02.09v.713a.193.193 0 0 0 0 .043v.047a.654.654 0 0 1 0 .079.654.654 0 0 1 0 .08l.06.201z"/>
        <path fill="#000" d="M207.999 138.7v.084a.246.246 0 0 1 0 .047v.134a.85.85 0 0 0 0 .09v.128a.472.472 0 0 1 0 .067l-.02.168v.165a.104.104 0 0 1 0 .034v.03a.471.471 0 0 1 0 .057v.175a.288.288 0 0 0 0 .05v.06l-.02.074v.02a6.307 6.307 0 0 1-.094.306.617.617 0 0 0-.026.07l-.016.041c.097-.416.144-.842.14-1.27-.017-1.773-.902-3.416-2.353-4.366a4.947 4.947 0 0 0-5.64.141c-.231.173-.449.366-.65.578a5.029 5.029 0 0 0-.618-.548 5.882 5.882 0 0 0-.524-.336 4.953 4.953 0 0 0-6.023.89 4.92 4.92 0 0 0-.836 1.129 5.18 5.18 0 0 0-.319.705c0-.033 0-.067.026-.1a.288.288 0 0 1 0-.05.1.1 0 0 1 0-.031l.02-.074c0-.057.035-.114.052-.171a.772.772 0 0 0 .026-.081c.039-.11.081-.218.123-.336l.03-.067c0-.03.026-.064.042-.097.016-.034.049-.105.075-.155l.032-.07.043-.078c.02-.033.035-.067.055-.097a.339.339 0 0 1 .026-.047v-.027c0-.02.023-.04.036-.057l.039-.064.09-.141.033-.047.043-.06.042-.061.055-.074.05-.064v-.023l.035-.044.055-.067.026-.03.043-.05.048-.054c.046-.05.092-.101.14-.148a.453.453 0 0 1 .056-.057c.026-.03.054-.058.084-.084l.059-.054a.594.594 0 0 1 .065-.064l.045-.04.046-.037.091-.077.046-.037c.078-.06.156-.121.234-.175l.049-.034.049-.033.045-.03.068-.044.033-.02.049-.03.198-.115.04-.023.061-.03.052-.027.052-.024.052-.027.05-.023.051-.024.212-.087.052-.02.055-.02.049-.017.042-.017.098-.03h.127l.071-.02.091-.024c.098-.023.192-.047.29-.064h.26l.28-.03h.768l.225.024h.312c.097.016.192.037.286.063l.118.03h.081l.098.03h.042l.208.075h.046l.061.023.095.04.107.048.043.02.058.03.052.024.049.026.065.034.052.027.114.067.052.027.17.107.045.03.049.034.045.034.033.023.198.152.049.036.091.078.046.037.042.04.068.064.059.054.085.084c.02.017.038.036.055.057.02-.02.036-.04.055-.057l.088-.084a.426.426 0 0 1 .055-.054l.069-.064.045-.04.046-.037.09-.078.046-.036c.079-.06.157-.121.235-.175l.049-.034.048-.033.046-.03.065-.044.036-.02.049-.03.198-.115.04-.023.061-.03.052-.027.049-.024.052-.027.052-.023.052-.024.208-.087.052-.02.056-.02.052-.017.042-.017.098-.03h.127l.071-.02.091-.024c.095-.023.192-.047.287-.064h.263l.277-.03h.771l.221.024h.316c.094.016.192.036.286.063l.117.03H204.45l.094.03h.042l.209.075h.048l.062.023.095.04.107.048.042.02.059.03.049.023.052.027.065.034.049.027.117.067.049.027c.058.033.113.07.169.107l.045.03.05.034.048.034.033.023.198.151.046.037.09.078.046.037.046.04.058.054.059.053c.01.012.02.024.032.034 0 .02.036.037.056.057l.026.024.03.033.054.057.085.09.046.055c.027.03.053.06.078.094l.084.1c.095.121.183.242.267.37 0 .017.023.034.033.054l.035.053.03.05c.02.028.036.058.052.085l.042.077.03.047.019.04.02.037.029.057.029.058a4.958 4.958 0 0 1 .264.638l.02.053a.59.59 0 0 0 .022.071l.02.067v.104l.019.074c0 .04.023.084.032.124.01.04 0 .04 0 .064l.02.091V138.25a.198.198 0 0 0 0 .043v.047a.67.67 0 0 1 0 .08.67.67 0 0 1 0 .081l.049.199z" opacity=".1"/>
        <path fill="url(#a)" d="M185 140.804a37.94 37.94 0 0 0-3.346-3.03c.142-1.774.471-6.022.5-6.84.034-1.036-1.484-2.36-4.731-3.582-3.247-1.221-2.305 4.476-2.259 4.99.046.513.754 2.065 1.976 2.575.438.182.556.41.527.626l-.102-.017c-2.671-.33-3.876-.953-3.876-.953s-.988 2.98-.988 4.41v.225a1.71 1.71 0 0 0 .079.768h.227c.028.387-.034.774-.18 1.132a8.774 8.774 0 0 1-.33.815 22.903 22.903 0 0 1-.155-2.453c.053-.795-1.205-4.023-1.205-4.023s-.524-.212-1.624-1.483c-1.1-1.272-1.975-1.801-2.723-2.066-.747-.265-3.457-3.81-4.574-4.635-.889-.662-1.248-.272-1.356-.086l-.066.046c-.517-.722-.886-1.41-.886-1.9 0-.361.036-1.103.102-2.043.388.3.749.632 1.08.993.757.844 1.317 1.85 2.144 2.629a3.482 3.482 0 0 0 2.364 1.04c.292.012.583-.034.856-.136 1.1-.427 1.808-1.775 2.964-1.828.909.047 1.577.89 2.321 1.447.547.429 1.22.662 1.914.662a2.17 2.17 0 0 0 .806-.129c.857-.331 1.443-1.38 1.05-2.212-.605-1.284-2.666-.993-3.546-2.112a.877.877 0 0 1-.204-.82.57.57 0 0 1 .534-.392c.416.047.805.233 1.103.53.428.437.988.993 1.518.934.149.018.3-.011.431-.083l.053-1.182a4.083 4.083 0 0 0 1.83.523c.12.005.238 0 .356-.016.695-.093 1.357-.742 1.278-1.417.307.255.698.387 1.097.367.178.01.356-.013.526-.066a1.6 1.6 0 0 0 1.067-1.377c.053-.735-.398-1.398-.833-1.987l-2.153-2.96a1.202 1.202 0 0 1-.33-.854c.074-.245.2-.47.37-.662.585-.86.299-2.122-.449-2.847-.747-.725-1.837-.977-2.871-.957-.78.017-1.647.149-2.276-.298-.497-.331-.73-.967-.889-1.56-.457-1.74-.484-3.568-.803-5.34-.32-1.77-1.008-3.592-2.437-4.671a2.25 2.25 0 0 0-1.13-.497c-.35.006-.7.035-1.046.086-1.186.067-2.243-.755-2.99-1.688-.748-.934-1.318-2.02-2.177-2.837-1.268-1.282-3.365-1.656-5.051-1.176-.771.215-1.383.844-2.18.878-1.17.053-2.437-.216-3.603-.332-1.096-.099-2.216-.195-3.293.073a3.505 3.505 0 0 0-2.305 1.719l-.28-2.387s-.58-4.503-.84-4.87c-.187-.269-.105-.643.034-1.063l.052.05c.04-.12.083-.242.125-.365a.872.872 0 0 0 0-.278c.102-.904-1.53-6.658-1.53-6.658h-1.47c0-.07-.023-.142-.036-.212-.428-2.34-1.149-5.999-1.646-6.88-.33-.605-.366-1.47-.297-2.224.088-.873.11-1.75.07-2.626a7.226 7.226 0 0 1 .059-1.265 1.779 1.779 0 0 0-.702-1.655c-1.926-1.437-6.608-4.708-9.348-4.792-3.51-.105 1.1 6.09 1.047 6.673-.053.582 3.51 1.112 3.51 1.112s.211 1.798.422 2.804c.145.699.388 5.88.527 8.989-.86-.106-2.361-.89-2.361-.89s-4.087-1.11-4.456 0c-.369 1.108 4.98 6.459 4.98 6.459s1.886 5.029 1.316 6.621c-.57 1.593-.158 9.105-.158 9.105s.053 8.939.445 11.223c.392 2.285-.708 3.546-.708 3.546s-.471 5.612 0 6.142c.481.66.913 1.356 1.29 2.082l.139.252c-1.548 1.9-3.085 3.718-3.892 3.973-1.571.476-12.31 4.966-12.31 4.966s-3.506 3.37-4.036 3.37c-.53 0 3.194 3.602 3.194 3.602s3.352 2.698 3.72 3.122c.37.424 9.55 5.453 9.55 5.453s1.574.477 1.73.954c.154.476 2.251 1.797 2.251 1.797s1.607 1.868 2.029 3.06c0 .086 0 .158.023.228.02.331.043.483.063.404.28.775 2.166 2.751 1.257 4.161-.421.663 0 1.851.814 2.811-.22 1.186-.527 2.536-.856 2.98-.63.848-.35 2.046-.988 2.188-.64.143-.84 3.248-.84 3.248l-.543 6.844s-.142 1.41-.91 1.764c-.766.354 0 2.258 0 2.258s-.822 1.622-.328 2.54c.493.917-.988 5.154-.988 5.154s-.63 8.188 0 9.317a9.309 9.309 0 0 1 .988 3.599c0 .705.349 13.905.349 13.905s-.84 5.363-1.12 6.35c-.28.987.77 3.178.072 4.304-.698 1.126-.56 3.668-.56 3.668s-1.047 9.952-.418 13.624c.63 3.672-.2 4.446-.2 4.446.43.246.885.448 1.356.603.017.14.033.288.05.44.329 3.08.813 8.383.372 9.602-.441 1.218-.567 3.516-.61 4.82v.215l-1.221 1.987s-.244 1.751-.56 2.033c-.316.28-2.94 5.072-3.293 5.687l-.036.067s-2.654 4.906 3.912 5.045c6.566.14 5.726-3.244 5.726-3.244s.02-.662.083-1.474c.079-.993.224-2.201.477-2.516.455-.563 1.782-3.211 1.782-3.211v-3.887h-.422c0-.066 0-.14.023-.212.056-.809.178-1.612.366-2.4.207-.494-.455-3.46-.455-3.46s.145-5.704.794-9.31l.089-.463c.488-.214.96-.461 1.412-.742 0 0 0-7.198.84-8.469.84-1.271.662-4.87.662-4.87s.207-3.175.836-3.81c.63-.636.481-3.46.481-3.46s.557-1.835 1.186-3.311c.629-1.477.988-5.645.988-5.645a7.178 7.178 0 0 1 .987-2.05c.702-.993 0-3.175 0-3.175s-.767-1.41-.276-2.824c.49-1.413 3.21-12.845 3.21-12.845l1.05-4.093 1.535 5.222s-.207 3.74 0 4.8c.208 1.06 1.676 3.31 1.676 3.31v11.082s.142 7.482.702 8.68c.56 1.2.836 5.65.836 5.65s1.887 13.057.698 14.96c.608.417 1.254.773 1.93 1.063v7.691s-1.37 4.655-.902 7.823c0 .063.02.126.03.19-.126.092-.264.171-.35.138l.22 5.297s.06 2.94-.5 4.487a6.414 6.414 0 0 0-.329 1.681c-.122 2.096.682 4.967 5.269 4.669 6.108-.391 5.166-4.304 5.166-4.304s0-.153-.023-.42a16.023 16.023 0 0 0-1.514-5.755c-1.466-2.894-1.255-6.496-1.255-6.496a2.253 2.253 0 0 1-.372.1c0-.07 0-.143.016-.216.08-.993.201-2.28.33-2.883.207-1.06 0-3.526 0-3.526l.787-7.73.042-.431a6.296 6.296 0 0 0 1.084-.662 7.96 7.96 0 0 1-.405-2.152c-.045-.49.1-.977.405-1.361.909-.917 1.534-12.422 1.534-12.422s.494-4.05.498-5.417v-.245c-.056-.824-.491-4.052-.484-5.936a3.75 3.75 0 0 1 .135-1.178c.418-1.06.987-20.964.987-20.964l.698-8.82v-7.244c.001-3.467-.418-6.921-1.248-10.287 1.904.994 5.167 3.252 5.763 2.649.734-.742 1.1-13.448.89-14.716 0-.07-.027-.16-.05-.259-.05-.231-.122-.543-.211-.903l.29-.507c1.432-2.493 3.622-6.453 3.797-7.615.197-1.324.457-4.764.951-6.27.04-.121.087-.24.142-.355.128-.261.267-.403.425-.364.892.212 1.468.9 1.94.636a.23.23 0 0 0 .062-.053.791.791 0 0 0 .118-.169 1.66 1.66 0 0 0 .109-.242c.033-.086.062-.182.092-.284v-.03c0-.043.023-.086.033-.13a.216.216 0 0 0 0-.042c0-.037.017-.076.026-.113l.02-.083v-.043c.082-.374.145-.761.185-1.033 0-.099.023-.182.032-.245v-.132l.04-.023z"/>
        <path fill="url(#b)" d="M138.03 154.46c.03-.325.005-.657-.072-.96.023.772.05 1.126.072.96z"/>
        <path fill="#FBBEBE" d="M178.063 136.504s1.218-.755.029-1.2c-1.19-.444-1.889-1.814-1.934-2.265-.045-.45-.967-5.46 2.21-4.39 3.178 1.072 4.664 2.237 4.631 3.15-.032.913-.547 6.701-.547 6.701l-4.39-1.996z"/>
        <path fill="#FF9797" d="M186 140.75s0 .154-.05.381c-.097.668-.333 2.043-.693 2.24-.476.267-1.058-.424-1.96-.638-.16-.036-.3.104-.43.367a3.104 3.104 0 0 0-.144.354c-.5 1.515-.762 4.966-.962 6.294-.18 1.172-2.39 5.146-3.84 7.646-.216.377-.419.721-.592 1.001-.4.668-.666 1.105-.666 1.105L173 152.618V142.47a9.02 9.02 0 0 0 .666-1.405c.149-.36.212-.748.183-1.135a.581.581 0 0 0-.156-.334.525.525 0 0 1-.103-.19 1.104 1.104 0 0 1-.047-.26v-.22c0-1.432.999-4.426.999-4.426s1.219.637 3.92.954c2.7.318 7.538 5.297 7.538 5.297z"/>
        <path fill="#000" d="M186 141.318c-.101.627-.349 1.919-.726 2.104-.499.25-1.11-.398-2.055-.6-.167-.034-.314.098-.45.346a2.75 2.75 0 0 0-.15.332c-1.908-.834-5.233-2.345-5.446-2.771-.213-.426-2.53-.524-3.838-.542h-.237a1.438 1.438 0 0 1-.084-.725c.098-1.4 1.047-3.962 1.047-3.962s1.277.599 4.106.897c2.67.275 7.303 4.438 7.833 4.921z" opacity=".1"/>
        <path fill="#FF9797" d="M186 140.806s-.278 2.369-.776 2.634c-.498.266-1.107-.426-2.05-.638-.167-.04-.314.1-.45.366-1.875-.88-5.377-2.573-5.568-3.04-.192-.467-2.826-.575-4.066-.588-.456-.921.961-5.04.961-5.04s1.274.642 4.097.964c2.823.323 7.852 5.342 7.852 5.342z"/>
        <path fill="#FF9797" d="M177.017 174.4c-.77.742-5.76-2.86-7.128-3.072-1.368-.213-6.342-20.328-6.342-20.328l.748-11.336-2.916-10.43-.379-1.364s.29-.832 1.461 0c1.172.832 4.02 4.38 4.788 4.642.768.263 1.699.8 2.85 2.07 1.151 1.272 1.7 1.481 1.7 1.481s1.316 3.232 1.26 4.024c-.054.792.442 6.197 1.035 6.673s1.589 4.819 1.589 4.819 1.813 6.1 2.195 7.84c.025.103.043.19.052.26.238 1.272-.145 13.978-.913 14.72z"/>
        <path fill="#000" d="M168.91 149.5l3.232.935s.615 6.038.843 6.357c.227.32 1.015 12.708 1.015 12.708l-5.09-2.49-1.91-6.656v-7.366l1.91-3.488z" opacity=".1"/>
        <path fill="#FBBEBE" d="M141.917 246.733c-.2.638-.35 1.294-.447 1.96-.593 3.544-.714 9.152-.714 9.152s.592 2.913.409 3.4c-.17.774-.28 1.562-.33 2.356-.05.51-.08.899-.08.899l-5.755-.415s0-.376.018-.951c.038-1.281.16-3.537.548-4.733.388-1.196-.035-6.42-.335-9.446a135.261 135.261 0 0 0-.231-2.203s7.887-2.804 6.917-.02zM167.837 248.471l-.708 7.669s.186 2.45 0 3.5c-.107.597-.217 1.871-.297 2.862-.053.749-.089 1.34-.089 1.34s-4.402 3.433-5.406.42a5.837 5.837 0 0 1-.25-1.13c-.42-3.146.813-7.765.813-7.765V245.5l6.1 1.11-.163 1.861z"/>
        <path fill="#000" d="M141.917 247.746a12.781 12.781 0 0 0-.448 1.981 7.98 7.98 0 0 1-6.237.261c-.128-1.32-.232-2.225-.232-2.225s7.888-2.83 6.917-.017zM168 246.442l-.197 1.573c-2.45.922-5.065.358-6.803-.28V245.5l7 .942z" opacity=".1"/>
        <path fill="#3F3D56" d="M140.818 159.5s-.567 4.149-1.207 4.994c-.64.845-.356 2.038-1.006 2.177-.651.14-.856 3.234-.856 3.234l-.543 6.82s-.144 1.405-.925 1.756c-.782.351 0 2.25 0 2.25s-.839 1.617-.336 2.532c.503.914-1.006 5.13-1.006 5.13s-.64 8.155 0 9.278a9.138 9.138 0 0 1 1.006 3.585c0 .703.356 13.849.356 13.849s-.856 5.345-1.14 6.329c-.286.984.784 3.161.073 4.288-.71 1.126-.57 3.645-.57 3.645s-1.1 9.925-.46 13.57c.641 3.645-.204 4.427-.204 4.427a10.06 10.06 0 0 0 10.02-.421s0-7.171.856-8.437c.855-1.266.714-4.848.714-4.848s.212-3.164.852-3.797.49-3.437.49-3.437.567-1.829 1.207-3.313c.64-1.485 1.006-5.634 1.006-5.634a7.057 7.057 0 0 1 1.006-2.041c.715-.994 0-3.161 0-3.161s-.781-1.409-.281-2.814 3.27-12.794 3.27-12.794l1.07-4.076 1.562 5.203s-.211 3.724 0 4.778c.211 1.054 1.707 3.314 1.707 3.314v11.038s.144 7.452.714 8.645c.57 1.193.852 5.634.852 5.634s1.922 13.006.711 14.911c0 0 5.48 3.864 9.82.703 0 0-.926-2.601 0-3.516.925-.914 1.563-12.373 1.563-12.373s.57-4.57.5-5.634c-.071-1.063-.782-6.044-.356-7.098.426-1.054 1.006-20.876 1.006-20.876l.711-8.785v-7.19a41.77 41.77 0 0 0-1.61-11.513c-1.204-4.192-2.87-9-4.272-9.301-.024 0-22.101 2.415-26.3-1.031z"/>
        <path fill="#000" d="M140 263.39c-.052.63-.082 1.11-.082 1.11l-5.918-.512s0-.465.018-1.175c2.776-3.26 5.543.577 5.543.577H140z" opacity=".1"/>
        <path fill="#3F3D56" d="M142 264.07v3.937s-1.369 2.673-1.851 3.224c-.264.314-.414 1.52-.496 2.526-.065.802-.086 1.477-.086 1.477s.873 3.405-5.95 3.262c-6.824-.144-4.066-5.07-4.066-5.07l.038-.063c.342-.621 3.103-5.446 3.422-5.714.318-.267.581-2.041.581-2.041l1.27-2.005c3.124-2.727 6.245.46 6.245.46l.893.008z"/>
        <path fill="#000" d="M138.926 275.313s.82 3.323-5.59 3.183c-6.409-.14-3.818-4.934-3.818-4.934l.035-.062c.177.978.932 1.992 3.34 1.862 3.262-.173 5.252-1.017 6.107-1.477-.055.77-.074 1.428-.074 1.428zM167 263.015c-.056.62-.093 1.11-.093 1.11s-4.597 2.846-5.647.348a4.002 4.002 0 0 1-.26-.936c.092-.06.179-.126.26-.197.752-.985 4.759-1.015 4.954-.547.12.268.501.268.786.222z" opacity=".1"/>
        <path fill="#3F3D56" d="M165.022 279.48c-4.383.284-5.137-2.496-5.009-4.521a6.306 6.306 0 0 1 .313-1.63c.532-1.502.476-4.357.476-4.357l-.21-5.138c.166.068.567-.342.567-.342.76-1.163 4.812-1.198 5.009-.646.197.552 1.13.178 1.13.178s-.2 3.494 1.193 6.3a15.843 15.843 0 0 1 1.462 5.993s.876 3.785-4.93 4.163z"/>
        <path fill="#000" d="M165.025 279.478c-4.385.309-5.14-2.714-5.012-4.915 0 0 1.137 2.166 5.187 1.647a10.536 10.536 0 0 0 4.73-1.71c.019.28.022.442.022.442s.883 4.125-4.927 4.536zM170.014 166.92c-.918-2.724-1.92-4.982-2.828-5.17l-.81.085c.845.472 1.773 2.57 2.62 5.084a54.484 54.484 0 0 1 2.785 17.348v5.546l-.679 8.806s-.544 19.865-.96 20.921c-.416 1.056.272 6.057.34 7.117.067 1.059-.477 5.645-.477 5.645s-.611 11.483-1.491 12.396c-.88.913 0 3.524 0 3.524a5.947 5.947 0 0 1-3.2 1.225 6.063 6.063 0 0 0 4.227-1.225s-.883-2.607 0-3.524c.883-.916 1.491-12.396 1.491-12.396s.544-4.58.477-5.645c-.067-1.066-.746-6.06-.34-7.117.407-1.056.96-20.92.96-20.92l.679-8.807v-5.546a54.483 54.483 0 0 0-2.794-17.348zM134.333 247.109s.84-.771.204-4.407c-.637-3.636.423-13.495.423-13.495s-.14-2.519.567-3.626c.706-1.108-.354-3.296-.074-4.266.28-.969 1.134-6.295 1.134-6.295s-.364-13.083-.364-13.786a9.07 9.07 0 0 0-1-3.563c-.636-1.12 0-9.23 0-9.23s1.484-4.196 1-5.102c-.483-.907.334-2.519.334-2.519s-.777-1.888 0-2.238c.776-.35.92-1.747.92-1.747l.563-6.784s.213-3.075.85-3.217c.637-.141.353-1.318 1-2.165.477-.63.917-3.112 1.103-4.312a4.42 4.42 0 0 1-1.173-.66s-.567 4.124-1.203 4.965c-.637.84-.354 2.027-1 2.166-.647.138-.847 3.217-.847 3.217l-.547 6.787s-.143 1.398-.92 1.747c-.776.35 0 2.238 0 2.238s-.833 1.609-.333 2.519c.5.91-1 5.102-1 5.102s-.637 8.112 0 9.23a9.07 9.07 0 0 1 1 3.563c0 .702.353 13.775.353 13.775s-.85 5.317-1.13 6.296c-.28.98.777 3.145.07 4.266-.706 1.12-.566 3.626-.566 3.626s-1.07 9.875-.434 13.501c.637 3.626-.203 4.407-.203 4.407a9.831 9.831 0 0 0 5.247 1.105 9.578 9.578 0 0 1-3.974-1.098z" opacity=".1"/>
        <path fill="#3F3D56" d="M161.946 93.876c.867.821 1.431 1.913 2.18 2.847.749.935 1.808 1.76 2.995 1.696a7.943 7.943 0 0 1 1.05-.09c.415.057.807.23 1.13.5 1.433 1.082 2.122 2.905 2.442 4.674.32 1.77.33 3.612.805 5.362.158.594.393 1.215.89 1.565.644.448 1.498.31 2.28.297 1.036-.02 2.128.237 2.877.962.749.724 1.036 2.003.448 2.857a1.744 1.744 0 0 0-.37.648c-.007.32.112.628.33.858l2.158 2.971c.436.594.888 1.262.835 2.003a1.566 1.566 0 0 1-1.068 1.379c-.6.197-1.257.007-1.664-.481.235.738-.485 1.502-1.243 1.602-.759.1-1.498-.243-2.187-.58l-.056 1.258c-.634.334-1.304-.334-1.808-.855-.505-.52-1.544-.82-1.785-.14a.889.889 0 0 0 .205.828c.88 1.112 2.945.828 3.552 2.117.393.834-.194 1.902-1.052 2.22-.858.317-1.844 0-2.58-.535-.735-.534-1.454-1.465-2.414-1.458-1.198 0-1.914 1.402-3.032 1.839-1.052.407-2.256-.123-3.078-.905-.821-.78-1.392-1.792-2.15-2.64-1.953-2.18-4.912-3.045-7.67-3.976s-5.678-2.2-7.103-4.764c-.435-.791-.712-1.669-1.253-2.393-.93-1.229-2.494-1.803-3.513-2.955a4.607 4.607 0 0 1-.69-4.877c.482-1.032 1.32-1.83 2.01-2.744a9.3 9.3 0 0 0 1.79-5.415c0-.734-.076-1.492.155-2.19.353-1.055 1.376-1.766 2.445-2.036s2.19-.174 3.299-.077c1.167.107 2.437.374 3.609.334.798-.037 1.411-.668 2.183-.881 1.676-.478 3.778-.11 5.048 1.175z"/>
        <g fill="#000" opacity=".1">
            <path d="M171.104 102.753c.328 1.756.328 3.564.803 5.287.095.427.272.831.522 1.19a4.704 4.704 0 0 1-.105-.35c-.456-1.726-.482-3.534-.8-5.29a9.438 9.438 0 0 0-1.053-3.037c.29.708.503 1.446.633 2.2zM178.366 113.647a1.695 1.695 0 0 0-.37.659c-.008.314.11.617.327.843.03.04.056.079.085.115a.516.516 0 0 1 0-.122c.077-.237.203-.455.371-.639.512-.754.351-1.811-.2-2.543a2.04 2.04 0 0 1-.213 1.687zM175.39 125.512c.04.784-.429 1.503-1.16 1.78-.856.309-1.834 0-2.565-.531-.732-.53-1.447-1.443-2.398-1.437-1.194 0-1.902 1.384-3.018 1.812-1.046.405-2.243-.122-3.06-.892-.817-.771-1.384-1.77-2.135-2.603-1.942-2.15-4.884-3.007-7.63-3.926-2.745-.92-5.628-2.165-7.048-4.685.128.28.259.557.407.824 1.417 2.53 4.316 3.782 7.058 4.7 2.742.92 5.688 1.773 7.63 3.924.754.837 1.311 1.835 2.135 2.606.823.77 2.014 1.294 3.06.892 1.115-.431 1.824-1.805 3.018-1.815.95 0 1.64.87 2.4 1.44.762.57 1.71.84 2.562.527.853-.313 1.44-1.367 1.05-2.19a1.541 1.541 0 0 0-.305-.426zM181.206 119.362c.073.217.105.446.092.675a1.55 1.55 0 0 1-1.062 1.362 1.54 1.54 0 0 1-1.657-.472c.233.725-.482 1.479-1.237 1.581-.754.102-1.489-.24-2.174-.573-.02.412-.036.827-.056 1.238-.63.33-1.312-.329-1.794-.84-.482-.51-1.535-.813-1.778-.138a.876.876 0 0 0 .203.814c.055.07.116.134.18.194a.608.608 0 0 1 .034-.171c.242-.66 1.276-.37 1.777.138.502.507 1.165 1.176 1.798.843 0-.415.036-.826.052-1.241.686.329 1.424.658 2.178.573.755-.086 1.47-.853 1.234-1.581a1.54 1.54 0 0 0 1.655.472 1.55 1.55 0 0 0 1.064-1.359 2.488 2.488 0 0 0-.509-1.515zM145.116 112.652c-.921-1.212-2.48-1.776-3.49-2.915a3.81 3.81 0 0 1-.383-.508c.18.496.451.953.8 1.348 1.01 1.136 2.568 1.703 3.49 2.915.13.171.247.352.35.54a7.447 7.447 0 0 0-.767-1.38z"/>
        </g>
        <path fill="#FBBEBE" d="M151.522 111.5s.792 8.627-2.813 11.24c-3.605 2.613 7.712 9.76 7.712 9.76l8.579-1.84s-4.182-3.817-4.182-5.443c0-1.627.72-10.75 1.875-11.81 1.155-1.06-11.171-1.907-11.171-1.907z"/>
        <path fill="#FF9797" d="M149 112.176l-1.95 4.169s-2.905 1.686-3.118 1.841c-.213.155-2.527 2.737-2.527 2.737l-5.7 3.577s-.139-.255-.338-.615a16.6 16.6 0 0 0-1.324-2.07c-.484-.525 0-6.098 0-6.098s1.128-1.263.726-3.524c-.402-2.262-.456-11.15-.456-11.15s-.43-7.472.162-9.049c.591-1.577-1.351-6.575-1.351-6.575s-5.48-5.329-5.106-6.43c.375-1.1 4.572 0 4.572 0s1.665.843 2.524.896c.52.03 3.3.043 5.433.046h2.523s1.774 6.047 1.561 6.678c-.044.122-.087.245-.128.364-.172.486-.304.919-.088 1.213.267.37.862 4.84.862 4.84l.591 4.84s.912 3.784.858 4.313c-.054.53-1.399 1.63-.807 2.628.59.999.81 4.05.81 4.05s.987 2.238 1.964 3.09c.093.088.196.165.307.229z"/>
        <circle cx="158" cy="108.5" r="10" fill="#000" opacity=".1"/>
        <circle cx="158" cy="108.5" r="10" fill="#FBBEBE"/>
        <path fill="#FFF" d="M168.938 149.08c-.938.99-1.152 10.573-.598 11.425.554.853-2.79 2.525-4.737 2.452-1.947-.073-7.275 1.543-7.275 1.543s-10.673-2.805-12.913-1.401c-2.239 1.404-5.406-2.524-4.468-3.925.938-1.401-1.02-3.364-1.298-4.134a6.006 6.006 0 0 1-.116-.991c-.261-3.53-.533-14.836-.533-14.836V126.23l9.807-6.731a47.388 47.388 0 0 1 4.55 2.56 22.223 22.223 0 0 1 2.942 2.205c2.671 2.455 9.3 5.048 9.3 5.048s7.282 8.482 8.217 9.325c.934.843-1.944 9.46-2.878 10.441z"/>
        <path fill="#000" d="M137 139.663V128.5s.56 20.333 1 26c-.49-3.53-1-14.837-1-14.837zM137.958 154.5c.077.304.102.636.072.962-.023.162-.05-.195-.072-.962z" opacity=".1"/>
        <path fill="#000" d="M151 126.74a8.656 8.656 0 0 0-1.521 2.178c-.525 1.17-12.479.214-12.479.214v-1.825l9.523-6.807a45.54 45.54 0 0 1 4.418 2.59c.059 1.998.059 3.65.059 3.65zM137.958 153.5c.077.303.102.635.072.96-.023.167-.05-.19-.072-.96zM148 112.733l-1.859 4.318s-2.77 1.747-2.974 1.908c-.203.16-2.41 2.836-2.41 2.836l-5.435 3.705s-.132-.264-.322-.637c1.479-1.908 2.99-3.938 3.866-4.65 1.743-1.415-.051-1.58 0-1.853.052-.274 3.847-1.744 4.872-2.778.834-.846 3.154-2.493 3.975-3.082.087.089.183.167.287.233z" opacity=".1"/>
        <path fill="#FF9797" d="M149.417 111.5s-3.413 2.173-4.49 3.18c-1.079 1.006-5.085 2.439-5.125 2.705-.041.267 1.833.423 0 1.803-1.834 1.38-6.308 7.845-7.928 8.331-1.62.487-12.67 5-12.67 5s-3.613 3.332-4.152 3.332c-.539 0 3.288 3.605 3.288 3.605s3.45 2.706 3.83 3.13c.38.423 9.822 5.442 9.822 5.442s1.62.476 1.78.953c.159.476 2.318 1.803 2.318 1.803s2.41 2.722 2.176 3.692c-.234.97-.647-27.66-.647-27.66s12.28.953 12.818-.213c.404-.8.931-1.532 1.563-2.173 0 0-.034-9.807-.722-10.534-.688-.726-1.847-1.496-1.86-2.396z"/>
        <path fill="#000" d="M120 136.31s3.215 3.385 4.718 3.958a4 4 0 0 1 2.09 2.085s1.77.982 2.737 1.145c.967.164 2.413 1.562 2.413 1.562s3.593.982 3.593 1.718c0 .737 1.449 1.722 1.449 1.722l-.36-20s-5.97.727-7.685 3.175c-1.716 2.449-8.955 4.635-8.955 4.635z" opacity=".1"/>
        <path fill="#000" d="M128 137.5c.271-.148 7.643-8.748 7.643-8.748L137 128.5s-3.499 4.746-3.445 5.136c.055.39-5.555 3.864-5.555 3.864z" opacity=".1"/>
        <path fill="#000" d="M131 139.5s1.623-4.05 2.073-4.733c.45-.684 2.875-5.267 2.875-5.267.07.387.07.784 0 1.171-.127.438-4.948 8.829-4.948 8.829zM144 108.5s-4.36 7.62-3.976 7.988c.383.368 3.976-7.988 3.976-7.988zM145 110.5s-3.278 5.065-2.981 5c.297-.067 2.981-5 2.981-5z" opacity=".1"/>
        <path fill="#FBBEBE" d="M143 82.022l-6.833.478s0-.217-.024-.592c-.096-2.212-.44-9.926-.624-10.788-.218-1.003-.436-2.818-.436-2.818s-3.688-.531-3.633-1.116c.054-.585-4.717-6.808-1.084-6.684 2.835.083 7.682 3.369 9.676 4.81a1.77 1.77 0 0 1 .726 1.65c-.06.421-.08.846-.062 1.27.043.88.019 1.761-.071 2.637-.072.759-.041 1.628.306 2.236.505.886 1.251 4.559 1.705 6.908.21 1.16.354 2.01.354 2.01z"/>
        <path fill="#000" d="M143.984 87.142l-.115.358c-1.315-1.416-9.555-2.32-9.555-2.32-.722-.912-.075-1.313.696-2.43.45-.657 3.15-1.59 5.318-2.25h2.26s1.587 6.015 1.396 6.642z" opacity=".1"/>
        <path fill="#000" d="M142 82.927l-6.976.573s0-.26-.024-.709c1.096-.74 3.563-1.63 5.619-2.291h1.009c.226 1.41.372 2.427.372 2.427z" opacity=".1"/>
        <path fill="#FF9797" d="M143.984 87.139c-.04.121-.078.243-.115.361-1.315-1.418-9.555-2.321-9.555-2.321-.722-.913-.075-1.314.696-2.427.45-.656 3.15-1.592 5.318-2.252h2.26s1.587 6.012 1.396 6.639z"/>
        <path fill="#000" d="M150.5 138.5s-1.125 14.287 0 14.978c1.125.69 0-14.978 0-14.978zM155 144.5s-.265 15.84 0 15.999c.265.158 0-15.999 0-15.999zM162 147.5s.957 9.614 1.827 9.99c.87.376-1.827-9.99-1.827-9.99zM177 159.5a2.402 2.402 0 0 1-.885-.323c-.936-.566-1.988-6.633-3.365-7.454-1.377-.82-6.349-8.895-6.349-8.895s-1.932-3.231-2.706-4.061c-.774-.83-.385-4.524-.385-4.524s-2.058-2.206-2.928-4.061a3.487 3.487 0 0 1-.382-1.322s.295-.81 1.471 0c1.176.811 4.045 4.252 4.819 4.508.774.255 1.71.772 2.873 2.006 1.162 1.234 1.71 1.441 1.71 1.441s1.325 3.134 1.27 3.906c-.056.773.44 6.013 1.04 6.479.6.465 1.6 4.675 1.6 4.675s1.832 5.935 2.217 7.625zM172.972 140.958v-.458c.037.328.056.663.056 1a4.547 4.547 0 0 1-.056-.542z" opacity=".1"/>
        <path fill="#000" d="M177 157.519c-.22.37-.428.706-.605.981-.893-.886-1.898-6.667-3.206-7.472-.46-.37-.86-.803-1.189-1.285v-6.866c.267-.44.495-.9.68-1.377.159 1.857.526 4.61.947 4.944.594.468 1.566 4.735 1.566 4.735s1.162 3.937 1.807 6.34z" opacity=".1"/>
        <path fill="#FF9797" d="M178 158.5a2.271 2.271 0 0 1-.885-.323c-.94-.566-1.988-6.63-3.368-7.454-1.381-.824-6.346-8.892-6.346-8.892s-1.932-3.232-2.706-4.062c-.774-.83-.385-4.524-.385-4.524s-2.058-2.21-2.928-4.061a3.518 3.518 0 0 1-.382-1.325s.291-.808 1.471 0c1.18.808 4.045 4.252 4.819 4.507.774.256 1.71.776 2.87 2.01 1.158 1.235 1.71 1.438 1.71 1.438s1.325 3.138 1.27 3.907c-.056.769.443 6.016 1.04 6.478.597.462 1.6 4.679 1.6 4.679s1.835 5.932 2.22 7.622z"/>
        <circle cx="167.5" cy="139" r="1" fill="#3F3D56"/>
        <circle cx="171.5" cy="146" r="1" fill="#3F3D56"/>
        <path fill="#000" d="M177 143.494s-3.479-1.602-2.944-.738c.534.863 2.944.738 2.944.738zM177 146.464s-3.67-1.61-2.892-.67c.78.94 2.892.67 2.892.67zM176 148.5s-2.519-1.403-1.903-.885c.616.517 1.903.885 1.903.885zM178 149.5s-1.535 4.68-.801 4.987c.734.307.801-4.987.801-4.987zM145 228.5s-5.25 5.066-3.721 5c1.529-.068 3.721-5 3.721-5zM136 235.5c.301 0 6.317-.633 4.736-.95-1.581-.316-4.736.95-4.736.95zM165 228.5s5.109.209 4.998.842c-.11.633-4.998-.842-4.998-.842zM163 230.5s3.203 2.702 3.924 1.825c.721-.878-3.924-1.825-3.924-1.825z" opacity=".1"/>
        <path fill="#FBBEBE" d="M146.893 192.527a1.63 1.63 0 0 1-.232.52.55.55 0 0 1-.163.156c-.75.478-2.693 1.37-2.993 1.292-.137-.032-.673-.18-1.262-.323-.687-.184-1.449-.381-1.734-.417-.286-.035-.452-.452-.494-.86-.042-.407 0-.723.187-.785a.408.408 0 0 0 .159-.213c.039-.094.072-.19.098-.288l.028-.096c.1-.375.18-.85.237-1.241.031-.21.053-.398.07-.524v-.174l.494-.023h.469c1.269-.048 3.448-.1 4.276.039.353.064.624.388.78.82.1.302.16.613.176.928.03.399-.001.8-.096 1.19zM170 194.27a.445.445 0 0 0 0 .063c0 .657-.046 1.153-.046 1.235 0 .254-6.73 2.055-8.41 1.925-1.105-.084-.284-.835.332-1.61.214-.24.38-.52.488-.82a.601.601 0 0 0 0-.33c-.033-.122-.064-.23-.085-.33-.159-.694-.08-.909.085-1.078.1-.124.175-.265.223-.415.05-.139.082-.283.095-.43.04-.33-.049-.662-.248-.93-.518-.684 1.944-1.05 1.944-1.05h4.676c.458 0 .702.642.824 1.471a.084.084 0 0 0 0 .028c.034.242.061.5.076.762.015.264.028.497.03.74.004.241.016.523.016.768zM149 216.584s-5.522 1.16-4.96.87c.211-.12.26-.52.24-.972a5.777 5.777 0 0 0-.064-.67c-.072-.512-.176-.942-.176-.942s2.894-.553 3.927-.307c.38.12.669.397.776.742a.98.98 0 0 1 .043.102c.133.381.205.777.214 1.177z"/>
        <path fill="#000" d="M152.979 104.461c.782-.277 1.47-.775 2.223-1.134.752-.358 1.628-.575 2.39-.245.389.192.743.452 1.048.769.672.62 1.343 1.242 1.975 1.906a11.79 11.79 0 0 0 2.058 1.92c1.763 1.127 4.002.874 6.044.537a3.6 3.6 0 0 0 1.192-.35c.896-.513 1.242-1.756 1.03-2.792-.21-1.035-.852-1.938-1.534-2.735a21.583 21.583 0 0 0-7.007-5.42c-2.828-1.359-6.192-2.036-9.013-.67a9.769 9.769 0 0 0-2.35 1.678c-.98.912-3.516 3.233-2.955 4.802.618 1.766 3.438 2.247 4.899 1.734z" opacity=".1"/>
        <path fill="#3F3D56" d="M152.979 104.46c.782-.273 1.47-.775 2.223-1.134.752-.358 1.628-.572 2.39-.245.387.195.741.455 1.048.769.672.621 1.343 1.243 1.975 1.906.61.725 1.3 1.37 2.058 1.921 1.763 1.127 4.002.874 6.044.537a3.519 3.519 0 0 0 1.192-.35c.896-.51 1.242-1.757 1.03-2.792-.21-1.036-.852-1.939-1.534-2.736a21.532 21.532 0 0 0-7.007-5.418c-2.828-1.359-6.192-2.036-9.013-.674a9.866 9.866 0 0 0-2.35 1.678c-.98.913-3.516 3.238-2.955 4.807.618 1.767 3.438 2.248 4.899 1.732z"/>
        <path fill="#000" d="M169.918 107.518a3.686 3.686 0 0 1-1.188.326c-2.04.326-4.276.544-6.041-.498a11.486 11.486 0 0 1-2.068-1.798c-.63-.619-1.305-1.192-1.973-1.768a3.902 3.902 0 0 0-1.047-.717c-.765-.302-1.641-.104-2.393.232-.752.335-1.437.794-2.219 1.052-1.46.475-4.279.029-4.91-1.603-.03-.079-.05-.16-.063-.244-.034.219-.013.443.063.651.631 1.629 3.45 2.078 4.91 1.603.782-.258 1.47-.72 2.219-1.052.748-.332 1.628-.534 2.393-.228.388.179.742.42 1.047.713.671.576 1.342 1.153 1.973 1.768.61.671 1.301 1.27 2.058 1.782 1.762 1.045 3.997.81 6.04.498a3.779 3.779 0 0 0 1.189-.326c.792-.417 1.151-1.354 1.084-2.234a2.176 2.176 0 0 1-1.074 1.843zM142 189.524a7.387 7.387 0 0 1-1 1.976 8.042 8.042 0 0 0 .9-2l.1.024z" opacity=".1"/>
        <path fill="#000" d="M146.485 193.206c-.75.477-2.688 1.367-2.987 1.29-.3-.078-2.464-.684-2.992-.752-.528-.067-.665-1.505-.306-1.64a.407.407 0 0 0 .158-.213 2.655 2.655 0 0 1-.126.287c-.408.806.352 1.505.352 1.505l3.104.735 2.924-1.463c.704-.887-.084-2.93-.486-3.262-.4-.332-5.197 0-5.197 0l-.106-.094v-.026l.493-.022h.468c1.267-.048 3.441-.1 4.268.039 1.18.196 1.18 3.139.433 3.616zM169.064 190.5h-4.675s-2.461.366-1.943 1.05c.518.683.116 1.579-.07 1.772-.186.194-.265.45 0 1.413.265.962-2.513 2.632-.833 2.759 1.68.127 8.408-1.67 8.408-1.924s.363-5.07-.887-5.07zm.63 4.979c0 .242-6.34 1.933-7.928 1.815-1.589-.118 1.034-1.691.784-2.598-.25-.908-.177-1.15 0-1.331.177-.182.555-1.029.067-1.673-.488-.644 1.83-.99 1.83-.99h4.406c1.183-.002.842 4.535.842 4.777zM147.964 214.563c-1.032-.246-3.925.307-3.925.307s.552 2.272 0 2.579c-.552.307 4.961-.868 4.961-.868s0-1.772-1.036-2.018zm-3.84 2.837c.532-.29 0-2.492 0-2.492s2.795-.533 3.792-.29c.996.243.996 1.957.996 1.957s-5.324 1.12-4.789.825z" opacity=".1"/>
        <path fill="#000" d="M171 194.393l-8 1.107 7.968-2c.016.292.029.587.032.893z" opacity=".1"/>
        <path fill="#3F3D56" d="M162 194.5l8.812-2 .188.87z"/>
        <path fill="#000" d="M171 194.5a.617.617 0 0 0 0 .079l-9 1.921a3.24 3.24 0 0 0 .54-1.017l8.46-.983z" opacity=".1"/>
        <path fill="#3F3D56" d="M161 195.622l10-1.122-9.734 2z"/>
        <path fill="#000" d="M170.997 192.5l-7.893.542c-.014.156-.048.31-.104.458l8-.968-.003-.032z" opacity=".1"/>
        <path fill="#3F3D56" d="M162.132 193.058L171 192.5l-9 1z"/>
        <path fill="#000" d="M147 191.344l-6 .156a8.56 8.56 0 0 0 .217-1l5.62.096c.093.243.148.494.163.748z" opacity=".1"/>
        <path fill="#3F3D56" d="M141 190.5l8 .135-.977.684-7.023.181z"/>
        <path fill="#000" d="M147 192.5a.886.886 0 0 1-.203.317l-3.853.683c-.6-.112-1.264-.232-1.513-.254-.25-.022-.394-.276-.431-.524l6-.222z" opacity=".1"/>
        <path fill="#3F3D56" d="M139 192.188l9-.688-8.253 3z"/>
        <path fill="#000" d="M149 214.586l-4.929.914c-.01-.19-.033-.38-.071-.569a690.81 690.81 0 0 1 4.954-.431.744.744 0 0 1 .046.086z" opacity=".1"/>
        <path fill="#3F3D56" d="M142 215.458c.187-.079 7-.958 7-.958l-7 2v-1.042z"/>
        <circle cx="246.5" cy="32" r="7.5" fill="#FF9797"/>
        <circle cx="278" cy="49.5" r="5" fill="#FF9797"/>
        <circle cx="246.5" cy="32" r="7.5" fill="#FFF" opacity=".4"/>
        <circle cx="278" cy="49.5" r="5" fill="#FFF" opacity=".4"/>
        <circle cx="43.5" cy="50" r="18.5" fill="#FF9797"/>
        <circle cx="43.5" cy="50" r="18.5" fill="#FFF" opacity=".4"/>
        <circle cx="276" cy="24.5" r="2" fill="#FF9797"/>
        <circle cx="276" cy="24.5" r="2" fill="#FFF" opacity=".4"/>
        <path fill="#FF6584" d="M54.999 29.876v.12a.39.39 0 0 0 0 .065v.358a.044.044 0 0 1 0 .02v.218l-.03.235c0 .053-.017.104-.027.154a.626.626 0 0 0 0 .077v.047a.17.17 0 0 1 0 .04c0 .027 0 .054-.016.08-.017.027 0 .054-.017.08-.016.028 0 .041 0 .061 0 .02-.016.07-.023.104a.54.54 0 0 1-.017.07.844.844 0 0 1-.023.088c0 .033-.016.07-.026.104a.081.081 0 0 0 0 .026c0 .037-.02.07-.034.108-.03.107-.066.217-.102.335 0 .033-.027.067-.037.1-.01.034-.016.04-.023.057a7.312 7.312 0 0 1-.969 1.79l-.076.1c-.193.253-.401.492-.624.718L42.499 45.5 32.146 35.044a7.432 7.432 0 0 1-.813-.975 7.209 7.209 0 0 1-.42-.67 7.471 7.471 0 0 1-.887-4.203c0-.134.027-.268.047-.402.033-.224.076-.458.129-.704 0-.047.023-.094.036-.137l.02-.074v-.04l.03-.108c.023-.08.05-.16.077-.24.026-.081.023-.075.036-.112.053-.157.113-.311.18-.465l.04-.09.059-.138.106-.221c0-.034.033-.067.053-.1a.901.901 0 0 1 .06-.112c.023-.046.05-.09.076-.137a.672.672 0 0 0 .037-.067.138.138 0 0 0 .023-.037l.05-.08c.02-.03.036-.06.056-.087l.133-.201.046-.068.06-.083.063-.087.08-.104.07-.087.026-.034.05-.06a1.16 1.16 0 0 1 .083-.097.492.492 0 0 1 .033-.044l.06-.07.072-.077c.064-.07.13-.141.2-.208l.08-.08.122-.118.083-.077.1-.087.063-.057.066-.054.13-.107.066-.054c.112-.087.225-.17.331-.248l.067-.047.07-.047.066-.043.096-.06.05-.03.07-.044c.096-.054.192-.11.288-.161l.057-.03.09-.047.072-.034.077-.036.073-.037.073-.034.076-.033c.1-.044.202-.084.302-.121l.076-.03.08-.03.073-.024.06-.02.139-.047.113-.077.056-.017h.057l.102-.03.133-.033a8.28 8.28 0 0 1 .415-.09h.378c.133 0 .266-.03.402-.041h1.111c.11 0 .216.02.332.03l.146.02h.309c.139.027.275.057.411.09l.17.044h.046l.073.02.14.04.059.02.302.105.066.026.09.034.14.057.152.067.06.027.086.04.073.037.073.033.093.05.073.038.169.093.07.04.245.151.067.044.07.047.066.047.046.03.289.214.066.054.13.107.066.054.063.057.1.087.082.077.123.117.08.08.083-.08c.04-.04.08-.08.123-.117a.91.91 0 0 1 .083-.077l.096-.087.066-.057.063-.054.133-.107.066-.054c.113-.087.226-.17.332-.248l.07-.047.07-.046.066-.044.096-.06.05-.03.07-.044c.096-.054.192-.11.288-.16l.057-.031.09-.047.072-.033.073-.037.076-.037.073-.034.077-.033c.1-.044.199-.084.302-.12l.073-.031.083-.03.073-.024.06-.02.139-.047.07-.02.06-.017h.056l.1-.03.132-.033c.14-.034.279-.064.418-.09H46.72c.133 0 .269-.03.401-.04H48.233l.332.03.143.02h.311c.136.026.276.056.412.09l.17.043h.046l.073.02.139.04.06.02.302.105.066.027.09.033.136.057.156.067.06.027.082.04.073.037.077.033.09.05.072.038.17.093.072.04.246.151.063.044.07.047.073.054.043.03a6.486 6.486 0 0 1 .488.375l.066.054.063.057.086.073.083.077.047.047.08.077.036.037.043.044.08.08.122.131c.024.024.046.05.067.077.04.04.076.084.116.127l.12.145c.135.17.261.335.38.522a.499.499 0 0 1 .07.057.63.63 0 0 1 .054.077l.043.07.073.118.063.11.036.068.03.053.03.054.043.08.04.08c.096.188.183.383.262.577l.033.084a7.006 7.006 0 0 1 .113.315c0 .037.023.07.033.104l.03.094.02.06c0 .03.017.057.023.084l.03.107c.017.057.03.117.043.174.014.057.017.06.024.09.006.031.016.085.026.128a.338.338 0 0 0 0 .057v.969a.454.454 0 0 1 0 .067.454.454 0 0 1 0 .067v.224l.143.238z"/>
        <path fill="#000" d="M56.999 29.19v.11a.318.318 0 0 0 0 .057V29.682a.036.036 0 0 1 0 .019v.197l-.03.213c0 .049-.017.094-.027.14a.51.51 0 0 0 0 .07v.042a.138.138 0 0 1 0 .037c0 .024 0 .048-.017.073-.017.024 0 .048-.017.073-.016.024 0 .036 0 .054 0 .019-.016.064-.023.095a.45.45 0 0 1-.017.063.705.705 0 0 1-.023.08c0 .03-.017.063-.027.094a.066.066 0 0 0 0 .024c0 .033-.02.064-.033.097-.03.097-.067.198-.104.304 0 .03-.027.06-.037.091-.01.03-.017.037-.023.052.606-2.27-.136-4.664-1.958-6.313a7.412 7.412 0 0 0-1.666-1.128c-2.497-1.276-5.581-1.12-7.907.398a6.97 6.97 0 0 0-.964.739 7.942 7.942 0 0 0-.903-.699c-.245-.16-.5-.306-.763-.438a8.05 8.05 0 0 0-7.11 0c-.37.185-.72.398-1.051.636a7.122 7.122 0 0 0-1.834 1.954c-.115.186-.22.378-.314.574a5.827 5.827 0 0 0-.151.326c0-.043.023-.085.037-.125l.02-.067v-.036l.03-.098c.023-.073.05-.145.077-.218.027-.073.023-.067.037-.1.053-.144.114-.283.18-.423l.04-.082.06-.125.108-.2c0-.03.033-.061.053-.092a.795.795 0 0 1 .06-.1c.024-.043.05-.082.078-.125a.594.594 0 0 0 .036-.06.124.124 0 0 0 .024-.034l.05-.073c.02-.027.037-.055.057-.079l.134-.182.047-.061.06-.076.063-.079.08-.094.071-.08.027-.03.05-.054c.026-.031.054-.06.084-.089a.455.455 0 0 1 .033-.039l.06-.064.074-.07a3.72 3.72 0 0 1 .2-.188l.081-.073.124-.107.083-.07.1-.078.064-.052.067-.049.13-.097.068-.049c.114-.079.227-.155.334-.225l.067-.042.07-.043.068-.04.097-.054.05-.027.07-.04c.097-.048.194-.1.291-.146l.057-.027.09-.043.074-.03.077-.033.074-.034.073-.03.077-.03a6.1 6.1 0 0 1 .305-.11l.077-.027.08-.028.073-.021.06-.018.141-.043.107-.049.057-.015h.057l.104-.027.134-.03c.137-.03.277-.058.418-.083h.381c.134 0 .268-.027.405-.036h1.121c.11 0 .218.018.335.027l.147.019h.311c.14.024.278.051.415.082l.17.04h.048l.073.017.14.037.061.018.305.094.066.025.09.03.141.052.154.06.06.025.087.036.074.034.074.03.093.046.074.033.17.085.071.037.248.137.066.039.07.043.068.042.047.028.29.194.068.049.13.097.067.049.064.051.1.08.084.07.123.106.08.072.084-.072c.04-.037.08-.073.124-.107a.887.887 0 0 1 .084-.07l.097-.079.067-.051.063-.05.134-.096.067-.049c.114-.079.228-.155.335-.225l.07-.042.07-.043.067-.04.097-.054.05-.028.07-.04c.098-.048.195-.1.292-.145l.057-.027.09-.043.074-.03.073-.034.077-.033.074-.03.077-.031c.1-.04.2-.076.304-.11l.074-.027.084-.027.073-.021.06-.019.14-.042.071-.018.06-.016h.057l.1-.027.135-.03c.14-.03.28-.058.421-.082H48.65c.134 0 .271-.028.405-.037h1.121l.335.027.144.019h.314a10 10 0 0 1 .415.082l.17.04h.048l.073.018.14.036.06.018.305.094.067.025.09.03.138.052.157.06.06.025.084.036.074.034.077.03.09.046.074.033.17.085.074.037.247.137.064.04.07.042.074.048.043.028a6.544 6.544 0 0 1 .358.243c.047.03.09.064.134.097l.067.049.064.051.087.067.083.07.047.043.08.07.037.033.044.04.08.073.124.118a.692.692 0 0 1 .067.07c.04.036.077.076.117.116l.12.13c.138.155.265.304.385.474a.496.496 0 0 1 .07.052c.02.022.038.045.054.07l.044.064.073.106.064.1.037.061.03.049.03.049.043.072.04.073c.098.17.185.347.265.523l.033.076c.03.073.06.146.087.22.01.02.02.043.027.066 0 .033.023.064.034.094l.03.085.02.055c0 .027.016.052.023.076l.03.097c.017.052.03.107.044.158.013.052.016.055.023.082l.027.116a.276.276 0 0 0 0 .052v.878a.37.37 0 0 1 0 .06.37.37 0 0 1 0 .062v.203l.144.216z" opacity=".1"/>
    </g>
</svg>
