<svg xmlns="http://www.w3.org/2000/svg" width="188" height="219" viewBox="0 0 188 219">
    <g fill="none" fill-rule="evenodd" opacity=".7">
        <path fill="#FBCFCF" d="M107.186.884c-2.182.831-4.047 2.407-5.65 4.07-1.883 1.954-3.547 4.157-5.222 6.29-3.217 4.096-6.987 8.779-12.188 10.306-5.201 1.528-10.902-.372-15.823-2.078-2.562-.888-5.152-1.842-7.792-2.467-2.248-.532-4.669-.85-6.954-.368a9.458 9.458 0 0 0-5.694 3.661c-1.387 1.88-2.105 4.214-2.554 6.48-.528 2.663-.737 5.416-.994 8.116-.493 5.186-1.134 11.164-4.683 15.262-3.55 4.098-9.373 5.584-14.434 6.81-2.636.638-5.33 1.237-7.889 2.139-2.178.767-4.386 1.81-6.048 3.451a9.436 9.436 0 0 0-1.975 2.82 9.44 9.44 0 0 0-.837 3.34c-.152 2.331.507 4.683 1.353 6.833.995 2.525 2.307 4.954 3.55 7.364 2.388 4.63 5.08 10.005 4.308 15.373-.77 5.367-4.867 9.767-8.462 13.535-1.872 1.962-3.815 3.923-5.48 6.066-1.419 1.824-2.712 3.895-3.223 6.175a9.455 9.455 0 0 0 .964 6.702c1.131 2.044 2.956 3.666 4.83 5.017 2.202 1.586 4.618 2.92 6.967 4.275 4.51 2.603 9.68 5.67 11.932 10.602 2.252 4.933 1.183 10.849.195 15.964-.514 2.664-1.089 5.364-1.332 8.067-.207 2.301-.176 4.743.626 6.937.4 1.096.98 2.087 1.744 2.969a9.44 9.44 0 0 0 2.689 2.15c2.056 1.105 4.469 1.484 6.774 1.606 2.71.144 5.464-.04 8.172-.171 5.201-.25 11.207-.466 15.767 2.466 4.56 2.931 6.859 8.486 8.792 13.323 1.007 2.52 1.982 5.101 3.239 7.508 1.07 2.047 2.415 4.085 4.276 5.497a9.454 9.454 0 0 0 6.494 1.908c2.329-.182 4.562-1.168 6.568-2.312 2.358-1.345 4.574-2.99 6.782-4.564 4.24-3.023 9.176-6.454 14.597-6.454 5.42 0 10.356 3.43 14.597 6.454 2.208 1.574 4.424 3.219 6.782 4.564 2.005 1.144 4.24 2.13 6.568 2.312a9.442 9.442 0 0 0 6.494-1.908c1.861-1.412 3.207-3.45 4.276-5.497 1.256-2.407 2.232-4.989 3.239-7.508 1.933-4.837 4.231-10.392 8.792-13.323 4.56-2.932 10.566-2.716 15.767-2.466 2.709.13 5.462.315 8.171.171 2.306-.122 4.719-.5 6.776-1.607a9.444 9.444 0 0 0 2.688-2.149 9.449 9.449 0 0 0 1.744-2.969c.802-2.194.833-4.636.626-6.936-.243-2.704-.818-5.404-1.332-8.068-.987-5.115-2.057-11.031.195-15.964s7.421-7.999 11.932-10.602c2.349-1.355 4.765-2.689 6.967-4.275 1.873-1.35 3.698-2.973 4.83-5.017a9.46 9.46 0 0 0 .964-6.702c-.511-2.28-1.805-4.351-3.223-6.175-1.665-2.143-3.608-4.104-5.48-6.066-3.595-3.768-7.691-8.168-8.463-13.535-.771-5.368 1.92-10.743 4.308-15.373 1.244-2.41 2.556-4.84 3.55-7.365.847-2.149 1.506-4.501 1.354-6.833a9.44 9.44 0 0 0-.837-3.339 9.439 9.439 0 0 0-1.975-2.82c-1.662-1.641-3.87-2.684-6.048-3.451-2.56-.902-5.253-1.501-7.889-2.14-5.06-1.225-10.884-2.71-14.434-6.81-3.55-4.097-4.19-10.075-4.683-15.26-.257-2.701-.466-5.454-.994-8.117-.45-2.266-1.167-4.6-2.555-6.48a9.45 9.45 0 0 0-5.694-3.66c-2.285-.483-4.706-.165-6.953.367-2.64.625-5.23 1.579-7.792 2.467-4.92 1.706-10.622 3.606-15.823 2.078-5.2-1.527-8.97-6.21-12.188-10.306-1.675-2.133-3.34-4.336-5.222-6.29-1.603-1.663-3.468-3.239-5.65-4.07a9.437 9.437 0 0 0-3.385-.626c-1.167 0-2.294.211-3.385.626z"/>
        <path fill="#FFF" d="M86.208 109.585c11.465 0 19.032-9.799 19.032-21.39v-.24c0-11.47-7.452-21.15-18.802-21.15s-19.032 9.68-19.032 21.39v.24c0 11.47 7.567 21.15 18.802 21.15zm-6.65 37.761c0 2.629 1.95 4.66 4.472 4.66 1.605 0 3.096-.716 4.013-2.15l52.623-74.925c.573-.837 1.032-1.912 1.032-3.107 0-2.63-2.064-4.66-4.586-4.66-1.605 0-3.096.716-3.898 2.15L80.59 144.24c-.574.837-1.032 1.912-1.032 3.107zm55.146 5.019c11.35 0 19.032-9.799 19.032-21.39v-.239c0-11.471-7.566-21.151-18.802-21.151-11.35 0-19.032 9.68-19.032 21.39v.239c0 11.472 7.567 21.15 18.802 21.15zm-48.266-51.981c-5.16 0-8.828-5.377-8.828-12.19v-.238c0-6.453 3.21-11.95 8.598-11.95 5.16 0 8.829 5.497 8.829 12.189v.24c0 6.452-3.211 11.949-8.6 11.949zm48.496 42.78c-5.16 0-8.828-5.377-8.828-12.189v-.239c0-6.453 3.21-11.95 8.598-11.95 5.16 0 8.829 5.497 8.829 12.19v.238c0 6.453-3.21 11.95-8.6 11.95z"/>
    </g>
</svg>
