<svg xmlns="http://www.w3.org/2000/svg" width="316" height="309" viewBox="0 0 316 309">
    <g fill="none" fill-rule="nonzero" opacity=".7" transform="translate(-44)">
        <path fill="#F2F2F2" d="M336.064 195.36a127.594 127.594 0 0 0-8.942-112.274l-203.85 28.225L318.625 70.6A127.156 127.156 0 0 0 217.679 20.9c-70.347 0-127.374 57.027-127.374 127.374 0 5.814.397 11.621 1.185 17.381l244.574 29.703zM98.819 194.135c18.41 47.685 64.682 81.514 118.86 81.514 50.84 0 94.715-29.787 115.144-72.858L98.82 194.135z"/>
        <path fill="#FF9797" d="M329.675 238.436c0 50.055-73.802 90.63-164.838 90.63-48.906 0-92.838-11.708-123.023-30.31C22.118 286.623 8.272 271.553 2.717 254.9A51.62 51.62 0 0 1 0 238.436c0-50.051 136.6-275.823 164.837-90.626 28.238 185.197 164.838 40.575 164.838 90.626z"/>
        <path fill="#000" d="M246.757 271.303c0 18.482-58.368 33.467-130.372 33.467-27.732 0-53.442-2.223-74.571-6.014C22.118 286.623 8.272 271.553 2.717 254.9c22.353-10.185 64.881-17.063 113.668-17.063 72.004 0 130.372 14.986 130.372 33.467z" opacity=".1"/>
        <path fill="#2F2E41" d="M152.65 80.675c-10.331-17.458-30.772-18.271-30.772-18.271s-19.92-2.547-32.697 24.041c-11.91 24.783-28.347 48.712-2.646 54.513l4.642-14.449 2.875 15.525c3.66.263 7.33.326 10.996.188 27.524-.889 53.736.26 52.892-9.617-1.122-13.13 4.653-35.131-5.29-51.93zM85.067 233.564c-.383 1.905-.666 3.842-1.318 5.674-.646 1.818-1.644 3.499-2.236 5.336-1.884 5.855.728 12.383 4.9 16.902a27.581 27.581 0 0 0 13.448 7.985c3.764.947 7.677 1.083 11.556 1.214 10.74.365 21.758.69 31.936-2.761a55.486 55.486 0 0 0 9.278-4.215 6.946 6.946 0 0 0 2.407-1.896c.776-1.105.876-2.538.87-3.889-.024-4.553-.947-9.083-.728-13.631.122-2.52.593-5.037.361-7.548-.526-5.696-5.05-10.793-10.641-11.994-2.888-.62-5.882-.282-8.822 0a224.91 224.91 0 0 1-22.957 1.027c-7.831-.05-15.614-1.246-23.407-1.37-2.304-.037-2.258.673-2.992 2.903a54.33 54.33 0 0 0-1.655 6.263z"/>
        <path fill="#A0616A" d="M107.293 121.132c-.377 1.97-.784 4.013-1.968 5.633-1.362 1.863-3.584 2.928-5.05 4.71-2.206 2.685-2.332 6.461-2.342 9.936-.008 3.2.057 6.614 1.842 9.27 1.158 1.725 2.92 2.934 4.643 4.095 6.694 4.51 13.927 9.103 21.997 9.251 3.344.062 6.93-.802 9.13-3.32a13.707 13.707 0 0 0 2.21-3.944 52.366 52.366 0 0 0 3.707-15.941c.184-2.576.166-5.227-.706-7.658-.98-2.734-2.963-4.983-4.273-7.574a16.862 16.862 0 0 1-1.623-9.978c.065-.24.045-.496-.057-.723a1.053 1.053 0 0 0-.868-.352l-16.002-1.152a34.822 34.822 0 0 1-4.443-.508c-.862-.176-3.14-1.401-3.963-1.075-1.523.603-1.922 7.696-2.234 9.33z"/>
        <path fill="#000" d="M107.293 121.632c-.377 1.97-.784 4.013-1.968 5.632-1.362 1.863-3.584 2.928-5.05 4.711-2.206 2.684-2.332 6.46-2.342 9.935-.008 3.2.057 6.615 1.842 9.271 1.158 1.725 2.92 2.934 4.643 4.094 6.694 4.511 13.927 9.103 21.997 9.252 3.344.062 6.93-.802 9.13-3.32a13.707 13.707 0 0 0 2.21-3.944 52.366 52.366 0 0 0 3.707-15.942c.184-2.576.166-5.227-.706-7.658-.98-2.733-2.963-4.982-4.273-7.574a16.862 16.862 0 0 1-1.623-9.978c.065-.24.045-.496-.057-.723a1.053 1.053 0 0 0-.868-.352l-16.002-1.152a34.822 34.822 0 0 1-4.443-.508c-.862-.175-3.14-1.4-3.963-1.075-1.523.603-1.922 7.696-2.234 9.33z" opacity=".1"/>
        <circle cx="122.596" cy="99.801" r="23.477" fill="#A0616A"/>
        <path fill="#D0CDE1" d="M110.585 152.383c1.224 1.28 2.52 2.546 4.124 3.295 1.595.746 3.391.932 5.151.981 4.232.12 8.82-.656 11.764-3.699 3.795-3.921 3.67-10.247 6.644-14.822.24-.415.567-.773.959-1.049a3.107 3.107 0 0 1 1.63-.375c3.757-.035 7.03 2.402 9.983 4.724 1.323 1.04 2.679 2.118 3.514 3.58.584 1.139.983 2.363 1.184 3.628 1.466 7.154 1.94 14.47 2.412 21.757.26 4.026.52 8.055.501 12.089-.064 13.29-3.153 26.357-6.224 39.287-.396 1.666-.938 3.528-2.453 4.326-.675.304-1.4.48-2.14.522-8.798 1.034-17.614 2.068-26.472 2.204-3.456.054-6.911-.03-10.365-.25a5.584 5.584 0 0 1-1.746-.305 4.924 4.924 0 0 1-1.904-1.616c-4.79-6.038-5.074-14.385-5.043-22.092a889.828 889.828 0 0 1 2.02-56.487c.105-1.553.128-3.439-.991-4.66 2.015 3.225 4.817 6.208 7.452 8.962z"/>
        <path fill="#575A89" d="M105.612 125.276c-.793 1.435-6.638 5-7.767 6.189-6.306 6.646-17.814 6.397-23.581 13.516-2.03 2.505-3.084 5.652-3.859 8.78-1.096 4.426-1.682 9.252.155 13.424 1.768 4.015 5.488 6.79 8.015 10.377 2.773 3.938 4.02 8.719 5.216 13.385.882 3.445 1.772 6.976 1.428 10.515-.39 4.025-2.338 7.71-3.488 11.587-1.15 3.876-1.348 8.493 1.31 11.54 1.954 2.238 5.017 3.125 7.946 3.624 3.738.637 7.536.819 11.324.986 3.348.148 7.038.177 9.611-1.97 2.031-1.693 2.914-4.44 3.028-7.082.114-2.641-.436-5.26-.78-7.881-.357-2.718-.494-5.459-.609-8.197a510.159 510.159 0 0 1-.21-36.885c.078-2.56.172-5.152-.374-7.655-.718-3.29-2.496-6.232-3.98-9.256-2.946-6.002-4.34-11.832-3.884-18.504.45-6.584 3.32-11.6.5-6.493zM138.58 125.775c1.208 1.242 5.312 1.65 6.848 2.45 1.411.735 2.973 1.118 4.502 1.559a58.442 58.442 0 0 1 15.814 7.258 9.597 9.597 0 0 1 2.644 2.284c.86 1.196 1.172 2.688 1.463 4.131.753 3.727 1.509 7.498 1.34 11.296-.18 4.031-1.394 7.936-2.599 11.787l-4.501 14.39c-3.36 10.742-6.741 21.59-7.686 32.804a77.162 77.162 0 0 0 .692 18.631c.1.62.182 1.33-.227 1.805a1.777 1.777 0 0 1-1.102.507c-2.173.34-4.275-.768-6.243-1.748a69.137 69.137 0 0 0-19.06-6.236 44.308 44.308 0 0 0 5.92-12.203 73.853 73.853 0 0 0 1.789-8.393l2.094-12.11c.768-4.441 1.537-8.893 1.796-13.393.158-1.686.06-3.387-.291-5.045-.401-1.598-1.199-3.064-1.913-4.55-3.45-7.177-5.07-15.369-3.712-23.217.594-3.435 1.749-6.874 1.267-10.326-.463-3.319.018-5.898-.833-9.183-3.497-13.487-.274-4.833 1.998-2.498z"/>
        <path fill="#575A89" d="M74.204 156.33c-1.573 3.265-4.203 6.046-5.099 9.558a20.88 20.88 0 0 0-.444 4.995c-.021 2.527-.035 5.106.74 7.511.5 1.549 1.313 2.977 1.899 4.495a16.298 16.298 0 0 1 1.068 6.66c-.158 3.144-1.227 6.197-1.31 9.344-.132 4.95 2.158 9.603 4.392 14.022a10.308 10.308 0 0 1 14.983-4.905c.59-.544.652-1.438.675-2.24.165-5.743.325-11.485.478-17.228.242-8.882.472-17.882-1.571-26.529-.922-3.904-2.358-7.793-4.99-10.821-1.385-1.594-6.088-5.794-8.363-4.008-1.022.803-.783 2.99-.945 4.097a17.382 17.382 0 0 1-1.513 5.05zM171.65 146.922c.745 2.317.79 4.793.804 7.227.03 4.964-.036 9.928-.197 14.89-.083 2.541-.197 5.117-.968 7.54-.508 1.597-1.292 3.095-1.816 4.687-1.573 4.772-.714 9.948-.579 14.97a17.01 17.01 0 0 1-.412 4.843c-.83 3.113-3.06 5.629-4.616 8.45-1.479 2.68-2.37 5.683-4.136 8.183s-4.822 4.48-7.785 3.712c-2.244-.581-3.84-2.568-4.942-4.607a22.6 22.6 0 0 1-2.337-14.66c1.108-6.096 4.688-11.503 5.98-17.563 1.773-8.32-.922-16.908-.842-25.415a12.285 12.285 0 0 1 .536-3.94c.677-1.943 2.132-3.495 3.476-5.053a63.806 63.806 0 0 0 4.671-6.132c.962-1.434 2.27-5.125 3.975-5.432 3.808-.685 8.244 5.358 9.189 8.3z"/>
        <path fill="#2F2E41" d="M54.443 229.863a23.173 23.173 0 0 0-6.446-.685 16.088 16.088 0 0 0-14.936 18.966c.448 2.444 1.455 4.75 2.554 6.98 1.71 3.469 3.76 6.93 6.924 9.153 1.852 1.3 3.994 2.111 6.112 2.909l16.667 6.279c2.452.924 4.905 1.848 7.381 2.704a144.367 144.367 0 0 0 38.55 7.664c4.003.238 8.066.305 11.97-.607.927-.216 1.915-.538 2.452-1.324a4.198 4.198 0 0 0 .547-1.809l1.026-7.18c.144-1.011.283-2.075-.087-3.027-.47-1.207-1.648-1.966-2.77-2.61-10.959-6.295-23.753-9.767-32.977-18.405-2.171-2.033-3.988-5.257-6.626-6.638-2.992-1.566-6.515-2.46-9.608-3.904-6.76-3.155-13.406-6.782-20.733-8.466z"/>
        <path fill="#000" d="M71.084 239.543c5.891 1.846 30.765 14.636 35.028 19.101-.572.206-19.96-10.66-20.543-10.834-5.288-1.588-10.606-3.185-15.629-5.508-1.01-.467-6.563-2.664-6.312-3.939.284-1.438 6.41.853 7.456 1.18z" opacity=".1"/>
        <path fill="#A0616A" d="M144.583 287.557c.334.024.666-.073.934-.275.237-.305.342-.692.291-1.075l-.027-9.782c-2.813-1.34-5.96-1.77-9.048-2.182l-14.41-1.926c.331.044-2.253 6.206-1.857 7.029.699 1.45 6.036 2.735 7.542 3.42 5.236 2.38 10.677 4.996 16.575 4.79z"/>
        <path fill="#A0616A" d="M99.371 276.391c-2.72.434-5.757.817-7.52 2.935-2.234 2.686-1.283 6.69-.217 10.017.159.673.477 1.298.927 1.822.728.718 1.842.823 2.862.888 2.481.157 5.122.28 7.29-.937 1.027-.576 1.875-1.419 2.832-2.105a18.156 18.156 0 0 1 5.206-2.38 52.649 52.649 0 0 1 10.452-2.154c1.39-.142 2.809-.233 4.117-.726 1.308-.493 2.52-1.47 2.9-2.815.501-1.778-.532-3.59-1.523-5.15-1.234-1.941-2.542-3.986-4.382-5.416-2.685-2.085-4.013-.484-6.718.85a56.998 56.998 0 0 1-16.226 5.171z"/>
        <path fill="#2F2E41" d="M92.26 278.842l-17.275-5.106c-2.101-.621-4.238-1.247-6.429-1.246-2.19.002-4.483.72-5.904 2.388-1.34 1.572-1.723 3.721-2.057 5.76l-.714 4.36c-.363 2.216-.727 4.474-.4 6.696.326 2.221 1.46 4.44 3.432 5.516 2.39 1.304 5.32.667 7.988.122a86.975 86.975 0 0 1 16.372-1.756c2.068-.024 4.237.001 6.064-.967 2.172-1.151 3.471-3.585 3.695-6.033.34-3.725-.902-8.59-4.771-9.734zM151.373 274.392c2.24-.392 4.217-1.665 6.362-2.416 3.021-1.058 6.294-1.058 9.495-1.046 1.175.004 2.426.03 3.404.682 1.41.938 1.77 2.816 2.01 4.493l1.446 10.115c.272 1.902.543 3.856.119 5.73-.425 1.874-1.702 3.681-3.562 4.165-2.26.587-4.474-.856-6.607-1.804-5.331-2.37-11.528-1.764-17.087-3.534-1.032-.33-2.137-.832-2.557-1.83a4.16 4.16 0 0 1-.2-1.747c.096-3.251-.59-7.69.389-10.798.88-2.794 4.289-2.01 6.788-2.01z"/>
        <path fill="#2F2E41" d="M187.933 225.792a30 30 0 0 1 10.568-.722c2.825.311 5.736 1.097 7.799 3.053 2.51 2.38 3.317 6.061 3.384 9.52a29.742 29.742 0 0 1-6.464 18.995 17.235 17.235 0 0 1-3.696 3.558 24.327 24.327 0 0 1-4.809 2.317l-37.327 14.723c-9.82 3.873-19.674 7.758-29.917 10.311a2.332 2.332 0 0 1-3.137-1.138 77.333 77.333 0 0 1-8.182-14.965 1.008 1.008 0 0 1 .446-1.59L143 254.684c1.891-1.086 3.803-2.188 5.374-3.702a13.34 13.34 0 0 0 2.759-3.841c.547-1.143.598-3.84 1.297-4.685.684-.828 3.026-.894 4.107-1.219a37.266 37.266 0 0 0 4.471-1.69c5.906-2.642 11.165-6.481 16.827-9.575a43.174 43.174 0 0 1 10.098-4.18z"/>
        <path fill="#000" d="M172.965 237.12c-4.536 3.407-10.409 6.54-14.904 10.036-1.535 1.193-27.112 15.573-27.473 17.482 4.194.707 30.91-17.983 34.733-19.848 3.823-1.865 7.211-4.495 10.57-7.106.855-.665 4.481-2.665 2.025-3.409-1.384-.418-3.929 2.165-4.95 2.846z" opacity=".1"/>
        <path fill="#3F3D56" d="M141.755 126.105h-39.817a6.1 6.1 0 0 0-6.1 6.1v2.233h-.432v4.995h.433v3.497h-.433v2.997h.433v36.856a6.1 6.1 0 0 0 6.099 6.1h39.817a6.1 6.1 0 0 0 6.1-6.1v-50.578a6.1 6.1 0 0 0-6.1-6.1z"/>
        <path fill="#2F2E41" d="M148.083 78.992l-20.195-10.578L100 72.742l-5.77 25.484 14.363-.553 4.013-9.362v9.208l6.627-.255 3.847-14.906 2.404 15.868 23.56-.481z"/>
        <path fill="#A0616A" d="M79.487 222.491c.998 1.49 2.167 2.947 3.77 3.75 2.003 1.005 4.475.825 6.48-.173a11.406 11.406 0 0 0 4.677-4.689c2.194-3.876 2.649-8.513 2.375-12.959-.274-4.445-1.223-8.823-1.643-13.257-.306-3.223-.33-6.466-.355-9.703-.005-.68.006-1.414.408-1.963.486-.664 1.376-.847 2.165-1.081 4.43-1.316 7.37-5.468 9.477-9.58 1.408-2.746 2.632-5.747 2.36-8.821-.27-3.074-2.48-6.17-5.55-6.484-2.53-.258-4.867 1.35-6.693 3.12a28.7 28.7 0 0 0-8.403 16.794c-.4 3.126-.286 6.336-1.136 9.37-1.814 6.478-7.493 10.45-10.323 16.278-3.118 6.423-1.397 13.715 2.391 19.398zM163.052 197.743a12.242 12.242 0 0 1-6.866 6.597 9.482 9.482 0 0 1-5.968.365 6.618 6.618 0 0 1-4.372-3.91c-.303-.952-.468-1.94-.493-2.938-.284-4.369-.174-8.87 1.413-12.95.612-1.574 1.437-3.066 1.92-4.684.551-1.846.64-3.793.723-5.717l.522-11.919a7.757 7.757 0 0 0-.177-2.584c-.52-1.725-2.132-2.846-3.611-3.874-3.572-2.484-7.102-5.383-8.833-9.374-.53-1.222-.879-2.58-.61-3.883.488-2.367 2.877-3.9 5.238-4.416a11.715 11.715 0 0 1 14.045 9.441c.233 1.345.23 2.72.367 4.078.29 2.881 1.205 5.659 1.777 8.498 1.41 6.993.68 14.221 2.073 21.213 1.166 5.846 5.56 9.66 2.852 16.057z"/>
        <circle cx="122.379" cy="147.925" r="4.995" fill="#D0CDE1"/>
        <path fill="#3F3D56" d="M333.233 153.273c-14.78 0-26.76 11.98-26.76 26.76 0 14.78 11.98 26.76 26.76 26.76 14.78 0 26.76-11.98 26.76-26.76a26.76 26.76 0 0 0-26.76-26.76zm13.225 19.973c.014.289.022.585.022.881 0 9.028-6.865 19.438-19.431 19.438a19.073 19.073 0 0 1-10.445-3.087 13.68 13.68 0 0 0 10.107-2.826 6.834 6.834 0 0 1-6.379-4.744c.422.086.852.128 1.283.127a6.87 6.87 0 0 0 1.797-.24 6.83 6.83 0 0 1-5.476-6.695v-.084a6.665 6.665 0 0 0 3.101.853 6.837 6.837 0 0 1-2.121-9.12 19.337 19.337 0 0 0 14.067 7.14 6.68 6.68 0 0 1-.176-1.558 6.821 6.821 0 0 1 11.805-4.666c1.53-.299 2.995-.86 4.334-1.656a6.848 6.848 0 0 1-3.002 3.777 13.795 13.795 0 0 0 3.918-1.078 13.89 13.89 0 0 1-3.404 3.538z"/>
        <circle cx="324.629" cy="78.84" r="4.755" fill="#3F3D56"/>
        <path fill="#3F3D56" d="M330.572 66.952h-11.887a5.961 5.961 0 0 0-5.944 5.944v11.888a5.961 5.961 0 0 0 5.944 5.944h11.887a5.961 5.961 0 0 0 5.944-5.944V72.896a5.961 5.961 0 0 0-5.944-5.944zm-5.943 19.02a7.133 7.133 0 1 1 0-14.265 7.133 7.133 0 0 1 0 14.265zm7.727-13.076a1.783 1.783 0 1 1 0-3.567 1.783 1.783 0 0 1 0 3.567z"/>
        <path fill="#3F3D56" d="M324.323 50.879c-15.58 0-28.21 12.63-28.21 28.21s12.63 28.211 28.21 28.211 28.211-12.63 28.211-28.21a28.21 28.21 0 0 0-28.21-28.211zm14.57 33.905a8.346 8.346 0 0 1-8.32 8.321h-11.888a8.346 8.346 0 0 1-8.322-8.321V72.896a8.346 8.346 0 0 1 8.322-8.322h11.887a8.346 8.346 0 0 1 8.322 8.322v11.888zM209.89 0c-15.33 0-27.758 12.428-27.758 27.758 0 15.33 12.428 27.758 27.758 27.758 15.33 0 27.758-12.428 27.758-27.758A27.758 27.758 0 0 0 209.89 0zm8.752 16.796h-3.553c-2.426 0-2.889 1.148-2.889 2.839v3.593h5.778l-.755 5.637H212.2v15.3h-6.442v-15.3h-4.62v-5.637h4.62v-4.167c0-4.993 3.463-7.71 7.922-7.71 2.134 0 4.429.16 4.962.23v5.215z"/>
    </g>
</svg>
