<svg xmlns="http://www.w3.org/2000/svg" width="360" height="343" viewBox="0 0 360 343">
    <g fill="none" fill-rule="evenodd" opacity=".7" transform="matrix(-1 0 0 1 415 1)">
        <rect width="102" height="13" x="196" y="23" fill="#FF9797" fill-rule="nonzero" rx="5.421"/>
        <rect width="263" height="302" x="182" stroke="#3F3D56" rx="5.421"/>
        <rect width="102" height="13" x="198" y="20" stroke="#3F3D56" rx="5.421"/>
        <rect width="206" height="7" x="208" y="69" fill="#F2F2F2" fill-rule="nonzero" rx="3.5"/>
        <rect width="206" height="7" x="209" y="90" fill="#F2F2F2" fill-rule="nonzero" rx="3.5"/>
        <rect width="206" height="7" x="209" y="113" fill="#F2F2F2" fill-rule="nonzero" rx="3.5"/>
        <rect width="206" height="7" x="211" y="67" stroke="#3F3D56" rx="3.5"/>
        <rect width="206" height="7" x="211" y="88" stroke="#3F3D56" rx="3.5"/>
        <rect width="206" height="7" x="211" y="109" stroke="#3F3D56" rx="3.5"/>
        <path fill="#F2F2F2" fill-rule="nonzero" d="M347.235 175h-69.47c-1.527 0-2.765 1.248-2.765 2.787v9.316c0 1.54 1.238 2.787 2.765 2.787h3.77v47.323c0 1.54 1.237 2.787 2.764 2.787h52.425c1.527 0 2.765-1.248 2.765-2.787V189.89h7.746c1.527 0 2.765-1.248 2.765-2.787v-9.316c0-1.54-1.238-2.787-2.765-2.787z"/>
        <path stroke="#3F3D56" d="M287 186h58v45.557c0 3.006-2.405 5.443-5.37 5.443h-47.26a5.335 5.335 0 0 1-3.797-1.594 5.48 5.48 0 0 1-1.573-3.849V186z"/>
        <rect width="75" height="15" x="279" y="171" stroke="#3F3D56" rx="7.5"/>
        <path fill="#FF9797" fill-rule="nonzero" d="M306 174h13v63h-13z"/>
        <path stroke="#3F3D56" d="M310 172h11v65h-11z"/>
        <path fill="#FF9797" fill-rule="nonzero" d="M310.898 157.123c4.05 6.833 2.972 14.877 2.972 14.877s-7.647-3.036-11.698-9.87c-4.05-6.833-5.38-13.494-2.971-14.877 2.41-1.383 7.646 3.036 11.697 9.87zM320.102 157.123c-4.05 6.833-2.972 14.877-2.972 14.877s7.647-3.036 11.698-9.87c4.05-6.833 5.38-13.494 2.971-14.877-2.41-1.383-7.646 3.036-11.697 9.87z"/>
        <path stroke="#3F3D56" d="M312.898 157.123c4.05 6.833 2.972 14.877 2.972 14.877s-7.647-3.036-11.698-9.87c-4.05-6.833-5.38-13.494-2.971-14.877 2.41-1.383 7.646 3.036 11.697 9.87z"/>
        <path stroke="#3F3D56" d="M318.102 157.123c-4.05 6.833-2.972 14.877-2.972 14.877s7.647-3.036 11.698-9.87c4.05-6.833 5.38-13.494 2.971-14.877-2.41-1.383-7.646 3.036-11.697 9.87z"/>
        <path fill="#FF6584" fill-rule="nonzero" d="M88.034 39s11.402 21.795 9.578 33.387c-1.825 11.593-3.65 21.795 0 27.36C101.26 105.31 78 98.818 78 98.818v-32.46L88.034 39z"/>
        <path fill="#FBBEBE" fill-rule="nonzero" d="M112 97.424s-27.69 31.155-36.385 23.309c-8.696-7.847-16.705-26.54-10.298-32.54 3.46-3.24 3.717-9.439 3.222-14.46a49.037 49.037 0 0 0-1.391-7.695s13.73-4.153 14.188 4.154c.031.977.287 1.933.746 2.793 2.622 4.694 11.153 2.285 11.153 2.285L112 97.424z"/>
        <path fill="#FBBEBE" fill-rule="nonzero" d="M91 76.421l1.85-1.348a56.845 56.845 0 0 1 21.744 3.147c11.103 4.046 30.533 7.642 36.085 6.293 5.551-1.348 18.968-4.046 18.968-4.046s14.804-5.844 18.042 1.35c3.239 7.192-19.893 7.192-19.893 7.192s-16.423 6.519-27.989 5.62c-11.565-.9-26.6 4.27-33.54-1.124C99.327 88.11 91 76.42 91 76.42zM82.976 311.235L78 320.285 82.976 326H97s-4.524-9.526-2.714-13.812c1.81-4.287-11.31-.953-11.31-.953z"/>
        <path fill="#3F3D56" fill-rule="nonzero" d="M98.03 317.519s-4.94 5.447-8.082 4.54C86.805 321.15 81.34 316 81.34 316s-8.006 7.874-4.414 11.506c3.592 3.632 17.96 10.441 22 13.165 4.041 2.724 17.511.908 17.062-2.27-.449-3.178-7.184-6.81-10.327-10.895a2941.954 2941.954 0 0 1-7.633-9.987z"/>
        <path fill="#3F3D56" fill-rule="nonzero" d="M121.427 166.382s10.107 31.778-3.676 69.082c0 0-12.405 54.806-16.999 65.859-4.594 11.053-4.594 15.659-4.594 15.659s-17.459.46-16.08-3.224c0 0 5.972-17.962 5.972-24.87 0-6.908 9.648-44.213 9.648-44.213L98.914 165l22.513 1.382z"/>
        <path fill="#000" fill-rule="nonzero" d="M121.427 166.382s10.107 31.778-3.676 69.082c0 0-12.405 54.806-16.999 65.859-4.594 11.053-4.594 15.659-4.594 15.659s-17.459.46-16.08-3.224c0 0 5.972-17.962 5.972-24.87 0-6.908 9.648-44.213 9.648-44.213L98.914 165l22.513 1.382z" opacity=".1"/>
        <path fill="#3F3D56" fill-rule="nonzero" d="M119 168.889s0 14.798-9.717 21.272c0 0 7.403 51.792-1.85 61.504-9.255 9.71-24.525 5.549-24.525 5.549S57.458 258.6 38.488 266c0 0-14.807-4.162-2.777-14.798 0 0 14.807-3.7 19.434-6.936 4.627-3.237 25.912-9.712 31.465-6.937 0 0-.463-7.861-2.314-13.41-1.668-5.003-4.627-20.348-4.627-20.348s-12.956-24.509 0-37.457S119 168.89 119 168.89z"/>
        <path fill="#000" fill-rule="nonzero" d="M82 73.141a16.688 16.688 0 0 1-13.602.763A50.677 50.677 0 0 0 67 66.059s13.791-4.235 14.25 4.235c.032.996.289 1.97.75 2.847z" opacity=".1"/>
        <circle cx="74" cy="56" r="17" fill="#FBBEBE" fill-rule="nonzero"/>
        <path fill="#FF9797" fill-rule="nonzero" d="M74 119.67s19.444 13.799 10.648 28.517c-8.796 14.719-6.018 22.998-6.018 22.998s16.666 0 22.222 3.68c5.555 3.679 23.148-2.76 23.148-2.76s2.778-18.398-.926-27.138c-3.704-8.739-5.555-22.537-4.167-25.297 1.39-2.76 5.093-15.638-3.703-22.998L110.196 94s3.156 13.251-18.14 4.972c0 0-4.63 27.137-18.056 20.698z"/>
        <path fill="#FF9797" fill-rule="nonzero" d="M91.852 75l.469.485 17.092 17.68.528.543.03.102.344 1.056L111 97l-2.692-2.949-16.578-18.13-.73-.796zM93 100.607s-14.383-12.255-24.534-9.083c-10.15 3.173 4.92 30.135 7.997 30.476l1.23-.112S58.778 99.228 69.39 92.43c0 0 13.38 1.36 23.53 9.517l.081-1.341z"/>
        <path fill="#FBBEBE" fill-rule="nonzero" d="M84.52 97.08l33.443 10.777 55.434 3.28s16.035.468 13.286 7.965c-2.749 7.496-17.409 1.874-17.409 1.874l-47.646.937s-39.4-4.217-42.606-6.56c-3.207-2.342 1.832-19.678 5.497-18.272z"/>
        <path fill="#FF6584" fill-rule="nonzero" d="M69.385 70.12s-1.834-3.682 1.833-7.824c1.868-2.109 3.497-6.604 4.647-10.509 1.095-3.722 4.776-6.048 8.593-5.428 3.282.532 6.743.701 7.85-.633 2.293-2.761-.458-17.49-18.339-14.268-17.88 3.222-29.343-4.142-29.343 13.348 0 17.49 11.004 22.553 3.21 40.043s-22.924 19.33-14.213 30.837c8.711 11.507 31.635 14.729 33.01 10.586 1.376-4.142-5.501-20.251-.916-26.695 4.584-6.444 12.379-13.347 10.086-17.49-2.292-4.142-6.418-11.967-6.418-11.967z"/>
    </g>
</svg>
