<svg xmlns="http://www.w3.org/2000/svg" width="22" height="18" viewBox="0 0 22 18">
    <path fill="#FF9797" fill-rule="nonzero" stroke="#FF9797" stroke-width=".924" d="M10.9 17.174a1.2 1.2 0 0 1-.765-.273c-.8-.662-1.571-1.284-2.252-1.833l-.003-.002c-1.995-1.61-3.718-2.999-4.916-4.368C1.624 9.168 1 7.717 1 6.132c0-1.54.558-2.96 1.57-4C3.597 1.079 5.003.5 6.532.5c1.143 0 2.19.342 3.111 1.016.466.34.887.757 1.258 1.243l.007-.008c.37-.483.789-.896 1.25-1.235A5.162 5.162 0 0 1 15.27.5c1.53 0 2.935.58 3.96 1.632 1.013 1.04 1.571 2.46 1.571 4 0 1.585-.624 3.036-1.964 4.566-1.198 1.369-2.92 2.758-4.915 4.367-.682.55-1.454 1.173-2.256 1.837a1.193 1.193 0 0 1-.62.263l-.138.009H10.9z"/>
</svg>
