<svg xmlns="http://www.w3.org/2000/svg" width="360" height="310" viewBox="0 0 360 310">
    <g fill="none" fill-rule="evenodd" opacity=".7" transform="translate(0 1)">
        <g fill-rule="nonzero" opacity=".2">
            <path fill="#FF9797" d="M487.235 87.373a56.228 56.228 0 0 1-8.452 22.625l-33.094-5.01 29.91 9.438a57.256 57.256 0 0 1-5.263 5.786c13.02 22.557 8.922 51.099-9.919 69.076a56.192 56.192 0 0 1 7.522 30.476c-14.07 16.381-31.235 31.076-50.856 43.612a237.584 237.584 0 0 1-5.925 3.636 264.656 264.656 0 0 1-10.289 5.888 53.312 53.312 0 0 1-3.407-.77 53.737 53.737 0 0 1-4.097-1.215 56.433 56.433 0 0 1-36.877-41.283 56.46 56.46 0 0 1 16.14-52.96 54.906 54.906 0 0 1-1.615-2.995c-.15-.294-.293-.587-.444-.89a56.194 56.194 0 0 1-5.427-27.547l.067-.984c.04-.53.088-1.063.142-1.593.08-.748.173-1.5.28-2.252v-.07a56.061 56.061 0 0 1 5.507-17.424l40.35 20.33-36.792-26.382a56.512 56.512 0 0 1 7.83-9.274 56.465 56.465 0 0 1 1.533-58.58 56.407 56.407 0 0 1 52.664-25.647 56.419 56.419 0 0 1 47.029 34.931l-45.313 24.25 47.755-16.676a56.308 56.308 0 0 1 1.04 21.504z"/>
            <path fill="#000" d="M467.925 219.746c-14.07 16.381-31.235 31.076-50.855 43.613a194.869 194.869 0 0 1-5.912 3.653 264.656 264.656 0 0 1-10.289 5.888 53.312 53.312 0 0 1-3.407-.77 53.737 53.737 0 0 1-4.097-1.215 56.433 56.433 0 0 1-36.877-41.283 56.46 56.46 0 0 1 16.14-52.96 54.906 54.906 0 0 1-1.615-2.995c-.15-.294-.293-.587-.444-.89a56.194 56.194 0 0 1-5.427-27.547l.067-.984c.04-.53.088-1.063.142-1.593.08-.748.173-1.5.28-2.252v-.07c.347-1.203 4.938-.192 11.93 2.224l1.477.525c1.548.557 3.198 1.17 4.933 1.843 3.785 1.46 7.967 3.182 12.38 5.086l.288.125.614.267c29.67 12.87 68.697 33.52 63.102 38.85a56.192 56.192 0 0 1 7.57 30.485z" opacity=".1"/>
        </g>
        <g fill-rule="nonzero" opacity=".2" transform="translate(0 20)">
            <path fill="#3F3D56" d="M142.028 271.748a275.611 275.611 0 0 1-5.571-1.981 286.023 286.023 0 0 1-12.68-4.976 9.278 9.278 0 0 1 2.829-1.557c3.71-1.265 7.784-.057 11.102 2.853a18.722 18.722 0 0 1 4.32 5.66z"/>
            <path fill="#3F3D56" d="M137.708 266.087a14.707 14.707 0 0 1-1.251 3.68 286.023 286.023 0 0 1-12.68-4.976 272.82 272.82 0 0 1-10.688-4.737 19.991 19.991 0 0 1-.205-3.189c.015-1.111.134-2.219.356-3.308.891-4.348 3.412-7.81 7.126-9.075 3.714-1.265 7.785-.058 11.103 2.857.803.707 1.54 1.485 2.2 2.326a20.559 20.559 0 0 1 3.331 6.227 19.793 19.793 0 0 1 .708 10.195z"/>
            <ellipse cx="119.208" cy="241.073" fill="#3F3D56" rx="12.16" ry="16.175" transform="rotate(-17.54 119.208 241.073)"/>
            <ellipse cx="112.071" cy="221.496" fill="#3F3D56" rx="12.114" ry="16.115" transform="rotate(-17.526 112.071 221.496)"/>
            <path fill="#FF9797" d="M133.647 249.665a55.755 55.755 0 0 1-3.813 2.021 57.931 57.931 0 0 1-6.47 2.654 56.973 56.973 0 0 1-6.151 1.73 54.381 54.381 0 0 1-4.342.79 55.64 55.64 0 0 1-5.385.505c-21.52-10.615-40.839-23.6-57.326-38.43-.236-.627-.445-1.26-.672-1.901a59.888 59.888 0 0 1 .205-38.744c-11.025-7.35-19.258-18.152-23.39-30.685a60.11 60.11 0 0 1-3.118-19.018h46.642l-46.188-7.332a59.799 59.799 0 0 1 2.869-12.384c-11.026-7.349-19.26-18.149-23.39-30.681-10.36-31.008 5.927-64.572 36.376-74.983 20.384-6.962 41.944-1.77 57.081 11.72l-30.35 44.121 36.135-38.177a59.592 59.592 0 0 1 11.01 19.646 60.017 60.017 0 0 1 2.796 25.21L83.375 76.65l31.932-5.276a59.468 59.468 0 0 1-2.142 7.89c11.024 7.35 19.257 18.149 23.39 30.68a60.124 60.124 0 0 1 3.117 18.505v2.128a59.778 59.778 0 0 1-3.3 18.133 58.655 58.655 0 0 1 12.025 10.637c.089.097.173.194.254.296a59.519 59.519 0 0 1 11.093 19.748c9.117 27.288-2.422 56.567-26.097 70.273z"/>
            <path fill="#000" d="M133.647 249.665a55.755 55.755 0 0 1-3.813 2.021 57.931 57.931 0 0 1-6.47 2.654 56.973 56.973 0 0 1-6.151 1.73 54.381 54.381 0 0 1-4.342.79 55.64 55.64 0 0 1-5.385.505c-21.52-10.615-40.839-23.6-57.326-38.43-.236-.627-.445-1.26-.672-1.901a59.888 59.888 0 0 1 .205-38.744c-11.025-7.35-19.258-18.152-23.39-30.685-1.6-4.785 65.075-8.646 95.444-4.944l.708.088c9.219 1.181 14.88 3.096 13.895 5.931a58.655 58.655 0 0 1 12.025 10.637c.089.097.173.194.253.296a59.519 59.519 0 0 1 11.094 19.748c9.139 27.32-2.4 56.598-26.075 70.304z" opacity=".1"/>
        </g>
        <path fill="#FF9797" fill-rule="nonzero" d="M170.343 102.568c.249-.331.386-.724.394-1.128 0-2.455-5.358-4.44-11.964-4.44-6.607 0-11.955 2.002-11.955 4.44.009.466.18.916.49 1.281-7.353.765-12.308 2.203-12.308 3.843 0 2.45 10.98 4.436 24.5 4.436s24.5-1.985 24.5-4.436c-.005-1.76-5.568-3.27-13.657-3.996zM354.823 9.16c.386-.547.6-1.195.612-1.862 0-4.03-8.306-7.298-18.553-7.298-10.246 0-18.553 3.269-18.553 7.298.019.756.288 1.484.765 2.075-11.41 1.26-19.094 3.622-19.094 6.329 0 4.03 16.988 7.298 38 7.298s38-3.269 38-7.298c0-2.87-8.633-5.352-21.177-6.542zM206.823 9.16c.386-.547.6-1.195.612-1.862 0-4.03-8.306-7.298-18.553-7.298-10.246 0-18.553 3.269-18.553 7.298.019.756.288 1.484.765 2.075-11.41 1.26-19.094 3.622-19.094 6.329 0 4.03 17.01 7.298 38 7.298s38-3.269 38-7.298c0-2.87-8.633-5.352-21.177-6.542z" opacity=".1"/>
        <path stroke="#FF9797" stroke-width="3" d="M160 47.684c1.058-.618 2.477-.028 3.2.966.724.993.932 2.29 1.113 3.493.402 2.706.691 5.815-1.108 7.857 2.943-9.052 11.42-15.988 20.795-17M275 4.046c.66-.4 1.552 0 2.005.622.403.684.64 1.461.69 2.263.251 1.751.44 3.76-.69 5.069C278.975 6.033 284.02 1.764 290 1M352 85.046c.66-.4 1.552 0 2.005.622.403.684.64 1.461.69 2.263.251 1.751.44 3.76-.69 5.069 1.97-5.967 7.014-10.236 12.995-11" opacity=".1"/>
        <path fill="#2F2E41" fill-rule="nonzero" d="M244.058 29.858c-1.902 1.585-3.244 3.617-5.332 5.047-2.515 1.727-5.817 2.382-8.888 3.308-3.07.925-6.22 2.377-7.456 4.896-1.049 2.156-.445 4.658-1.333 6.863-.956 2.342-3.435 3.984-5.333 5.875-3.75 3.728-5.416 8.854-4.443 13.636.67 3.307 2.506 6.362 3.595 9.59 1.333 3.949 1.52 8.088 1.706 12.184.347 7.69.689 15.455-1.049 23.022-.444 1.899-1.644 30.778-3.968 30.721 6.168-.527 12.371-.584 18.57-.646l92.873-.886c-4.28-5.578-7.012-38.544-7.919-45.119-1.564-11.334 2.222-22.681 2.667-34.09.062-1.47.062-2.98-.547-4.361-.64-1.448-1.92-2.683-2.346-4.184-.613-2.147.617-4.348.657-6.553.08-4.427-4.443-7.823-8.03-11.103-3.456-3.157-6.332-6.743-9.9-9.82-3.568-3.077-8.052-5.685-13.153-6.159-4.19-.385-8.354.7-12.367 1.771-4.786 1.275-9.332 2.887-14.41 2.807-5.604-.097-9.057.368-13.594 3.201z"/>
        <g fill="#000" fill-rule="nonzero" opacity=".1">
            <path d="M308.17 47.495c.13.484.318.95.562 1.39a8.105 8.105 0 0 0-.719-2.88c-.02.501.033 1.003.156 1.49zM217.648 118.535l-.518.045c.173.003.347-.012.518-.045z"/>
        </g>
        <path fill="#FBBEBE" fill-rule="nonzero" d="M313.326 277.931a3.819 3.819 0 0 1-1.932.805c-11.227 2.361-22.556 4.376-34.002 5.015-10.1.567-20.229.058-30.332-.45-10.104-.508-20.198-1.02-30.06-3.112a79.912 79.912 0 0 0 7.596-26.899c.415-4.108.516-8.243.303-12.367a14.15 14.15 0 0 0-.176-1.48c-.47-2.96-1.629-7.245-.575-9.386 1.353-2.752 6.547-2.842 9.085-3.355a219.618 219.618 0 0 1 12.997-2.199c17.269-2.406 34.714-2.955 52.115-3.49 2.335-.072 5.12.09 6.336 2.136.68 1.147.645 2.577.61 3.922-.08 2.911-.051 5.823.083 8.734a119.243 119.243 0 0 0 7.983 37.629c.58 1.47 1.11 3.395-.03 4.497zM244.22 119.123c-1.868 2.285-4.499 3.82-7.147 5.17a89.552 89.552 0 0 1-9.759 4.296c-.674 1.017-.138 2.366.447 3.449 5.239 10.11 12.25 20.158 22.827 24.503 5.427 2.22 11.38 2.774 17.231 3.293 1.823.16 3.68.32 5.458-.115s3.43-1.487 4.913-2.6c9.69-7.287 16.071-18.1 17.74-30.06.143-1.062.143-2.362-.772-2.93-.558-.342-1.269-.275-1.925-.27-4.283.044-8.08-3.108-10.058-6.876-1.979-3.768-2.506-8.113-2.993-12.342 0-.094-25.181-.622-27.454-.64-3.547-.03-4.717.382-5.06 3.995-.363 3.985-.81 7.878-3.449 11.127z"/>
        <path fill="#000" fill-rule="nonzero" d="M244.22 119.123c-1.868 2.285-4.499 3.82-7.147 5.17a89.552 89.552 0 0 1-9.759 4.296c-.674 1.017-.138 2.366.447 3.449 5.239 10.11 12.25 20.158 22.827 24.503 5.427 2.22 11.38 2.774 17.231 3.293 1.823.16 3.68.32 5.458-.115s3.43-1.487 4.913-2.6c9.69-7.287 16.071-18.1 17.74-30.06.143-1.062.143-2.362-.772-2.93-.558-.342-1.269-.275-1.925-.27-4.283.044-8.08-3.108-10.058-6.876-1.979-3.768-2.506-8.113-2.993-12.342 0-.094-25.181-.622-27.454-.64-3.547-.03-4.717.382-5.06 3.995-.363 3.985-.81 7.878-3.449 11.127z" opacity=".1"/>
        <circle cx="263.5" cy="80.5" r="34.5" fill="#FBBEBE" fill-rule="nonzero"/>
        <path fill="#FF9797" fill-rule="nonzero" d="M288.2 121.331c.377 4.813-51.17 9.318-53.115 3.383-1.155 1.368-3.273 1.48-4.96.89-1.688-.587-3.11-1.72-4.708-2.553-2.665-1.394-5.667-1.911-8.62-2.415-4.81-.815-10.397-1.412-13.958 1.934-1.23 1.154-2.07 2.674-3.304 3.833-2.159 2.014-5.21 2.642-7.994 3.564-4.02 1.337-7.723 3.476-11.52 5.348a101.83 101.83 0 0 1-28.063 9.1c-2.074.351-4.161.637-6.217 1.131-2.887.695-5.774 1.885-7.741 4.118 2.3 2.95 5.605 4.558 9.153 5.722l34.24 11.23c5.152 1.688 10.383 3.413 14.89 6.438 7.51 5.027 12.396 13.289 15.069 21.938 2.674 8.65 3.362 17.776 4.028 26.808.289 3.926.55 8.022-.986 11.658 7.976.943 16.041.81 23.982-.397 7.642-1.167 15.201-3.333 22.933-3.262 8.438.085 16.614 2.83 24.932 4.314 8.318 1.484 17.497 1.528 24.505-3.209-1.492-2.018-1.719-4.901-1.776-7.406l-.178-11.867a17.67 17.67 0 0 1 .284-4.277c.595-2.54 2.27-4.67 3.34-7.046 2.065-4.585 1.776-9.826 1.892-14.857.115-5.03.817-10.436 4.205-14.117 2.22-2.402 5.33-3.765 8.483-4.608 5.391-1.443 11.031-1.537 16.6-1.933A148.23 148.23 0 0 0 396 151.099c-.986-2.09-3.277-3.276-5.37-4.247-4.946-2.295-10.187-4.648-15.614-4.135-2.624.25-5.222 1.167-7.838.833-2.478-.32-4.672-1.73-7.08-2.402-1.824-.508-3.734-.584-5.608-.869-4.326-.664-8.385-2.45-12.386-4.22l-10.108-4.456c-2.664-1.181-5.44-2.442-7.27-4.724-.595-.744-1.074-1.582-1.723-2.281-1.114-1.199-2.664-1.907-4.214-2.402a13.608 13.608 0 0 0-6.071-.669 35.59 35.59 0 0 0-4.152 1.092c-6.68 1.81-13.572-.071-20.367-1.288z"/>
        <path fill="#2F2E41" fill-rule="nonzero" d="M327 300.567A324.97 324.97 0 0 1 272.099 309h-46.517A325.68 325.68 0 0 1 201 306.381a88.475 88.475 0 0 1 9.77-20.284 10.655 10.655 0 0 0 1.523-2.938c.193-.98.292-1.978.294-2.978a14.49 14.49 0 0 1 3.361-8.318c.915.503 1.84.987 2.772 1.451a88.107 88.107 0 0 0 33.847 9.166c6.193.32 12.401.194 18.577-.377 13.928-1.132 28.41-3.742 39.628-12.029.47-.346.937-.706 1.399-1.074 5.45 4.882 8.604 12.366 10.861 19.36 1.342 4.093 2.582 8.177 3.968 12.207z"/>
        <path fill="#000" fill-rule="nonzero" d="M265.183 272c-.375 1.36-.167 2.836.564 4 .492-1.23.253-2.673-.601-3.622l.037-.378z" opacity=".1"/>
        <path fill="#FBBEBE" fill-rule="nonzero" d="M246.251 128.785c1.747-.932 3.633-1.758 5.623-1.785 2.99-.026 5.664 1.76 7.879 3.729a39.745 39.745 0 0 1 5.528 5.989c.81 1.077 1.585 2.26 1.706 3.592.122 1.332-.626 2.832-1.958 3.148a3.52 3.52 0 0 1-2.427-.479c-3.08-1.653-5.362-5.439-8.855-5.07-2.395.25-4.016 2.427-5.326 4.397-1.166 1.76-2.345 3.566-2.868 5.598-.522 2.031-.27 4.397 1.18 5.927 1.125 1.2 2.769 1.759 4.304 2.383a30.08 30.08 0 0 1 9.17 5.813c1.292 1.205 2.521 2.638 2.701 4.397.18 1.759-1.184 3.694-2.966 3.57a4.807 4.807 0 0 1-2.202-.936c-3.223-2.08-6.514-4.26-10.296-5.026-3.849-.778-7.824 0-11.705.58a154.108 154.108 0 0 1-12.83 1.328 10.977 10.977 0 0 1-3.814-.241c-4.25-1.284-5.488-6.565-4.992-10.382.526-4.08 3.601-5.008 6.816-7.035 9.04-5.778 15.747-14.396 25.332-19.497z"/>
        <path fill="#FBBEBE" fill-rule="nonzero" d="M277.752 128.785c-1.752-.932-3.634-1.758-5.63-1.785-2.99-.026-5.665 1.76-7.88 3.729a39.75 39.75 0 0 0-5.527 5.989c-.806 1.077-1.58 2.26-1.702 3.592-.122 1.332.621 2.832 1.954 3.148a3.537 3.537 0 0 0 2.432-.479c3.08-1.653 5.364-5.439 8.855-5.07 2.4.25 4.021 2.427 5.327 4.397 1.167 1.76 2.351 3.566 2.87 5.598.517 2.031.27 4.397-1.18 5.927-1.122 1.2-2.77 1.759-4.306 2.383a30.148 30.148 0 0 0-9.179 5.813c-1.292 1.205-2.517 2.638-2.702 4.397-.184 1.759 1.185 3.694 2.968 3.57a4.791 4.791 0 0 0 2.202-.936c3.225-2.08 6.517-4.26 10.3-5.026 3.85-.778 7.827 0 11.71.58 4.246.651 8.53 1.104 12.821 1.355 1.278.143 2.571.06 3.82-.242 4.246-1.284 5.485-6.565 4.994-10.381-.532-4.08-3.603-5.009-6.823-7.036-9.025-5.804-15.731-14.422-25.324-19.523z"/>
        <path fill="#2F2E41" fill-rule="nonzero" d="M239.174 67.857c2.004-3.14 4.384-6.545 7.637-6.909 4.542-.51 8.09 5.118 12.609 5.845 5.817.94 11.535-6.44 17.003-3.743 2.684 1.33 4.689 5.02 7.606 4.949 2.018-.044 3.66-1.92 4.998-3.76a70.033 70.033 0 0 0 5.973-9.81c-5.553-6.31-13.629-7.751-21.168-8.9L261.156 43.6c-3.051-.465-6.157-.926-9.19-.283-2.743.58-5.302 2.044-7.786 3.583-2.962 1.844-9.928 4.807-11.745 8.239-1.266 2.381.474 3.49 2.108 5.889 1.536 2.276 3.08 4.553 4.63 6.83z"/>
        <path fill="#000" fill-rule="nonzero" d="M221.06 145a66.127 66.127 0 0 1-16.489 1.168c-2.167-.114-4.343-.338-6.502-.136-2.605.246-5.108 1.102-7.646 1.725-13.15 3.219-26.893.075-40.318-1.69-2.37-.312-4.794-.58-7.143-.123-2.15.417-4.136 1.418-6.039 2.494a72.98 72.98 0 0 0-8.829 5.879c-2.926 2.274-5.88 5.172-6.083 8.856-.176 3.17 1.766 6.09 4.119 8.245 6.357 5.853 15.795 7.613 24.306 6.028 3.236-.601 6.392-1.637 9.664-1.997 3.35-.37 6.736 0 10.104-.158 6.843-.303 13.394-2.67 20.038-4.316A97.024 97.024 0 0 1 222 168.498a.688.688 0 0 1-.94-.478c-.782-2.143-.821-4.474-.808-6.753A185.36 185.36 0 0 1 221.06 145z" opacity=".1"/>
        <path fill="#FF9797" fill-rule="nonzero" d="M219.06 146a66.127 66.127 0 0 1-16.489 1.168c-2.167-.114-4.343-.338-6.502-.136-2.605.246-5.108 1.102-7.646 1.725-13.15 3.219-26.893.075-40.318-1.69-2.37-.312-4.794-.58-7.143-.123-2.15.417-4.136 1.418-6.039 2.494a72.98 72.98 0 0 0-8.829 5.879c-2.926 2.274-5.88 5.172-6.083 8.856-.176 3.17 1.766 6.09 4.119 8.245 6.357 5.853 15.795 7.613 24.306 6.028 3.236-.601 6.392-1.637 9.664-1.997 3.35-.37 6.736 0 10.104-.158 6.843-.303 13.394-2.67 20.038-4.316A97.024 97.024 0 0 1 220 169.498a.688.688 0 0 1-.94-.478c-.782-2.143-.821-4.474-.808-6.753A185.36 185.36 0 0 1 219.06 146z"/>
        <path fill="#000" fill-rule="nonzero" d="M301 143.352c6.775 1.542 23.08 2.221 30.023 1.99 3.17-.098 6.33-.382 9.5-.373 5.432 0 10.855.888 16.274.529 7.001-.48 13.878-3.052 20.861-2.39 3.432.329 6.735 1.421 10.007 2.514 3.271 1.093 6.836 2.327 9.139 4.983 2.134 2.46 2.912 5.774 3.618 8.954.396 1.776.792 3.61.445 5.392-.662 3.38-3.779 5.667-6.77 7.372-3.556 2.026-7.46 3.767-11.558 3.673-2.431-.053-4.796-.755-7.112-1.483-6.637-2.083-13.42-4.441-20.355-3.922-4.85.373-9.695 2.159-14.465 1.195-2.805-.568-5.334-2.052-8.001-3.038-6.5-2.376-22.996-1.745-29.886-1.088.4-3.868.351-7.768.752-11.64.31-2.963.609-6.032-.343-8.857-.595-1.692-.795-2.611-2.129-3.81z" opacity=".1"/>
        <path fill="#FF9797" fill-rule="nonzero" d="M301 144.352c6.775 1.542 23.08 2.221 30.023 1.99 3.17-.098 6.33-.382 9.5-.373 5.432 0 10.855.888 16.274.529 7.001-.48 13.878-3.052 20.861-2.39 3.432.329 6.735 1.421 10.007 2.514 3.271 1.093 6.836 2.327 9.139 4.983 2.134 2.46 2.912 5.774 3.618 8.954.396 1.776.792 3.61.445 5.392-.662 3.38-3.779 5.667-6.77 7.372-3.556 2.026-7.46 3.767-11.558 3.673-2.431-.053-4.796-.755-7.112-1.483-6.637-2.083-13.42-4.441-20.355-3.922-4.85.373-9.695 2.159-14.465 1.195-2.805-.568-5.334-2.052-8.001-3.038-6.5-2.376-22.996-1.745-29.886-1.088.4-3.868.351-7.768.752-11.64.31-2.963.609-6.032-.343-8.857-.595-1.692-.795-2.611-2.129-3.81z"/>
        <path fill="#FBBEBE" fill-rule="nonzero" d="M231.17 76.296c-1.214-.265-1.682-1.55-2.776-2.065-1.095-.517-2.465-.109-3.254.659-.733.813-1.13 1.802-1.131 2.82-.2 4.496 2.997 8.613 7.991 10.29a36.586 36.586 0 0 1-1.245-12.052l.415.348zM296.835 76.296c1.215-.265 1.677-1.55 2.771-2.065 1.095-.517 2.465-.109 3.254.659.735.811 1.132 1.802 1.131 2.82.2 4.496-2.997 8.613-7.991 10.29a36.586 36.586 0 0 0 1.245-12.052l-.41.348z"/>
        <path fill="#000" fill-rule="nonzero" d="M254.848 175.292a39.126 39.126 0 0 1 1.1 9.63c0 5.657-.988 10.593-2.46 13.244-.124 1.26-.264 2.511-.4 3.74 2.076-1.8 3.6-7.714 3.6-14.734-.016-4.797-.728-9.076-1.84-11.88zM266.916 175.292a39.11 39.11 0 0 0-1.104 9.63c0 5.657.992 10.593 2.464 13.244.124 1.26.26 2.511.4 3.74-2.076-1.8-3.6-7.714-3.6-14.734-.004-4.797.708-9.076 1.84-11.88zM289.028 62.175c-1.342 1.793-2.979 3.62-4.996 3.664-2.921.069-4.92-3.517-7.604-4.822-5.444-2.627-11.147 4.562-16.998 3.646-4.518-.708-8.052-6.191-12.606-5.694-3.251.354-5.631 3.672-7.635 6.731-1.55-2.215-3.1-4.433-4.648-6.653-.894-1.297-1.865-2.226-2.299-3.185-.868 2.057.76 3.146 2.3 5.345 1.538 2.2 3.095 4.437 4.647 6.654 2.004-3.06 4.384-6.378 7.635-6.732 4.54-.497 8.088 4.986 12.606 5.695 5.815.916 11.531-6.274 16.998-3.647 2.683 1.296 4.687 4.891 7.604 4.822 2.017-.043 3.659-1.87 4.996-3.664A67.935 67.935 0 0 0 295 54.778a17.908 17.908 0 0 0-.747-.778 68.622 68.622 0 0 1-5.225 8.175z" opacity=".1"/>
    </g>
</svg>
