<svg xmlns="http://www.w3.org/2000/svg" width="311" height="239" viewBox="0 0 311 239">
    <defs>
        <linearGradient id="a" x1="37.808%" x2="62.193%" y1="101.74%" y2="-1.736%">
            <stop offset="0%" stop-color="gray" stop-opacity=".25"/>
            <stop offset="54%" stop-color="gray" stop-opacity=".12"/>
            <stop offset="100%" stop-color="gray" stop-opacity=".1"/>
        </linearGradient>
        <linearGradient id="b" x1="49.884%" x2="49.884%" y1="100%" y2=".052%">
            <stop offset="0%" stop-color="gray" stop-opacity=".25"/>
            <stop offset="54%" stop-color="gray" stop-opacity=".12"/>
            <stop offset="100%" stop-color="gray" stop-opacity=".1"/>
        </linearGradient>
        <linearGradient id="c" x1="50.026%" x2="50.026%" y1="100%" y2=".001%">
            <stop offset="0%" stop-color="gray" stop-opacity=".25"/>
            <stop offset="54%" stop-color="gray" stop-opacity=".12"/>
            <stop offset="100%" stop-color="gray" stop-opacity=".1"/>
        </linearGradient>
    </defs>
    <g fill="none" fill-rule="evenodd" opacity=".6">
        <path fill="#F0E4E4" fill-rule="nonzero" d="M71.793 191.362c4.163.277 8.564 1.736 12.352-.03.978-.455 1.864-1.112 2.879-1.477 2.33-.841 4.891-.024 7.239.762a318.097 318.097 0 0 0 56.44 13.305c3.95.557 8.074 1.025 11.839-.273 2.753-.947 5.138-2.776 7.864-3.801 4.458-1.671 9.383-1.05 14.129-.786a89.653 89.653 0 0 0 36.53-5.622l.613-.236a18.311 18.311 0 0 1 17.62 2.392 43.145 43.145 0 0 0 6.284 3.873c7.398 3.769 10.485 12.801 6.965 20.38l-.082.177c-1.934 4.262-3.548 9.033-7.34 11.74-3.575 2.553-8.266 2.659-12.643 2.67l-26.868.064c-2.787 0-5.608 0-8.314-.663-2.432-.605-4.695-1.74-6.937-2.867l-12.022-6.026c-4.84-2.43-10.147-4.932-15.444-3.814-5.412 1.142-9.312 5.738-14.027 8.637-7.317 4.5-17.045 4.678-24.517.44-3.578-2.03-6.687-4.99-10.59-6.264-6.447-2.109-13.297.81-19.93 2.208-12.908 2.72-28.112-1.002-38.002-10-12.739-11.593 2.218-25.698 15.962-24.79z"/>
        <path stroke="#535461" stroke-width="2" d="M22.877 211.5s-9.848-33.502 1.847-58.185c4.909-10.355 6.54-21.978 4.27-33.214a89.203 89.203 0 0 0-4.69-15.601"/>
        <path fill="#FF9797" fill-rule="nonzero" d="M32 88.793c0 4.027-7.5 15.707-7.5 15.707S17 92.82 17 88.793c0-4.028 3.358-7.293 7.5-7.293 4.142 0 7.5 3.265 7.5 7.293zM43.816 111.044C41.604 114.512 29 120.5 29 120.5s.229-14.118 2.44-17.586a7.34 7.34 0 0 1 6.564-3.404c2.63.136 4.99 1.685 6.188 4.065a7.573 7.573 0 0 1-.376 7.469zM43.8 150.505c-3.7 1.835-17.8.57-17.8.57s7.356-11.921 11.057-13.756a7.614 7.614 0 0 1 7.533.378c2.26 1.448 3.556 3.977 3.397 6.625-.16 2.648-1.751 5.008-4.17 6.183h-.016zM37.087 179.934C33.824 182.39 20 183.5 20 183.5s5.093-13.131 8.353-15.586c3.263-2.396 7.813-1.675 10.206 1.617s1.739 7.93-1.469 10.403h-.003zM13.239 121.539C16.202 124.467 30 127.5 30 127.5s-3.379-13.948-6.342-16.877a7.385 7.385 0 0 0-10.544.184c-2.867 3.003-2.81 7.799.125 10.732zM5.786 155.496c3.578 1.852 17.214.574 17.214.574s-7.114-12.029-10.693-13.88c-3.554-1.687-7.771-.176-9.531 3.415-1.76 3.59-.428 7.967 3.01 9.891zM2.913 189.934C6.176 192.39 20 193.5 20 193.5s-5.093-13.131-8.353-15.586c-3.263-2.396-7.813-1.675-10.206 1.617s-1.739 7.93 1.469 10.403h.003z"/>
        <path fill="#000" fill-rule="nonzero" d="M32 88.793c0 4.027-7.5 15.707-7.5 15.707S17 92.82 17 88.793c0-4.028 3.358-7.293 7.5-7.293 4.142 0 7.5 3.265 7.5 7.293zM43.816 111.044C41.604 114.512 29 120.5 29 120.5s.229-14.118 2.44-17.586a7.34 7.34 0 0 1 6.564-3.404c2.63.136 4.99 1.685 6.188 4.065a7.573 7.573 0 0 1-.376 7.469zM43.8 150.505c-3.7 1.835-17.8.57-17.8.57s7.356-11.921 11.057-13.756a7.614 7.614 0 0 1 7.533.378c2.26 1.448 3.556 3.977 3.397 6.625-.16 2.648-1.751 5.008-4.17 6.183h-.016zM37.087 179.934C33.824 182.39 20 183.5 20 183.5s5.093-13.131 8.353-15.586c3.263-2.396 7.813-1.675 10.206 1.617s1.739 7.93-1.469 10.403h-.003zM13.239 121.539C16.202 124.467 30 127.5 30 127.5s-3.379-13.948-6.342-16.877a7.385 7.385 0 0 0-10.544.184c-2.867 3.003-2.81 7.799.125 10.732zM5.786 155.496c3.578 1.852 17.214.574 17.214.574s-7.114-12.029-10.693-13.88c-3.554-1.687-7.771-.176-9.531 3.415-1.76 3.59-.428 7.967 3.01 9.891zM2.913 189.934C6.176 192.39 20 193.5 20 193.5s-5.093-13.131-8.353-15.586c-3.263-2.396-7.813-1.675-10.206 1.617s-1.739 7.93 1.469 10.403h.003z" opacity=".25"/>
        <path fill="#FF9797" fill-rule="nonzero" d="M203.12 118.08c-1.251-9.795 2.668-19.878.338-29.467-1.792-7.407-7.102-13.591-8.847-21.012-2.563-10.997 3.301-22.292 10.785-30.736 5.147-5.82 11.607-11.102 19.307-12.16 4.755-.675 9.642.369 14.032 2.304a35.573 35.573 0 0 1 19.142 20.999c1.014 3.006 1.6 6.15 2.847 9.065 2.148 5.023 6.088 9.076 8.54 13.96a26.456 26.456 0 0 1 .9 21.404c-2.838 7.073-8.794 12.99-9.673 20.56-.64 5.454 1.41 11.43-1.251 16.235-2.01 3.628-6.145 5.459-10.062 6.83-9.11 3.175-21.847 8.309-30.978 3.421-7.988-4.272-13.923-12.362-15.08-21.403z"/>
        <path stroke="#333" stroke-width="3" d="M229 124.5s13.3-5.333 14.976-8.333c1.677-3 4.024-20.667 4.024-20.667M228 208.5v-117"/>
        <path fill="url(#a)" fill-rule="nonzero" d="M117.7 0L4.722.274a4.65 4.65 0 0 0-3.279 1.361A4.614 4.614 0 0 0 .092 4.908L.605 215.38a4.614 4.614 0 0 0 1.368 3.267 4.65 4.65 0 0 0 3.287 1.346l112.976-.274a4.65 4.65 0 0 0 3.28-1.361 4.614 4.614 0 0 0 1.351-3.272l-.51-210.473a4.614 4.614 0 0 0-1.368-3.268A4.65 4.65 0 0 0 117.699 0z" opacity=".5" transform="translate(95 .5)"/>
        <path fill="#535461" fill-rule="nonzero" d="M110.466 3.12l91.202-.223c7.533-.018 13.655 6.074 13.673 13.607l.456 186.665c.018 7.534-6.073 13.655-13.607 13.674l-91.2.223c-7.534.018-13.656-6.074-13.674-13.607L96.86 16.793C96.84 9.26 102.933 3.138 110.466 3.12z"/>
        <path fill="#FFF" fill-rule="nonzero" d="M213 206.748a4.496 4.496 0 0 1-4.487 4.502l-103.536.25a4.496 4.496 0 0 1-4.51-4.479l-.071-30.315L100 13.252a4.496 4.496 0 0 1 4.487-4.502l21.654-.05a9.6 9.6 0 0 0 9.474 8.13l40.914-.099a9.604 9.604 0 0 0 9.47-8.177l21.993-.054a4.496 4.496 0 0 1 4.51 4.479l.424 163.727.074 30.042z"/>
        <path fill="#E6E6E6" fill-rule="nonzero" d="M213 206.72a4.517 4.517 0 0 1-4.502 4.529l-103.9.251a4.517 4.517 0 0 1-4.527-4.505L100 176.5h112.925l.075 30.22z"/>
        <path fill="#FFF" fill-rule="nonzero" d="M142.628 11.133l24.748-.372a.826.826 0 0 1 .025 1.652l-24.748.372a.826.826 0 0 1-.025-1.652z"/>
        <ellipse cx="173.818" cy="11.321" fill="#FFF" fill-rule="nonzero" rx="1" ry="1" transform="rotate(-.86 173.818 11.321)"/>
        <path fill="#FF9797" fill-rule="nonzero" d="M242.12 118.08c-1.25-9.796 2.669-19.878.339-29.467-1.793-7.407-7.103-13.591-8.848-21.012-2.563-10.997 3.301-22.292 10.786-30.736 5.147-5.82 11.607-11.102 19.308-12.16 4.755-.675 9.642.369 14.032 2.304a35.573 35.573 0 0 1 19.142 20.999c1.014 3.006 1.6 6.15 2.847 9.065 2.148 5.023 6.088 9.076 8.54 13.96a26.455 26.455 0 0 1 .89 21.417c-2.838 7.073-8.794 12.99-9.673 20.56-.64 5.454 1.41 11.43-1.251 16.236-2.01 3.627-6.145 5.458-10.062 6.83-9.1 3.16-21.838 8.294-30.97 3.407-7.987-4.273-13.923-12.362-15.08-21.404z"/>
        <path fill="#000" fill-rule="nonzero" d="M242.12 118.08c-1.25-9.796 2.669-19.878.339-29.467-1.793-7.407-7.103-13.591-8.848-21.012-2.563-10.997 3.301-22.292 10.786-30.736 5.147-5.82 11.607-11.102 19.308-12.16 4.755-.675 9.642.369 14.032 2.304a35.573 35.573 0 0 1 19.142 20.999c1.014 3.006 1.6 6.15 2.847 9.065 2.148 5.023 6.088 9.076 8.54 13.96a26.455 26.455 0 0 1 .89 21.417c-2.838 7.073-8.794 12.99-9.673 20.56-.64 5.454 1.41 11.43-1.251 16.236-2.01 3.627-6.145 5.458-10.062 6.83-9.1 3.16-21.838 8.294-30.97 3.407-7.987-4.273-13.923-12.362-15.08-21.404z" opacity=".2"/>
        <path stroke="#333" stroke-width="3" d="M267 124.5s13.3-5.333 14.976-8.333c1.677-3 4.024-20.667 4.024-20.667M267 208.5v-117"/>
        <path stroke="#535461" stroke-width="2" d="M47.766 224.5s-4.485-14.722.84-25.566a22.558 22.558 0 0 0 1.945-14.586 38.144 38.144 0 0 0-2.136-6.848"/>
        <path fill="#FF9797" fill-rule="nonzero" d="M50.997 170.671c0 1.75-2.999 6.829-2.999 6.829S45 172.421 45 170.671c0-1.751 1.343-3.171 3-3.171s3 1.42 3 3.171h-.003zM57.482 181.447C56.512 182.932 51 185.5 51 185.5s.101-6.05 1.067-7.537a3.232 3.232 0 0 1 2.872-1.459 3.227 3.227 0 0 1 2.708 1.742 3.187 3.187 0 0 1-.165 3.201zM56.308 198.035c-1.52.857-7.308.267-7.308.267s3.016-5.575 4.536-6.432c.982-.556 2.153-.481 3.073.195.92.676 1.448 1.85 1.386 3.082-.062 1.232-.705 2.332-1.687 2.888zM53.661 211.038C52.197 212.046 46 212.5 46 212.5s2.282-5.384 3.746-6.399c1.463-1.007 3.526-.72 4.608.642 1.082 1.361.773 3.281-.69 4.289l-.003.006zM43.954 184.993C45.2 186.225 51 187.5 51 187.5s-1.42-5.865-2.667-7.096a3.105 3.105 0 0 0-3.048-.782 3.174 3.174 0 0 0-2.19 2.294 3.236 3.236 0 0 0 .859 3.077zM40.692 201.035c1.52.857 7.308.267 7.308.267s-3.016-5.574-4.536-6.431c-1.517-.859-3.368-.175-4.134 1.527-.765 1.702-.155 3.778 1.362 4.637zM39.339 215.038C40.803 216.046 47 216.5 47 216.5s-2.282-5.384-3.746-6.399c-1.463-1.007-3.526-.72-4.608.642-1.082 1.361-.773 3.281.69 4.289l.003.006z"/>
        <path fill="#000" fill-rule="nonzero" d="M50.997 170.671c0 1.75-2.999 6.829-2.999 6.829S45 172.421 45 170.671c0-1.751 1.343-3.171 3-3.171s3 1.42 3 3.171h-.003zM57.482 181.447C56.512 182.932 51 185.5 51 185.5s.101-6.05 1.067-7.537a3.232 3.232 0 0 1 2.872-1.459 3.227 3.227 0 0 1 2.708 1.742 3.187 3.187 0 0 1-.165 3.201zM56.308 198.035c-1.52.857-7.308.267-7.308.267s3.016-5.575 4.536-6.432c.982-.556 2.153-.481 3.073.195.92.676 1.448 1.85 1.386 3.082-.062 1.232-.705 2.332-1.687 2.888zM53.661 211.038C52.197 212.046 46 212.5 46 212.5s2.282-5.384 3.746-6.399c1.463-1.007 3.526-.72 4.608.642 1.082 1.361.773 3.281-.69 4.289l-.003.006zM43.954 184.993C45.2 186.225 51 187.5 51 187.5s-1.42-5.865-2.667-7.096a3.105 3.105 0 0 0-3.048-.782 3.174 3.174 0 0 0-2.19 2.294 3.236 3.236 0 0 0 .859 3.077zM40.692 201.035c1.52.857 7.308.267 7.308.267s-3.016-5.574-4.536-6.431c-1.517-.859-3.368-.175-4.134 1.527-.765 1.702-.155 3.778 1.362 4.637zM39.339 215.038C40.803 216.046 47 216.5 47 216.5s-2.282-5.384-3.746-6.399c-1.463-1.007-3.526-.72-4.608.642-1.082 1.361-.773 3.281.69 4.289l.003.006z" opacity=".25"/>
        <path stroke="#535461" stroke-width="2" d="M286.111 216.5s-5.372-18.172 1.023-31.547a28.611 28.611 0 0 0 2.328-18.002 48.146 48.146 0 0 0-2.56-8.451"/>
        <path fill="#FF9797" fill-rule="nonzero" d="M290.997 149.623c0 2.277-3.999 8.877-3.999 8.877S283 151.904 283 149.623c0-2.277 1.79-4.123 4-4.123s4 1.846 4 4.123h-.003zM297.333 162.55c-1.243 1.816-8.333 4.95-8.333 4.95s.13-7.394 1.373-9.212c1.245-1.816 3.812-2.334 5.734-1.158 1.922 1.176 2.471 3.602 1.226 5.418v.003zM297.743 182.963c-2.023.996-9.743.302-9.743.302s4.02-6.36 6.047-7.342c2.024-.98 4.492-.2 5.513 1.744 1.02 1.943.207 4.313-1.817 5.293v.003zM293.368 199.619C291.58 200.915 284 201.5 284 201.5s2.791-6.93 4.579-8.226c1.788-1.296 4.309-.926 5.631.826a3.895 3.895 0 0 1-.842 5.519zM281.102 168.338c1.571 1.554 8.898 3.162 8.898 3.162s-1.795-7.402-3.366-8.952a3.92 3.92 0 0 0-5.51.173 4.086 4.086 0 0 0-.022 5.607v.01zM277.257 185.963c2.022.996 9.743.302 9.743.302s-4.021-6.36-6.047-7.343a4.251 4.251 0 0 0-4.098.223c-1.227.772-1.931 2.113-1.848 3.519.082 1.405.94 2.662 2.25 3.295v.004zM275.632 204.619C277.42 205.915 285 206.5 285 206.5s-2.791-6.93-4.579-8.226c-1.788-1.296-4.309-.926-5.631.826a3.895 3.895 0 0 0 .842 5.519z"/>
        <path fill="#FFF" fill-rule="nonzero" d="M290.997 149.623c0 2.277-3.999 8.877-3.999 8.877S283 151.904 283 149.623c0-2.277 1.79-4.123 4-4.123s4 1.846 4 4.123h-.003zM297.333 162.55c-1.243 1.816-8.333 4.95-8.333 4.95s.13-7.394 1.373-9.212c1.245-1.816 3.812-2.334 5.734-1.158 1.922 1.176 2.471 3.602 1.226 5.418v.003zM297.743 182.963c-2.023.996-9.743.302-9.743.302s4.02-6.36 6.047-7.342c2.024-.98 4.492-.2 5.513 1.744 1.02 1.943.207 4.313-1.817 5.293v.003zM293.368 199.619C291.58 200.915 284 201.5 284 201.5s2.791-6.93 4.579-8.226c1.788-1.296 4.309-.926 5.631.826a3.895 3.895 0 0 1-.842 5.519zM281.102 168.338c1.571 1.554 8.898 3.162 8.898 3.162s-1.795-7.402-3.366-8.952a3.92 3.92 0 0 0-5.51.173 4.086 4.086 0 0 0-.022 5.607v.01zM277.257 185.963c2.022.996 9.743.302 9.743.302s-4.021-6.36-6.047-7.343a4.251 4.251 0 0 0-4.098.223c-1.227.772-1.931 2.113-1.848 3.519.082 1.405.94 2.662 2.25 3.295v.004zM275.632 204.619C277.42 205.915 285 206.5 285 206.5s-2.791-6.93-4.579-8.226c-1.788-1.296-4.309-.926-5.631.826a3.895 3.895 0 0 0 .842 5.519z" opacity=".5"/>
        <g fill="#FF9797" fill-rule="nonzero" opacity=".6" transform="translate(106 34.5)">
            <rect width="21.616" height="21.662" x=".03" y=".291" rx="10.5"/>
            <rect width="21.616" height="21.662" x="26.713" y=".291" rx="10.5"/>
            <rect width="21.616" height="21.662" x="53.395" y=".291" rx="10.5"/>
            <rect width="21.616" height="21.662" x="80.077" y=".291" rx="10.5"/>
        </g>
        <rect width="22" height="22" x="105" y="66.5" fill="#FF9797" fill-rule="nonzero" rx="10.5"/>
        <rect width="22" height="22" x="132" y="66.5" fill="#FF9797" fill-rule="nonzero" opacity=".6" rx="10.5"/>
        <rect width="22" height="22" x="159" y="66.5" fill="#FF9797" fill-rule="nonzero" opacity=".6" rx="10.5"/>
        <rect width="22" height="22" x="186" y="66.5" fill="#FF9797" fill-rule="nonzero" opacity=".6" rx="10.5"/>
        <g fill="#FF9797" fill-rule="nonzero" opacity=".6" transform="translate(105 99.5)">
            <rect width="21.616" height="21.662" x=".145" y=".291" rx="10.5"/>
            <rect width="21.616" height="21.662" x="26.827" y=".291" rx="10.5"/>
            <rect width="21.616" height="21.662" x="53.509" y=".291" rx="10.5"/>
            <rect width="21.616" height="21.662" x="80.192" y=".291" rx="10.5"/>
        </g>
        <g fill="#FF9797" fill-rule="nonzero" opacity=".6" transform="translate(105 131.5)">
            <rect width="21.616" height="21.662" x=".037" y=".291" rx="10.5"/>
            <rect width="21.616" height="21.662" x="26.719" y=".291" rx="10.5"/>
            <rect width="21.616" height="21.662" x="53.401" y=".291" rx="10.5"/>
            <rect width="21.616" height="21.662" x="80.084" y=".291" rx="10.5"/>
        </g>
        <path fill="url(#b)" fill-rule="nonzero" d="M117.044 91.505V93.5L109 88.186l.848-1.108.393.242 6.226-9.542V72.23l2.372.22v-.886c6.269-7.53 6.9.886 5.61 3.323-1.291 2.436-3.667 4.206-3.667 4.206-1.32 1.16-3.629 9.924-4.187 12.123l.45.29z"/>
        <path fill="url(#c)" fill-rule="nonzero" d="M54.351 108.911s6.312 12.349 4.352 24.697c-.658 4.151-.383 6.688.275 8.235a15.143 15.143 0 0 1-1.357 4.822c-2.395 5.006-2.395 10.229.651 16.324l.872 31.54s1.088 14.797 0 17.846c-1.089 3.05.434 17.636.434 17.636h-.217v8.051l16.306.438s3.823-1.814 4.5-3.171l8.195 2.52s9.018-1.553 3.73-3.704c-3.937-1.6-4.914-3.89-5.158-4.948l12.888-37.055s-2.395-31.541-11.1-42.438l-.882-6.417h.122l1.848-37.465.153.02h-.044c4.765.761 9.626.687 14.366-.22a22.384 22.384 0 0 0 4.162-1.164l.247-.098H108.745a12.596 12.596 0 0 0 2.829-1.614L117 94.433l-8.269-5.698-2.828 4.036s-8.862-1.872-13.73-3.846a20.794 20.794 0 0 0-7.121-1.53l-5.315-.183-2.649-1.59.828-2.14c.081-.037.163-.075.244-.119l.075-.458c6.802-1.689 10.948-8.57 9.262-15.373h.173c-.075-4.41-1.424-4.84-1.424-4.84 0-4.484-3.918-7.763-8.381-8.14a22.191 22.191 0 0 0-6.881.604 8.007 8.007 0 0 0-6.105 6.96c-5.83 1.604-3.877 4.656-3.968 5.826-.448 5.698 1.356 9.066 3.357 11.03a10.514 10.514 0 0 0 2.94 2.156l-1.271 2.547h-.373l-1.038 3.053h-.05l-1.134.732a21.261 21.261 0 0 0-8.99 21.451zm17.41 121.1v-9.791l4.134-28.943v-14.8l7.403 15.44-7.97 33.495-.417-.115-1.835 6.593a4.33 4.33 0 0 1-1.312-1.879h-.004z"/>
        <path fill="#FDA57D" fill-rule="nonzero" d="M115.376 75.03v5.245L109 89.432l6.376 4.068s2.834-10.703 4.362-11.962c0 0 2.4-1.678 3.706-3.986 1.305-2.308.653-10.284-5.672-3.15v.842l-2.396-.215zM65.097 88.365l2.528-4.889a.937.937 0 0 1 .789-.5l9.601-.475a.948.948 0 0 1 .807.373.88.88 0 0 1 .115.858l-2.476 6.19a.938.938 0 0 1-.957.574l-9.65-.83a.938.938 0 0 1-.734-.457.878.878 0 0 1-.023-.844z"/>
        <path fill="#EDEEF9" fill-rule="nonzero" d="M66.558 85.5L65 90.5l16-.63-6.146-4.035zM108 90.534l.84-1.034 7.16 4.138V95.5z"/>
        <path fill="#7A7478" fill-rule="nonzero" d="M59.74 136.5a15.699 15.699 0 0 1-1.096 9.597c-2.287 4.822-2.287 9.862.624 15.725l.833 30.402s1.038 14.26 0 17.194c-1.039 2.935.408 16.987.408 16.987h11.644v-9.437l3.95-27.886V174.82l7.081 14.889-8.094 34.388 10.603 4.404L99 189.919s-2.307-30.403-10.623-40.884l-1.564-11.43L59.74 136.5z"/>
        <path fill="#333" fill-rule="nonzero" d="M60 234.088V226.5h11.862s.834 3.077 6.245 3.692c5.411.616-2.498 4.308-2.498 4.308L60 234.088z"/>
        <path fill="#333" fill-rule="nonzero" d="M73 228.922l2.057-7.422 11.379 3.181s-.037 3.229 4.987 5.28-3.562 3.539-3.562 3.539L73 228.922z"/>
        <path fill="#000" fill-rule="nonzero" d="M87.28 138.576L60 137.5a14.51 14.51 0 0 1 .207 4.822c1.247 2.862 3.925 2.08 3.925 2.08L88 143.687l-.72-5.11z" opacity=".1"/>
        <path fill="#4D8AF0" fill-rule="nonzero" d="M64.966 88.5l-1.075.733c-6.649 4.527-10.007 12.578-8.558 20.519 0 0 6.008 11.824 4.143 23.647-1.865 11.824 4.143 10 4.143 10l23.723-.733 1.76-35.86s14.295 2.044 20.72-2.956L115 95.895l-7.873-5.463-2.688 3.865S96 92.507 91.368 90.615a19.705 19.705 0 0 0-6.795-1.463L64.966 88.5z"/>
        <path fill="#000" fill-rule="nonzero" d="M65.099 146.5s-1.466 7.15 6.901 19M90 106.986s9.962-3.486 14.322-3.486c4.36 0 3.632 1.977 3.632 1.977s-6.942 3.253-17.954 1.51zM78.565 82.501l-4.238.419c-.133 0-.255.151-.327.368.932 1.387 2.097 2.212 3.364 2.212a3.044 3.044 0 0 0 1.284-.297l.324-1.618c.108-.538-.108-1.114-.407-1.084z" opacity=".1"/>
        <circle cx="76" cy="73.5" r="12" fill="#FDA57D" fill-rule="nonzero"/>
        <path fill="#000" fill-rule="nonzero" d="M86 66.786l-.62.56a2.098 2.098 0 0 0 .61 3.485s-5.436 5.435-6.192 6.444c-.756 1.008.125 3.664.125 3.664s2.403 4.423-10.237 3.41c0 0-8.341-1.767-7.457-13.016.088-1.126-1.768-4.048 3.793-5.56a7.652 7.652 0 0 1 5.86-6.646c2.15-.534 4.37-.73 6.58-.577A8.26 8.26 0 0 1 86 66.786z" opacity=".1"/>
        <path fill="#72351C" fill-rule="nonzero" d="M86.641 65.33s1.298.397 1.359 4.624l-1.845-.125s-4.266 11.335-3.818 9.857c1.655-5.434-1.654-4.422-2.418-3.41-.765 1.012.125 3.663.125 3.663s2.419 4.422-10.306 3.41c0 0-8.397-1.767-7.507-13.014.088-1.127-1.78-4.048 3.818-5.56.34-3.233 2.703-5.9 5.89-6.648 2.164-.534 4.4-.73 6.624-.577 4.308.361 8.078 3.502 8.078 7.78z"/>
        <g fill="#FF9797" fill-rule="nonzero" opacity=".6" transform="translate(106 183.5)">
            <rect width="21.616" height="21.662" x=".037" y=".118" rx="10.5"/>
            <rect width="21.616" height="21.662" x="26.719" y=".118" rx="10.5"/>
            <rect width="21.616" height="21.662" x="53.401" y=".118" rx="10.5"/>
            <rect width="21.616" height="21.662" x="80.084" y=".118" rx="10.5"/>
        </g>
        <g fill="#000" fill-rule="nonzero" opacity=".1" transform="translate(106 183.5)">
            <rect width="21.616" height="21.662" x=".037" y=".118" rx="10.5"/>
            <rect width="21.616" height="21.662" x="26.719" y=".118" rx="10.5"/>
            <rect width="21.616" height="21.662" x="53.401" y=".118" rx="10.5"/>
            <rect width="21.616" height="21.662" x="80.084" y=".118" rx="10.5"/>
        </g>
    </g>
</svg>
